<svg width="22" height="37" viewBox="0 0 22 37" fill="none" xmlns="http://www.w3.org/2000/svg">
<path d="M6.76088 18.5L20.9977 32.7014C20.9977 32.7014 20.9977 32.7015 20.9977 32.7015C21.4673 33.1698 21.4672 33.9295 20.9977 34.3978L19.3927 35.999C19.3927 35.999 19.3927 35.999 19.3926 35.9991C19.1673 36.224 18.8618 36.35 18.5436 36.35C18.2254 36.35 17.9199 36.224 17.6945 35.9991C17.6945 35.999 17.6945 35.999 17.6944 35.999L1.00219 19.3482L1.00215 19.3482H1.00215C0.532579 18.8799 0.532655 18.1201 1.00215 17.6518L17.6945 1.00103L17.6946 1.00094C17.92 0.776047 18.2255 0.65 18.5437 0.65C18.8619 0.65 19.1674 0.776051 19.3928 1.00095L6.76088 18.5ZM6.76088 18.5L20.9979 4.29853C21.4673 3.8302 21.4674 3.07046 20.9979 2.60217C20.9978 2.60216 20.9978 2.60214 20.9978 2.60212L19.3928 1.00103L6.76088 18.5Z" fill="white" stroke="white" stroke-width="0.7"/>
</svg>

