<svg width="700" height="260" viewBox="0 0 700 260" fill="none" xmlns="http://www.w3.org/2000/svg">
<path d="M609.257 -32.8574L620.648 -14.5419L600.579 -6.64374" stroke="#59FFC6" stroke-width="3" stroke-miterlimit="10"/>
<path d="M499.699 -29.916L511.091 -11.6049L491.022 -3.70675" stroke="#59FFC6" stroke-width="3" stroke-miterlimit="10"/>
<path d="M531.891 -18.2734L542.887 0.281752L522.653 7.74756" stroke="#59FFC6" stroke-width="3" stroke-miterlimit="10"/>
<path d="M563.687 -6.38281L575.079 11.9283L555.01 19.8265" stroke="#59FFC6" stroke-width="3" stroke-miterlimit="10"/>
<path d="M596.065 4.30078L607.457 22.6119L587.388 30.5101" stroke="#59FFC6" stroke-width="3" stroke-miterlimit="10"/>
<path d="M390.213 -26.7383L401.21 -8.1875L380.976 -0.721698" stroke="#59FFC6" stroke-width="3" stroke-miterlimit="10"/>
<path d="M422.333 -15.334L433.331 3.21679L413.097 10.6826" stroke="#59FFC6" stroke-width="3" stroke-miterlimit="10"/>
<path d="M454.13 -3.44531L465.52 14.8702L445.452 22.7684" stroke="#59FFC6" stroke-width="3" stroke-miterlimit="10"/>
<path d="M486.508 7.23633L497.9 25.5474L477.83 33.45" stroke="#59FFC6" stroke-width="3" stroke-miterlimit="10"/>
<path d="M518.701 18.8789L529.697 37.4341L509.463 44.8999" stroke="#59FFC6" stroke-width="3" stroke-miterlimit="10"/>
<path d="M550.496 30.7695L561.888 49.0807L541.818 56.9832" stroke="#59FFC6" stroke-width="3" stroke-miterlimit="10"/>
<path d="M582.874 41.4531L594.266 59.7643L574.198 67.6624" stroke="#59FFC6" stroke-width="3" stroke-miterlimit="10"/>
<path d="M280.656 -23.8008L291.652 -5.24559L271.418 2.22021" stroke="#59FFC6" stroke-width="3" stroke-miterlimit="10"/>
<path d="M312.453 -11.9141L323.843 6.40145L303.775 14.2996" stroke="#59FFC6" stroke-width="3" stroke-miterlimit="10"/>
<path d="M344.831 -1.23047L356.221 17.0851L336.153 24.9832" stroke="#59FFC6" stroke-width="3" stroke-miterlimit="10"/>
<path d="M377.022 10.4141L388.018 28.9692L367.784 36.435" stroke="#59FFC6" stroke-width="3" stroke-miterlimit="10"/>
<path d="M409.143 21.8184L420.138 40.3735L399.905 47.8394" stroke="#59FFC6" stroke-width="3" stroke-miterlimit="10"/>
<path d="M440.939 33.707L452.33 52.0226L432.261 59.9207" stroke="#59FFC6" stroke-width="3" stroke-miterlimit="10"/>
<path d="M473.317 44.3887L484.708 62.7042L464.64 70.6024" stroke="#59FFC6" stroke-width="3" stroke-miterlimit="10"/>
<path d="M505.509 56.0352L516.506 74.5859L496.272 82.0518" stroke="#59FFC6" stroke-width="3" stroke-miterlimit="10"/>
<path d="M537.305 67.9219L548.696 86.2374L528.627 94.1356" stroke="#59FFC6" stroke-width="3" stroke-miterlimit="10"/>
<path d="M569.683 78.6055L581.074 96.921L561.006 104.819" stroke="#59FFC6" stroke-width="3" stroke-miterlimit="10"/>
<path d="M138.979 -32.2656L149.975 -13.7104L129.741 -6.24463" stroke="#59FFC6" stroke-width="3" stroke-miterlimit="10"/>
<path d="M170.774 -20.377L182.166 -2.06582L162.093 5.8307" stroke="#59FFC6" stroke-width="3" stroke-miterlimit="10"/>
<path d="M203.152 -9.69141L214.544 8.6197L194.471 16.5162" stroke="#59FFC6" stroke-width="3" stroke-miterlimit="10"/>
<path d="M235.345 1.94922L246.336 20.5028L226.102 27.9686" stroke="#59FFC6" stroke-width="3" stroke-miterlimit="10"/>
<path d="M267.465 13.3535L278.461 31.9087L258.227 39.3745" stroke="#59FFC6" stroke-width="3" stroke-miterlimit="10"/>
<path d="M299.262 25.2402L310.653 43.5558L290.584 51.4539" stroke="#59FFC6" stroke-width="3" stroke-miterlimit="10"/>
<path d="M331.64 35.9219L343.031 54.2374L322.962 62.1356" stroke="#59FFC6" stroke-width="3" stroke-miterlimit="10"/>
<path d="M363.832 47.5703L374.827 66.1255L354.589 73.5897" stroke="#59FFC6" stroke-width="3" stroke-miterlimit="10"/>
<path d="M395.952 58.9746L406.948 77.5298L386.714 84.9956" stroke="#59FFC6" stroke-width="3" stroke-miterlimit="10"/>
<path d="M427.749 70.8594L439.139 89.1749L419.071 97.0731" stroke="#59FFC6" stroke-width="3" stroke-miterlimit="10"/>
<path d="M460.127 81.543L471.517 99.8585L451.449 107.757" stroke="#59FFC6" stroke-width="3" stroke-miterlimit="10"/>
<path d="M492.318 93.1895L503.314 111.745L483.08 119.21" stroke="#59FFC6" stroke-width="3" stroke-miterlimit="10"/>
<path d="M524.115 105.074L535.505 123.39L515.433 131.286" stroke="#59FFC6" stroke-width="3" stroke-miterlimit="10"/>
<path d="M556.493 115.76L567.883 134.075L547.811 141.972" stroke="#59FFC6" stroke-width="3" stroke-miterlimit="10"/>
<path d="M862.413 -26.5566L873.409 -8.00146L853.175 -0.535639" stroke="#59FFC6" stroke-width="3" stroke-miterlimit="10"/>
<path d="M894.534 -15.1523L905.529 3.40284L885.296 10.8687" stroke="#59FFC6" stroke-width="3" stroke-miterlimit="10"/>
<path d="M926.33 -3.26562L937.721 15.0499L917.652 22.9481" stroke="#59FFC6" stroke-width="3" stroke-miterlimit="10"/>
<path d="M752.856 -23.6191L763.852 -5.06396L743.618 2.40185" stroke="#59FFC6" stroke-width="3" stroke-miterlimit="10"/>
<path d="M784.651 -11.7285L796.043 6.5826L775.973 14.4852" stroke="#59FFC6" stroke-width="3" stroke-miterlimit="10"/>
<path d="M817.029 -1.04688L828.422 17.2642L808.353 25.1624" stroke="#59FFC6" stroke-width="3" stroke-miterlimit="10"/>
<path d="M849.222 10.5957L860.218 29.1509L839.984 36.6167" stroke="#59FFC6" stroke-width="3" stroke-miterlimit="10"/>
<path d="M881.343 22L892.339 40.5552L872.105 48.021" stroke="#59FFC6" stroke-width="3" stroke-miterlimit="10"/>
<path d="M913.138 33.8906L924.53 52.2017L904.462 60.0999" stroke="#59FFC6" stroke-width="3" stroke-miterlimit="10"/>
<path d="M642.974 -20.1973L654.365 -1.88173L634.296 6.01643" stroke="#59FFC6" stroke-width="3" stroke-miterlimit="10"/>
<path d="M675.352 -9.51367L686.743 8.80185L666.674 16.7" stroke="#59FFC6" stroke-width="3" stroke-miterlimit="10"/>
<path d="M707.543 2.13281L718.541 20.6836L698.305 28.1538" stroke="#59FFC6" stroke-width="3" stroke-miterlimit="10"/>
<path d="M739.664 13.5371L750.662 32.0879L730.428 39.5537" stroke="#59FFC6" stroke-width="3" stroke-miterlimit="10"/>
<path d="M771.461 25.4238L782.851 43.7394L762.783 51.6375" stroke="#59FFC6" stroke-width="3" stroke-miterlimit="10"/>
<path d="M803.839 36.1055L815.229 54.421L795.161 62.3192" stroke="#59FFC6" stroke-width="3" stroke-miterlimit="10"/>
<path d="M836.032 47.748L847.028 66.3032L826.794 73.769" stroke="#59FFC6" stroke-width="3" stroke-miterlimit="10"/>
<path d="M868.152 59.1523L879.148 77.7075L858.914 85.1734" stroke="#59FFC6" stroke-width="3" stroke-miterlimit="10"/>
<path d="M899.947 71.043L911.34 89.3541L891.27 97.2567" stroke="#59FFC6" stroke-width="3" stroke-miterlimit="10"/>
<path d="M629.783 16.957L641.174 35.2726L621.105 43.1707" stroke="#59FFC6" stroke-width="3" stroke-miterlimit="10"/>
<path d="M662.161 27.6387L673.552 45.9542L653.484 53.8524" stroke="#59FFC6" stroke-width="3" stroke-miterlimit="10"/>
<path d="M694.353 39.2852L705.349 57.8403L685.115 65.3061" stroke="#59FFC6" stroke-width="3" stroke-miterlimit="10"/>
<path d="M726.473 50.6914L737.469 69.2466L717.235 76.7124" stroke="#59FFC6" stroke-width="3" stroke-miterlimit="10"/>
<path d="M758.27 62.5762L769.66 80.8917L749.592 88.7899" stroke="#59FFC6" stroke-width="3" stroke-miterlimit="10"/>
<path d="M790.648 73.2578L802.039 91.5733L781.97 99.4715" stroke="#59FFC6" stroke-width="3" stroke-miterlimit="10"/>
<path d="M822.839 84.9062L833.837 103.457L813.603 110.923" stroke="#59FFC6" stroke-width="3" stroke-miterlimit="10"/>
<path d="M854.96 96.3105L865.957 114.861L845.723 122.327" stroke="#59FFC6" stroke-width="3" stroke-miterlimit="10"/>
<path d="M886.756 108.195L898.147 126.511L878.079 134.409" stroke="#59FFC6" stroke-width="3" stroke-miterlimit="10"/>
<path d="M919.135 118.881L930.525 137.196L910.457 145.095" stroke="#59FFC6" stroke-width="3" stroke-miterlimit="10"/>
<path d="M616.591 54.1172L627.984 72.4283L607.915 80.3264" stroke="#59FFC6" stroke-width="3" stroke-miterlimit="10"/>
<path d="M648.969 64.8008L660.362 83.1119L640.293 91.0101" stroke="#59FFC6" stroke-width="3" stroke-miterlimit="10"/>
<path d="M681.162 76.4414L692.158 94.9966L671.92 102.461" stroke="#59FFC6" stroke-width="3" stroke-miterlimit="10"/>
<path d="M713.283 87.8477L724.279 106.403L704.045 113.869" stroke="#59FFC6" stroke-width="3" stroke-miterlimit="10"/>
<path d="M745.079 99.7324L756.47 118.048L736.402 125.946" stroke="#59FFC6" stroke-width="3" stroke-miterlimit="10"/>
<path d="M777.458 110.418L788.848 128.733L768.78 136.632" stroke="#59FFC6" stroke-width="3" stroke-miterlimit="10"/>
<path d="M809.649 122.062L820.645 140.618L800.411 148.083" stroke="#59FFC6" stroke-width="3" stroke-miterlimit="10"/>
<path d="M841.769 133.467L852.765 152.022L832.531 159.488" stroke="#59FFC6" stroke-width="3" stroke-miterlimit="10"/>
<path d="M873.566 145.354L884.957 163.669L864.888 171.567" stroke="#59FFC6" stroke-width="3" stroke-miterlimit="10"/>
<path d="M905.944 156.037L917.335 174.353L897.266 182.251" stroke="#59FFC6" stroke-width="3" stroke-miterlimit="10"/>
<path d="M603.401 91.2676L614.793 109.579L594.72 117.475" stroke="#59FFC6" stroke-width="3" stroke-miterlimit="10"/>
<path d="M635.779 101.951L647.171 120.262L627.098 128.159" stroke="#59FFC6" stroke-width="3" stroke-miterlimit="10"/>
<path d="M667.967 113.592L678.963 132.147L658.729 139.613" stroke="#59FFC6" stroke-width="3" stroke-miterlimit="10"/>
<path d="M700.092 124.998L711.088 143.553L690.854 151.019" stroke="#59FFC6" stroke-width="3" stroke-miterlimit="10"/>
<path d="M731.887 136.889L743.279 155.2L723.211 163.098" stroke="#59FFC6" stroke-width="3" stroke-miterlimit="10"/>
<path d="M764.267 147.564L775.658 165.88L755.589 173.778" stroke="#59FFC6" stroke-width="3" stroke-miterlimit="10"/>
<path d="M796.458 159.213L807.454 177.768L787.216 185.232" stroke="#59FFC6" stroke-width="3" stroke-miterlimit="10"/>
<path d="M828.579 170.617L839.575 189.172L819.341 196.638" stroke="#59FFC6" stroke-width="3" stroke-miterlimit="10"/>
<path d="M860.376 182.504L871.766 200.819L851.698 208.718" stroke="#59FFC6" stroke-width="3" stroke-miterlimit="10"/>
<path d="M892.754 193.188L904.144 211.503L884.076 219.401" stroke="#59FFC6" stroke-width="3" stroke-miterlimit="10"/>
<path d="M924.945 204.832L935.941 223.387L915.707 230.853" stroke="#59FFC6" stroke-width="3" stroke-miterlimit="10"/>
<path d="M590.206 128.42L601.601 146.737L581.528 154.634" stroke="#59FFC6" stroke-width="3" stroke-miterlimit="10"/>
<path d="M622.584 139.104L633.98 157.416L613.906 165.317" stroke="#59FFC6" stroke-width="3" stroke-miterlimit="10"/>
<path d="M654.777 150.744L665.773 169.299L645.539 176.765" stroke="#59FFC6" stroke-width="3" stroke-miterlimit="10"/>
<path d="M686.902 162.152L697.898 180.708L677.664 188.173" stroke="#59FFC6" stroke-width="3" stroke-miterlimit="10"/>
<path d="M718.697 174.041L730.089 192.352L710.016 200.249" stroke="#59FFC6" stroke-width="3" stroke-miterlimit="10"/>
<path d="M751.075 184.727L762.467 203.038L742.394 210.934" stroke="#59FFC6" stroke-width="3" stroke-miterlimit="10"/>
<path d="M783.268 196.367L794.259 214.921L774.026 222.387" stroke="#59FFC6" stroke-width="3" stroke-miterlimit="10"/>
<path d="M815.389 207.771L826.384 226.327L806.15 233.792" stroke="#59FFC6" stroke-width="3" stroke-miterlimit="10"/>
<path d="M847.185 219.658L858.576 237.974L838.507 245.872" stroke="#59FFC6" stroke-width="3" stroke-miterlimit="10"/>
<path d="M879.563 230.34L890.954 248.655L870.886 256.554" stroke="#59FFC6" stroke-width="3" stroke-miterlimit="10"/>
<path d="M911.755 241.988L922.75 260.543L902.512 268.008" stroke="#59FFC6" stroke-width="3" stroke-miterlimit="10"/>
</svg>
