<!-- <svg width="292" height="231" viewBox="0 0 292 231" fill="none" xmlns="http://www.w3.org/2000/svg">
<path d="M90.0662 21.2515L90.0661 21.2519L86.2244 32.7895L86.2228 32.7942C85.1788 35.8956 82.2851 37.9736 79.0264 37.9736H42.5528C19.9161 37.9736 1.5 56.3903 1.5 79.0264V188.447C1.5 211.083 19.9161 229.5 42.5528 229.5H249.237C271.873 229.5 290.289 211.083 290.289 188.447V79.0264C290.289 56.3903 271.873 37.9736 249.236 37.9736H212.763C209.505 37.9736 206.609 35.8968 205.577 32.79L90.0662 21.2515ZM90.0662 21.2515C93.9956 9.4395 105.008 1.5 117.469 1.5H174.319C186.78 1.5 197.793 9.43909 201.735 21.2643L205.576 32.788L90.0662 21.2515ZM281.131 188.447V186.947H281.131V79.0258C281.131 61.444 266.818 47.1313 249.236 47.1313H212.763C205.555 47.1313 199.173 42.535 196.885 35.694C196.885 35.6939 196.885 35.6937 196.885 35.6936L193.044 24.1578L193.043 24.1567C190.347 16.08 182.82 10.6577 174.32 10.6577H117.47C108.971 10.6577 101.442 16.0799 98.7578 24.146L94.9043 35.6942C92.6166 42.5359 86.2346 47.1319 79.0264 47.1319H42.5528C24.971 47.1319 10.6583 61.4446 10.6583 79.0264V188.447C10.6583 206.029 24.971 220.342 42.5528 220.342H249.237C266.819 220.342 281.131 206.029 281.131 188.447Z" fill="#A79BFD" stroke="black" stroke-width="3"/>
</svg> -->


<svg width="328" height="260" viewBox="0 0 328 260" fill="none" xmlns="http://www.w3.org/2000/svg">
<path d="M100.9 23.8C105.3 10.5 117.8 1.5 131.8 1.5H195.6C209.7 1.5 222.1 10.5 226.5 23.8L230.8 36.7C231.9 40.1 235.1 42.4 238.7 42.4H279.6C305.1 42.4 325.8 63.1 325.8 88.6V211.3C325.8 236.8 305.1 257.5 279.6 257.5H47.7C22.2 257.5 1.5 236.8 1.5 211.3V88.6C1.5 63.1 22.2 42.4 47.7 42.4H88.6C92.2 42.4 95.4 40.1 96.5 36.7L100.9 23.8ZM216.4 27.2C213.4 18.2 205 12.2 195.6 12.2H131.8C122.3 12.2 114 18.2 111 27.2L106.7 40.2C104.1 47.9 96.9 53.2 88.7 53.2H47.7C28.1 53.2 12.1 69.2 12.1 88.8V211.5C12.1 231.1 28.1 247.1 47.7 247.1H279.5C299.1 247.1 315.1 231.1 315.1 211.5V88.8C315.1 69.2 299.1 53.2 279.5 53.2H238.6C230.4 53.2 223.2 48 220.6 40.2L216.4 27.2Z" fill="#A79BFD" stroke="black" stroke-width="3"/>
<path d="M85.1001 146.5C85.1001 103 120.5 67.5996 164 67.5996C207.5 67.5996 242.9 103 242.9 146.5C242.9 190 207.5 225.4 164 225.4C120.5 225.4 85.1001 190 85.1001 146.5ZM96.2001 146.5C96.2001 183.9 126.6 214.3 164 214.3C201.4 214.3 231.8 183.9 231.8 146.5C231.8 109.1 201.4 78.6996 164 78.6996C126.6 78.6996 96.2001 109.1 96.2001 146.5Z" fill="white" stroke="black" stroke-width="2.2"/>
<path d="M218.7 147.7C218.7 175.9 195.7 198.9 167.5 198.9C164.4 198.9 162 196.4 162 193.4C162 190.4 164.5 187.9 167.5 187.9C189.6 187.9 207.7 169.9 207.7 147.7C207.7 144.6 210.2 142.2 213.2 142.2C216.3 142.1 218.7 144.6 218.7 147.7Z" fill="white" stroke="black" stroke-width="2"/>
<path d="M282.3 82.5996H269.3C265.391 82.5996 262.3 79.5087 262.3 75.5996C262.3 71.6905 265.391 68.5996 269.3 68.5996H282.3C286.209 68.5996 289.3 71.6905 289.3 75.5996C289.3 79.5087 286.209 82.5996 282.3 82.5996Z" fill="white"/>
</svg>
