<svg width="300" height="260" viewBox="0 0 328 260" fill="none" xmlns="http://www.w3.org/2000/svg">
<path d="M100.9 23.8C105.3 10.5 117.8 1.5 131.8 1.5H195.6C209.7 1.5 222.1 10.5 226.5 23.8L230.8 36.7C231.9 40.1 235.1 42.4 238.7 42.4H279.6C305.1 42.4 325.8 63.1 325.8 88.6V211.3C325.8 236.8 305.1 257.5 279.6 257.5H47.7C22.2 257.5 1.5 236.8 1.5 211.3V88.6C1.5 63.1 22.2 42.4 47.7 42.4H88.6C92.2 42.4 95.4 40.1 96.5 36.7L100.9 23.8ZM216.4 27.2C213.4 18.2 205 12.2 195.6 12.2H131.8C122.3 12.2 114 18.2 111 27.2L106.7 40.2C104.1 47.9 96.9 53.2 88.7 53.2H47.7C28.1 53.2 12.1 69.2 12.1 88.8V211.5C12.1 231.1 28.1 247.1 47.7 247.1H279.5C299.1 247.1 315.1 231.1 315.1 211.5V88.8C315.1 69.2 299.1 53.2 279.5 53.2H238.6C230.4 53.2 223.2 48 220.6 40.2L216.4 27.2Z" fill="#A79BFD" stroke-width="3"/>
<path d="M85.1001 146.5C85.1001 103 120.5 67.5996 164 67.5996C207.5 67.5996 242.9 103 242.9 146.5C242.9 190 207.5 225.4 164 225.4C120.5 225.4 85.1001 190 85.1001 146.5ZM96.2001 146.5C96.2001 183.9 126.6 214.3 164 214.3C201.4 214.3 231.8 183.9 231.8 146.5C231.8 109.1 201.4 78.6996 164 78.6996C126.6 78.6996 96.2001 109.1 96.2001 146.5Z" fill="white" stroke-width="2.2"/>
<path d="M218.7 147.7C218.7 175.9 195.7 198.9 167.5 198.9C164.4 198.9 162 196.4 162 193.4C162 190.4 164.5 187.9 167.5 187.9C189.6 187.9 207.7 169.9 207.7 147.7C207.7 144.6 210.2 142.2 213.2 142.2C216.3 142.1 218.7 144.6 218.7 147.7Z" fill="white" stroke-width="2"/>
<path d="M282.3 82.5996H269.3C265.391 82.5996 262.3 79.5087 262.3 75.5996C262.3 71.6905 265.391 68.5996 269.3 68.5996H282.3C286.209 68.5996 289.3 71.6905 289.3 75.5996C289.3 79.5087 286.209 82.5996 282.3 82.5996Z" fill="white"/>
</svg>

