<svg width="70" height="47" viewBox="0 0 70 47" fill="none" xmlns="http://www.w3.org/2000/svg">
<path d="M65.625 46.6667H16.0417C15.5546 46.6667 15.0996 46.4217 14.8283 46.0162L0.245 24.1412C-0.0816667 23.6512 -0.0816667 23.0125 0.245 22.5225L14.8283 0.6475C15.0996 0.245 15.5546 0 16.0417 0H65.625C68.0371 0 70 1.96292 70 4.375V42.2917C70 44.7037 68.0371 46.6667 65.625 46.6667ZM16.8233 43.75H65.625C66.43 43.75 67.0833 43.0937 67.0833 42.2917V4.375C67.0833 3.57292 66.43 2.91667 65.625 2.91667H16.8233L3.21125 23.3333L16.8233 43.75Z" fill="#FF4D5B"/>
<path d="M65.625 46.6667H16.0417C15.5546 46.6667 15.0996 46.4217 14.8283 46.0162L0.245 24.1412C-0.0816667 23.6512 -0.0816667 23.0125 0.245 22.5225L14.8283 0.6475C15.0996 0.245 15.5546 0 16.0417 0H65.625C68.0371 0 70 1.96292 70 4.375V42.2917C70 44.7037 68.0371 46.6667 65.625 46.6667ZM16.8233 43.75H65.625C66.43 43.75 67.0833 43.0937 67.0833 42.2917V4.375C67.0833 3.57292 66.43 2.91667 65.625 2.91667H16.8233L3.21125 23.3333L16.8233 43.75Z" stroke="#FF4D5B"/>
<path d="M54.5735 35.1017C54.2002 35.1017 53.8269 34.9588 53.541 34.6759L32.9173 14.0551C32.3485 13.4863 32.3485 12.5617 32.9173 11.993C33.486 11.4242 34.4106 11.4242 34.9794 11.993L55.6031 32.6138C56.1719 33.1826 56.1719 34.1071 55.6031 34.6759C55.3202 34.9588 54.9469 35.1017 54.5735 35.1017Z" fill="#FF4D5B"/>
<path d="M55.5675 13.0207C55.5675 13.394 55.4246 13.7674 55.1417 14.0532L34.5209 34.677C33.9521 35.2457 33.0275 35.2457 32.4588 34.677C31.89 34.1082 31.89 33.1836 32.4588 32.6149L53.0796 11.9911C53.6484 11.4224 54.573 11.4224 55.1417 11.9911C55.4246 12.274 55.5675 12.6474 55.5675 13.0207Z" fill="#FF4D5B"/>
</svg>


