<svg width="1024" height="480" viewBox="0 0 1024 480" fill="none" xmlns="http://www.w3.org/2000/svg">
<path d="M1036.07 0.482422L1016.71 9.98236L1029.54 27.3124" stroke="white" stroke-width="3" stroke-miterlimit="10"/>
<path d="M1002.95 -7.57031L983.585 1.92962L996.423 19.2597" stroke="white" stroke-width="3" stroke-miterlimit="10"/>
<path d="M969.835 -15.041L950.274 -5.96236L962.736 11.6433" stroke="white" stroke-width="3" stroke-miterlimit="10"/>
<path d="M936.895 -23.8398L917.333 -14.7612L929.796 2.83993" stroke="white" stroke-width="3" stroke-miterlimit="10"/>
<path d="M1026.75 38.7969L1007.39 48.2922L1020.23 65.6223" stroke="white" stroke-width="3" stroke-miterlimit="10"/>
<path d="M993.63 30.7441L974.267 40.2395L987.105 57.5696" stroke="white" stroke-width="3" stroke-miterlimit="10"/>
<path d="M960.518 23.2676L940.955 32.3508L953.418 49.9519" stroke="white" stroke-width="3" stroke-miterlimit="10"/>
<path d="M927.577 14.4707L908.014 23.5539L920.477 41.1551" stroke="white" stroke-width="3" stroke-miterlimit="10"/>
<path d="M894.267 6.57422L874.903 16.0742L887.741 33.4042" stroke="white" stroke-width="3" stroke-miterlimit="10"/>
<path d="M861.147 -1.48047L841.783 8.01947L854.621 25.3495" stroke="white" stroke-width="3" stroke-miterlimit="10"/>
<path d="M828.033 -8.94922L808.472 0.129438L820.934 17.7306" stroke="white" stroke-width="3" stroke-miterlimit="10"/>
<path d="M795.094 -17.75L775.532 -8.67134L787.995 8.92977" stroke="white" stroke-width="3" stroke-miterlimit="10"/>
<path d="M761.783 -25.6426L742.419 -16.1426L755.257 1.18744" stroke="white" stroke-width="3" stroke-miterlimit="10"/>
<path d="M1017.43 77.1035L998.07 86.6035L1010.91 103.934" stroke="white" stroke-width="3" stroke-miterlimit="10"/>
<path d="M984.313 69.0508L964.949 78.5507L977.787 95.8808" stroke="white" stroke-width="3" stroke-miterlimit="10"/>
<path d="M951.201 61.5742L931.638 70.6574L944.101 88.2586" stroke="white" stroke-width="3" stroke-miterlimit="10"/>
<path d="M918.26 52.7773L898.697 61.8606L911.16 79.4617" stroke="white" stroke-width="3" stroke-miterlimit="10"/>
<path d="M884.949 44.8848L865.587 54.3801L878.425 71.7102" stroke="white" stroke-width="3" stroke-miterlimit="10"/>
<path d="M851.83 36.8301L832.467 46.3254L845.305 63.6555" stroke="white" stroke-width="3" stroke-miterlimit="10"/>
<path d="M818.717 29.3574L799.154 38.4407L811.617 56.0418" stroke="white" stroke-width="3" stroke-miterlimit="10"/>
<path d="M785.777 20.5566L766.215 29.6353L778.677 47.241" stroke="white" stroke-width="3" stroke-miterlimit="10"/>
<path d="M752.466 12.6641L733.102 22.164L745.94 39.4941" stroke="white" stroke-width="3" stroke-miterlimit="10"/>
<path d="M719.352 5.19336L699.791 14.272L712.252 31.8777" stroke="white" stroke-width="3" stroke-miterlimit="10"/>
<path d="M686.412 -3.60547L666.851 5.4732L679.314 23.0743" stroke="white" stroke-width="3" stroke-miterlimit="10"/>
<path d="M1041.43 123.303L1021.87 132.386L1034.33 149.987" stroke="white" stroke-width="3" stroke-miterlimit="10"/>
<path d="M1008.12 115.412L988.753 124.912L1001.6 142.243" stroke="white" stroke-width="3" stroke-miterlimit="10"/>
<path d="M974.997 107.359L955.633 116.859L968.471 134.189" stroke="white" stroke-width="3" stroke-miterlimit="10"/>
<path d="M941.884 99.8848L922.322 108.968L934.784 126.569" stroke="white" stroke-width="3" stroke-miterlimit="10"/>
<path d="M908.944 91.0859L889.381 100.169L901.844 117.77" stroke="white" stroke-width="3" stroke-miterlimit="10"/>
<path d="M875.633 83.1934L856.27 92.6933L869.108 110.023" stroke="white" stroke-width="3" stroke-miterlimit="10"/>
<path d="M842.513 75.1387L823.15 84.6386L835.988 101.969" stroke="white" stroke-width="3" stroke-miterlimit="10"/>
<path d="M809.4 67.666L789.838 76.7492L802.301 94.3504" stroke="white" stroke-width="3" stroke-miterlimit="10"/>
<path d="M776.46 58.8672L756.898 67.9504L769.361 85.5516" stroke="white" stroke-width="3" stroke-miterlimit="10"/>
<path d="M743.149 50.9766L723.786 60.4719L736.625 77.802" stroke="white" stroke-width="3" stroke-miterlimit="10"/>
<path d="M710.036 43.502L690.474 52.5852L702.936 70.1863" stroke="white" stroke-width="3" stroke-miterlimit="10"/>
<path d="M677.096 34.7031L657.534 43.7864L669.996 61.3875" stroke="white" stroke-width="3" stroke-miterlimit="10"/>
<path d="M1032.11 161.617L1012.55 170.696L1025.01 188.298" stroke="white" stroke-width="3" stroke-miterlimit="10"/>
<path d="M998.799 153.721L979.44 163.222L992.278 180.552" stroke="white" stroke-width="3" stroke-miterlimit="10"/>
<path d="M965.679 145.666L946.316 155.166L959.154 172.496" stroke="white" stroke-width="3" stroke-miterlimit="10"/>
<path d="M932.567 138.191L913.004 147.275L925.467 164.876" stroke="white" stroke-width="3" stroke-miterlimit="10"/>
<path d="M899.627 129.393L880.064 138.476L892.527 156.077" stroke="white" stroke-width="3" stroke-miterlimit="10"/>
<path d="M866.315 121.502L846.951 131.002L859.794 148.333" stroke="white" stroke-width="3" stroke-miterlimit="10"/>
<path d="M833.195 113.447L813.832 122.947L826.67 140.277" stroke="white" stroke-width="3" stroke-miterlimit="10"/>
<path d="M800.083 105.975L780.52 115.058L792.983 132.659" stroke="white" stroke-width="3" stroke-miterlimit="10"/>
<path d="M767.143 97.1738L747.58 106.257L760.043 123.858" stroke="white" stroke-width="3" stroke-miterlimit="10"/>
<path d="M733.831 89.2852L714.468 98.7851L727.306 116.115" stroke="white" stroke-width="3" stroke-miterlimit="10"/>
<path d="M700.719 81.8086L681.157 90.8919L693.624 108.494" stroke="white" stroke-width="3" stroke-miterlimit="10"/>
<path d="M667.779 73.0117L648.216 82.0949L660.684 99.6971" stroke="white" stroke-width="3" stroke-miterlimit="10"/>
<path d="M651.267 -11.4785L631.705 -2.39987L644.168 15.2012" stroke="white" stroke-width="3" stroke-miterlimit="10"/>
<path d="M618.327 -20.2773L598.766 -11.1987L611.228 6.40244" stroke="white" stroke-width="3" stroke-miterlimit="10"/>
<path d="M585.017 -28.1738L565.653 -18.6739L578.496 -1.34274" stroke="white" stroke-width="3" stroke-miterlimit="10"/>
<path d="M641.951 26.8281L622.39 35.9068L634.857 53.509" stroke="white" stroke-width="3" stroke-miterlimit="10"/>
<path d="M609.012 18.0293L589.45 27.1079L601.918 44.7101" stroke="white" stroke-width="3" stroke-miterlimit="10"/>
<path d="M575.705 10.1348L556.341 19.6347L569.179 36.9648" stroke="white" stroke-width="3" stroke-miterlimit="10"/>
<path d="M542.581 2.07812L523.218 11.5781L536.056 28.9081" stroke="white" stroke-width="3" stroke-miterlimit="10"/>
<path d="M509.468 -5.39062L489.906 3.68805L502.369 21.2892" stroke="white" stroke-width="3" stroke-miterlimit="10"/>
<path d="M476.529 -14.1953L456.967 -5.11208L469.429 12.489" stroke="white" stroke-width="3" stroke-miterlimit="10"/>
<path d="M443.218 -22.0859L423.854 -12.586L436.697 4.74513" stroke="white" stroke-width="3" stroke-miterlimit="10"/>
<path d="M632.638 65.1367L613.071 74.2189L625.539 91.8211" stroke="white" stroke-width="3" stroke-miterlimit="10"/>
<path d="M599.698 56.3379L580.132 65.4155L592.599 83.0223" stroke="white" stroke-width="3" stroke-miterlimit="10"/>
<path d="M566.388 48.4414L547.025 57.9413L559.863 75.2714" stroke="white" stroke-width="3" stroke-miterlimit="10"/>
<path d="M533.263 40.3867L513.899 49.8867L526.738 67.2167" stroke="white" stroke-width="3" stroke-miterlimit="10"/>
<path d="M500.151 32.916L480.589 41.9947L493.056 59.5968" stroke="white" stroke-width="3" stroke-miterlimit="10"/>
<path d="M467.209 24.1191L447.648 33.1978L460.115 50.8" stroke="white" stroke-width="3" stroke-miterlimit="10"/>
<path d="M433.899 16.2227L414.54 25.7236L427.378 43.0537" stroke="white" stroke-width="3" stroke-miterlimit="10"/>
<path d="M400.78 8.16797L381.416 17.6679L394.254 34.998" stroke="white" stroke-width="3" stroke-miterlimit="10"/>
<path d="M367.667 0.693359L348.105 9.77662L360.567 27.3777" stroke="white" stroke-width="3" stroke-miterlimit="10"/>
<path d="M334.727 -8.10547L315.164 0.97776L327.627 18.5789" stroke="white" stroke-width="3" stroke-miterlimit="10"/>
<path d="M301.416 -15.9961L282.052 -6.49616L294.895 10.835" stroke="white" stroke-width="3" stroke-miterlimit="10"/>
<path d="M268.296 -24.0508L248.932 -14.5508L261.77 2.77923" stroke="white" stroke-width="3" stroke-miterlimit="10"/>
</svg>

