<svg width="300" height="503" viewBox="0 0 300 503" fill="none" xmlns="http://www.w3.org/2000/svg">
<rect x="1.5" y="1.5" width="297" height="499.612" rx="51.5" fill="#151515" stroke="white" stroke-width="3"/>
<rect x="33.1406" y="87.0469" width="234.891" height="309.891" fill="black" stroke="white" stroke-width="3"/>
<circle cx="150.586" cy="445.898" r="27.2109" fill="black" stroke="white" stroke-width="3"/>
<path d="M98.5687 241.234C96.6108 239.25 93.4086 239.25 91.4507 241.234L85.1813 247.588C83.2599 249.535 83.2599 252.664 85.1813 254.611L120.887 290.796C122.845 292.78 126.047 292.78 128.005 290.796L215.937 201.685C217.858 199.738 217.858 196.608 215.937 194.661L209.667 188.308C207.71 186.324 204.507 186.324 202.549 188.308L128.005 263.852C126.047 265.836 122.845 265.836 120.887 263.852L98.5687 241.234Z" fill="#59FFC6"/>
<rect x="110.7" y="46.8965" width="79.7164" height="10.3134" rx="5.15672" fill="black" stroke="white" stroke-width="2"/>
</svg>

