<svg width="821" height="524" viewBox="0 0 821 524" fill="none" xmlns="http://www.w3.org/2000/svg">
<path d="M-17.5575 -0.806641L1.92417 8.44238L-10.6918 25.9341" stroke="white" stroke-width="3" stroke-miterlimit="10"/>
<path d="M15.4585 -9.31641L34.9402 -0.0674039L22.3242 17.4243" stroke="white" stroke-width="3" stroke-miterlimit="10"/>
<path d="M48.8362 -16.9219L68.1163 -7.25333L55.1274 9.96407" stroke="white" stroke-width="3" stroke-miterlimit="10"/>
<path d="M82.0132 -24.1055L101.496 -14.8519L88.8799 2.63984" stroke="white" stroke-width="3" stroke-miterlimit="10"/>
<path d="M-8.57422 37.584L10.9074 46.833L-1.70852 64.3247" stroke="white" stroke-width="3" stroke-miterlimit="10"/>
<path d="M24.4407 29.0723L43.9223 38.3213L31.3063 55.813" stroke="white" stroke-width="3" stroke-miterlimit="10"/>
<path d="M57.8193 21.4688L77.0995 31.1373L64.1106 48.3547" stroke="white" stroke-width="3" stroke-miterlimit="10"/>
<path d="M90.9971 14.2891L110.479 23.5381L97.8628 41.0298" stroke="white" stroke-width="3" stroke-miterlimit="10"/>
<path d="M124.012 5.77734L143.494 15.0264L130.878 32.518" stroke="white" stroke-width="3" stroke-miterlimit="10"/>
<path d="M0.407959 75.9727L19.8906 85.2263L7.27463 102.718" stroke="white" stroke-width="3" stroke-miterlimit="10"/>
<path d="M33.4226 67.4609L52.9042 76.7099L40.2893 94.2062" stroke="white" stroke-width="3" stroke-miterlimit="10"/>
<path d="M66.8015 59.8574L86.0816 69.526L73.0927 86.7434" stroke="white" stroke-width="3" stroke-miterlimit="10"/>
<path d="M99.979 52.6777L119.461 61.9268L106.846 79.423" stroke="white" stroke-width="3" stroke-miterlimit="10"/>
<path d="M132.994 44.166L152.476 53.415L139.86 70.9067" stroke="white" stroke-width="3" stroke-miterlimit="10"/>
<path d="M-23.7877 121.543L-4.50757 131.212L-17.4965 148.429" stroke="white" stroke-width="3" stroke-miterlimit="10"/>
<path d="M9.3894 114.359L28.8721 123.613L16.2561 141.105" stroke="white" stroke-width="3" stroke-miterlimit="10"/>
<path d="M42.4048 105.848L61.8875 115.101L49.2715 132.593" stroke="white" stroke-width="3" stroke-miterlimit="10"/>
<path d="M75.7837 98.248L95.0628 107.912L82.0739 125.129" stroke="white" stroke-width="3" stroke-miterlimit="10"/>
<path d="M108.961 91.0645L128.443 100.318L115.827 117.81" stroke="white" stroke-width="3" stroke-miterlimit="10"/>
<path d="M141.976 82.5527L161.459 91.8063L148.843 109.298" stroke="white" stroke-width="3" stroke-miterlimit="10"/>
<path d="M-14.8043 159.934L4.4758 169.602L-8.51309 186.82" stroke="white" stroke-width="3" stroke-miterlimit="10"/>
<path d="M18.3721 152.748L37.8547 162.002L25.2388 179.493" stroke="white" stroke-width="3" stroke-miterlimit="10"/>
<path d="M51.3875 144.238L70.8701 153.492L58.2542 170.984" stroke="white" stroke-width="3" stroke-miterlimit="10"/>
<path d="M84.7668 136.639L104.047 146.307L91.0581 163.525" stroke="white" stroke-width="3" stroke-miterlimit="10"/>
<path d="M117.943 129.453L137.426 138.707L124.805 156.199" stroke="white" stroke-width="3" stroke-miterlimit="10"/>
<path d="M150.959 120.941L170.442 130.195L157.821 147.688" stroke="white" stroke-width="3" stroke-miterlimit="10"/>
<path d="M159.223 -1.79883L178.706 7.45477L166.09 24.9465" stroke="white" stroke-width="3" stroke-miterlimit="10"/>
<path d="M192.238 -10.3105L211.721 -1.05695L199.105 16.4347" stroke="white" stroke-width="3" stroke-miterlimit="10"/>
<path d="M225.617 -17.9121L244.897 -8.24357L231.908 8.97383" stroke="white" stroke-width="3" stroke-miterlimit="10"/>
<path d="M258.806 -25.6758L278.087 -16.0072L265.098 1.21016" stroke="white" stroke-width="3" stroke-miterlimit="10"/>
<path d="M168.208 36.5957L187.689 45.8447L175.073 63.3364" stroke="white" stroke-width="3" stroke-miterlimit="10"/>
<path d="M201.223 28.084L220.705 37.333L208.089 54.8247" stroke="white" stroke-width="3" stroke-miterlimit="10"/>
<path d="M234.601 20.4785L253.881 30.1471L240.887 47.3655" stroke="white" stroke-width="3" stroke-miterlimit="10"/>
<path d="M267.79 12.7148L287.07 22.3834L274.081 39.6008" stroke="white" stroke-width="3" stroke-miterlimit="10"/>
<path d="M300.966 5.5293L320.448 14.7829L307.833 32.2746" stroke="white" stroke-width="3" stroke-miterlimit="10"/>
<path d="M333.983 -2.98047L353.465 6.27313L340.849 23.7648" stroke="white" stroke-width="3" stroke-miterlimit="10"/>
<path d="M367.361 -10.582L386.641 -0.913479L373.652 16.3039" stroke="white" stroke-width="3" stroke-miterlimit="10"/>
<path d="M400.55 -18.3457L419.83 -8.67715L406.841 8.54024" stroke="white" stroke-width="3" stroke-miterlimit="10"/>
<path d="M433.727 -25.5312L453.209 -16.2777L440.593 1.21405" stroke="white" stroke-width="3" stroke-miterlimit="10"/>
<path d="M177.188 74.9824L196.67 84.2314L184.05 101.724" stroke="white" stroke-width="3" stroke-miterlimit="10"/>
<path d="M210.204 66.4707L229.686 75.7197L217.065 93.2124" stroke="white" stroke-width="3" stroke-miterlimit="10"/>
<path d="M243.578 58.8672L262.858 68.5357L249.869 85.7532" stroke="white" stroke-width="3" stroke-miterlimit="10"/>
<path d="M276.771 51.1016L296.051 60.7701L283.062 77.9875" stroke="white" stroke-width="3" stroke-miterlimit="10"/>
<path d="M309.948 43.9219L329.43 53.1709L316.814 70.6626" stroke="white" stroke-width="3" stroke-miterlimit="10"/>
<path d="M342.962 35.4043L362.445 44.6579L349.829 62.1496" stroke="white" stroke-width="3" stroke-miterlimit="10"/>
<path d="M376.342 27.8047L395.622 37.4732L382.628 54.6916" stroke="white" stroke-width="3" stroke-miterlimit="10"/>
<path d="M409.531 20.041L428.811 29.7096L415.822 46.927" stroke="white" stroke-width="3" stroke-miterlimit="10"/>
<path d="M442.708 12.8555L462.19 22.1091L449.574 39.6008" stroke="white" stroke-width="3" stroke-miterlimit="10"/>
<path d="M475.724 4.3457L495.206 13.5993L482.59 31.091" stroke="white" stroke-width="3" stroke-miterlimit="10"/>
<path d="M509.102 -3.25586L528.382 6.4127L515.393 23.6301" stroke="white" stroke-width="3" stroke-miterlimit="10"/>
<path d="M542.291 -11.0215L561.571 -1.35294L548.582 15.8645" stroke="white" stroke-width="3" stroke-miterlimit="10"/>
<path d="M575.468 -18.2051L594.95 -8.95148L582.334 8.5402" stroke="white" stroke-width="3" stroke-miterlimit="10"/>
<path d="M608.482 -26.7168L627.965 -17.4632L615.349 0.0285077" stroke="white" stroke-width="3" stroke-miterlimit="10"/>
<path d="M186.167 113.371L205.654 122.624L193.033 140.116" stroke="white" stroke-width="3" stroke-miterlimit="10"/>
<path d="M219.182 104.859L238.669 114.107L226.049 131.605" stroke="white" stroke-width="3" stroke-miterlimit="10"/>
<path d="M252.56 97.2539L271.84 106.922L258.851 124.14" stroke="white" stroke-width="3" stroke-miterlimit="10"/>
<path d="M285.754 89.4902L305.035 99.1588L292.046 116.376" stroke="white" stroke-width="3" stroke-miterlimit="10"/>
<path d="M318.931 82.3086L338.412 91.5576L325.792 109.05" stroke="white" stroke-width="3" stroke-miterlimit="10"/>
<path d="M351.948 73.7988L371.429 83.0478L358.809 100.541" stroke="white" stroke-width="3" stroke-miterlimit="10"/>
<path d="M385.325 66.1934L404.601 75.8629L391.612 93.0803" stroke="white" stroke-width="3" stroke-miterlimit="10"/>
<path d="M418.514 58.4277L437.794 68.0963L424.805 85.3137" stroke="white" stroke-width="3" stroke-miterlimit="10"/>
<path d="M451.69 51.2441L471.173 60.4978L458.557 77.9894" stroke="white" stroke-width="3" stroke-miterlimit="10"/>
<path d="M484.706 42.7324L504.188 51.986L491.573 69.4777" stroke="white" stroke-width="3" stroke-miterlimit="10"/>
<path d="M518.085 35.1328L537.365 44.8014L524.372 62.0198" stroke="white" stroke-width="3" stroke-miterlimit="10"/>
<path d="M551.274 27.3672L570.554 37.0357L557.565 54.2531" stroke="white" stroke-width="3" stroke-miterlimit="10"/>
<path d="M584.45 20.1816L603.933 29.4352L591.317 46.9269" stroke="white" stroke-width="3" stroke-miterlimit="10"/>
<path d="M617.466 11.6719L636.949 20.9255L624.333 38.4172" stroke="white" stroke-width="3" stroke-miterlimit="10"/>
<path d="M650.845 4.07227L670.125 13.7408L657.136 30.9582" stroke="white" stroke-width="3" stroke-miterlimit="10"/>
<path d="M684.021 -3.11328L703.504 6.14034L690.883 23.633" stroke="white" stroke-width="3" stroke-miterlimit="10"/>
<path d="M717.037 -11.625L736.52 -2.3714L723.899 15.1213" stroke="white" stroke-width="3" stroke-miterlimit="10"/>
</svg>
