<svg width="856" height="368" viewBox="0 0 856 368" fill="none" xmlns="http://www.w3.org/2000/svg">
<path d="M1.60175 108.012L12.9923 126.327L-7.08053 134.224" stroke="white" stroke-width="3" stroke-miterlimit="10"/>
<path d="M33.98 118.693L45.3705 137.009L25.2977 144.905" stroke="white" stroke-width="3" stroke-miterlimit="10"/>
<path d="M66.1711 130.342L77.1687 148.893L56.9304 156.357" stroke="white" stroke-width="3" stroke-miterlimit="10"/>
<path d="M98.2933 141.74L109.289 160.295L89.0553 167.761" stroke="white" stroke-width="3" stroke-miterlimit="10"/>
<path d="M130.088 153.631L141.481 171.942L121.411 179.845" stroke="white" stroke-width="3" stroke-miterlimit="10"/>
<path d="M162.467 164.314L173.859 182.626L153.789 190.528" stroke="white" stroke-width="3" stroke-miterlimit="10"/>
<path d="M194.659 175.957L205.655 194.512L185.421 201.978" stroke="white" stroke-width="3" stroke-miterlimit="10"/>
<path d="M226.454 187.846L237.847 206.157L217.774 214.053" stroke="white" stroke-width="3" stroke-miterlimit="10"/>
<path d="M258.833 198.529L270.225 216.84L250.152 224.737" stroke="white" stroke-width="3" stroke-miterlimit="10"/>
<path d="M-11.5931 145.16L-0.198093 163.477L-20.2709 171.374" stroke="white" stroke-width="3" stroke-miterlimit="10"/>
<path d="M20.7851 155.846L32.1801 174.163L12.1073 182.059" stroke="white" stroke-width="3" stroke-miterlimit="10"/>
<path d="M52.9764 167.49L63.9739 186.041L43.7383 193.511" stroke="white" stroke-width="3" stroke-miterlimit="10"/>
<path d="M85.1013 178.898L96.0988 197.449L75.8649 204.915" stroke="white" stroke-width="3" stroke-miterlimit="10"/>
<path d="M116.898 190.783L128.289 209.099L108.216 216.995" stroke="white" stroke-width="3" stroke-miterlimit="10"/>
<path d="M149.276 201.467L160.667 219.782L140.594 227.679" stroke="white" stroke-width="3" stroke-miterlimit="10"/>
<path d="M181.469 213.109L192.465 231.665L172.227 239.129" stroke="white" stroke-width="3" stroke-miterlimit="10"/>
<path d="M213.26 224.998L224.656 243.311L204.582 251.212" stroke="white" stroke-width="3" stroke-miterlimit="10"/>
<path d="M245.638 235.682L257.034 253.994L236.96 261.895" stroke="white" stroke-width="3" stroke-miterlimit="10"/>
<path d="M7.5943 193L18.9849 211.316L-1.08353 219.214" stroke="white" stroke-width="3" stroke-miterlimit="10"/>
<path d="M39.7857 204.645L50.7816 223.2L30.5477 230.666" stroke="white" stroke-width="3" stroke-miterlimit="10"/>
<path d="M71.9106 216.053L82.9065 234.608L62.6682 242.072" stroke="white" stroke-width="3" stroke-miterlimit="10"/>
<path d="M103.703 227.938L115.098 246.255L95.025 254.151" stroke="white" stroke-width="3" stroke-miterlimit="10"/>
<path d="M136.081 238.619L147.476 256.936L127.403 264.833" stroke="white" stroke-width="3" stroke-miterlimit="10"/>
<path d="M168.272 250.266L179.27 268.816L159.034 276.287" stroke="white" stroke-width="3" stroke-miterlimit="10"/>
<path d="M200.069 262.152L211.459 280.468L191.391 288.366" stroke="white" stroke-width="3" stroke-miterlimit="10"/>
<path d="M232.447 272.836L243.838 291.151L223.769 299.05" stroke="white" stroke-width="3" stroke-miterlimit="10"/>
<path d="M-5.5979 230.156L5.79428 248.467L-14.2741 256.366" stroke="white" stroke-width="3" stroke-miterlimit="10"/>
<path d="M26.5951 241.797L37.591 260.352L17.3571 267.818" stroke="white" stroke-width="3" stroke-miterlimit="10"/>
<path d="M58.7156 253.201L69.7116 271.756L49.4776 279.222" stroke="white" stroke-width="3" stroke-miterlimit="10"/>
<path d="M90.5123 265.09L101.903 283.405L81.8345 291.304" stroke="white" stroke-width="3" stroke-miterlimit="10"/>
<path d="M122.89 275.771L134.281 294.087L114.213 301.985" stroke="white" stroke-width="3" stroke-miterlimit="10"/>
<path d="M155.082 287.418L166.078 305.973L145.844 313.439" stroke="white" stroke-width="3" stroke-miterlimit="10"/>
<path d="M186.878 299.305L198.269 317.62L178.2 325.518" stroke="white" stroke-width="3" stroke-miterlimit="10"/>
<path d="M219.256 309.988L230.647 328.304L210.579 336.202" stroke="white" stroke-width="3" stroke-miterlimit="10"/>
<path d="M13.4045 278.951L24.4004 297.506L4.16645 304.972" stroke="white" stroke-width="3" stroke-miterlimit="10"/>
<path d="M45.5251 290.355L56.521 308.911L36.2871 316.376" stroke="white" stroke-width="3" stroke-miterlimit="10"/>
<path d="M77.3201 302.246L88.7123 320.557L68.6439 328.455" stroke="white" stroke-width="3" stroke-miterlimit="10"/>
<path d="M109.698 312.932L121.09 331.243L101.022 339.141" stroke="white" stroke-width="3" stroke-miterlimit="10"/>
<path d="M141.891 324.572L152.887 343.127L132.653 350.593" stroke="white" stroke-width="3" stroke-miterlimit="10"/>
<path d="M173.688 336.459L185.078 354.775L165.01 362.673" stroke="white" stroke-width="3" stroke-miterlimit="10"/>
<path d="M206.066 347.143L217.456 365.458L197.388 373.356" stroke="white" stroke-width="3" stroke-miterlimit="10"/>
<path d="M0.213867 316.105L11.2098 334.661L-9.02417 342.126" stroke="white" stroke-width="3" stroke-miterlimit="10"/>
<path d="M32.3345 327.512L43.3304 346.067L23.0964 353.533" stroke="white" stroke-width="3" stroke-miterlimit="10"/>
<path d="M64.1294 339.402L75.5216 357.713L55.4532 365.612" stroke="white" stroke-width="3" stroke-miterlimit="10"/>
<path d="M96.5076 350.084L107.9 368.395L87.8313 376.293" stroke="white" stroke-width="3" stroke-miterlimit="10"/>
<path d="M128.7 361.727L139.696 380.282L119.462 387.748" stroke="white" stroke-width="3" stroke-miterlimit="10"/>
<path d="M-12.9785 353.262L-1.9809 371.812L-22.2148 379.278" stroke="white" stroke-width="3" stroke-miterlimit="10"/>
<path d="M19.1421 364.666L30.1396 383.217L9.9057 390.683" stroke="white" stroke-width="3" stroke-miterlimit="10"/>
<path d="M292.547 211.189L303.938 229.505L283.869 237.403" stroke="white" stroke-width="3" stroke-miterlimit="10"/>
<path d="M324.925 221.871L336.316 240.187L316.247 248.085" stroke="white" stroke-width="3" stroke-miterlimit="10"/>
<path d="M357.117 233.516L368.112 252.071L347.879 259.537" stroke="white" stroke-width="3" stroke-miterlimit="10"/>
<path d="M389.241 244.924L400.237 263.479L379.999 270.943" stroke="white" stroke-width="3" stroke-miterlimit="10"/>
<path d="M421.034 256.807L432.429 275.124L412.356 283.02" stroke="white" stroke-width="3" stroke-miterlimit="10"/>
<path d="M453.412 267.49L464.807 285.807L444.734 293.704" stroke="white" stroke-width="3" stroke-miterlimit="10"/>
<path d="M485.603 279.137L496.599 297.692L476.365 305.158" stroke="white" stroke-width="3" stroke-miterlimit="10"/>
<path d="M517.728 290.543L528.726 309.094L508.49 316.564" stroke="white" stroke-width="3" stroke-miterlimit="10"/>
<path d="M549.525 302.43L560.915 320.745L540.842 328.642" stroke="white" stroke-width="3" stroke-miterlimit="10"/>
<path d="M581.903 313.111L593.293 331.427L573.221 339.323" stroke="white" stroke-width="3" stroke-miterlimit="10"/>
<path d="M614.094 324.76L625.092 343.311L604.853 350.775" stroke="white" stroke-width="3" stroke-miterlimit="10"/>
<path d="M646.216 336.158L657.212 354.713L636.978 362.179" stroke="white" stroke-width="3" stroke-miterlimit="10"/>
<path d="M678.011 348.049L689.403 366.36L669.333 374.263" stroke="white" stroke-width="3" stroke-miterlimit="10"/>
<path d="M710.39 358.732L721.782 377.044L701.712 384.946" stroke="white" stroke-width="3" stroke-miterlimit="10"/>
<path d="M279.355 248.344L290.747 266.655L270.679 274.553" stroke="white" stroke-width="3" stroke-miterlimit="10"/>
<path d="M311.733 259.027L323.125 277.338L303.057 285.237" stroke="white" stroke-width="3" stroke-miterlimit="10"/>
<path d="M343.926 270.668L354.922 289.223L334.688 296.689" stroke="white" stroke-width="3" stroke-miterlimit="10"/>
<path d="M376.046 282.074L387.042 300.629L366.808 308.095" stroke="white" stroke-width="3" stroke-miterlimit="10"/>
<path d="M407.843 293.959L419.234 312.275L399.165 320.173" stroke="white" stroke-width="3" stroke-miterlimit="10"/>
<path d="M440.221 304.641L451.612 322.956L431.543 330.854" stroke="white" stroke-width="3" stroke-miterlimit="10"/>
<path d="M472.412 316.289L483.408 334.844L463.174 342.31" stroke="white" stroke-width="3" stroke-miterlimit="10"/>
<path d="M504.537 327.695L515.533 346.25L495.295 353.715" stroke="white" stroke-width="3" stroke-miterlimit="10"/>
<path d="M536.33 339.58L547.725 357.897L527.652 365.794" stroke="white" stroke-width="3" stroke-miterlimit="10"/>
<path d="M568.708 350.264L580.103 368.581L560.03 376.477" stroke="white" stroke-width="3" stroke-miterlimit="10"/>
<path d="M600.899 361.908L611.897 380.459L591.661 387.929" stroke="white" stroke-width="3" stroke-miterlimit="10"/>
<path d="M266.164 285.498L277.557 303.809L257.486 311.712" stroke="white" stroke-width="3" stroke-miterlimit="10"/>
<path d="M298.542 296.182L309.935 314.493L289.865 322.395" stroke="white" stroke-width="3" stroke-miterlimit="10"/>
<path d="M330.735 307.822L341.731 326.377L321.497 333.843" stroke="white" stroke-width="3" stroke-miterlimit="10"/>
<path d="M362.856 319.229L373.852 337.784L353.618 345.25" stroke="white" stroke-width="3" stroke-miterlimit="10"/>
<path d="M394.651 331.119L406.043 349.43L385.975 357.328" stroke="white" stroke-width="3" stroke-miterlimit="10"/>
<path d="M427.029 341.801L438.421 360.112L418.353 368.01" stroke="white" stroke-width="3" stroke-miterlimit="10"/>
<path d="M459.222 353.443L470.218 371.999L449.984 379.464" stroke="white" stroke-width="3" stroke-miterlimit="10"/>
<path d="M491.343 364.848L502.338 383.403L482.104 390.869" stroke="white" stroke-width="3" stroke-miterlimit="10"/>
<path d="M252.974 322.65L264.364 340.966L244.296 348.864" stroke="white" stroke-width="3" stroke-miterlimit="10"/>
<path d="M285.352 333.334L296.742 351.65L276.674 359.548" stroke="white" stroke-width="3" stroke-miterlimit="10"/>
<path d="M317.545 344.975L328.541 363.53L308.307 370.996" stroke="white" stroke-width="3" stroke-miterlimit="10"/>
<path d="M349.665 356.381L360.661 374.936L340.427 382.402" stroke="white" stroke-width="3" stroke-miterlimit="10"/>
<path d="M381.46 368.271L392.852 386.583L372.782 394.485" stroke="white" stroke-width="3" stroke-miterlimit="10"/>
<path d="M239.783 359.803L251.174 378.118L231.105 386.016" stroke="white" stroke-width="3" stroke-miterlimit="10"/>
</svg>
