<svg width="901" height="493" viewBox="0 0 901 493" fill="none" xmlns="http://www.w3.org/2000/svg">
<path d="M415.438 492.084L394.77 498.238L404.554 517.461" stroke="#A79BFD" stroke-width="3" stroke-miterlimit="10"/>
<path d="M383.62 479.453L363.086 486.053L373.283 505.057" stroke="#A79BFD" stroke-width="3" stroke-miterlimit="10"/>
<path d="M351.935 467.273L331.266 473.428L341.057 492.648" stroke="#A79BFD" stroke-width="3" stroke-miterlimit="10"/>
<path d="M320.614 453.803L299.945 459.957L309.735 479.177" stroke="#A79BFD" stroke-width="3" stroke-miterlimit="10"/>
<path d="M305.858 490.363L285.185 496.516L294.974 515.74" stroke="#A79BFD" stroke-width="3" stroke-miterlimit="10"/>
<path d="M286.982 440.926L266.312 447.084L276.098 466.303" stroke="#A79BFD" stroke-width="3" stroke-miterlimit="10"/>
<path d="M255.662 427.455L234.991 433.614L244.778 452.832" stroke="#A79BFD" stroke-width="3" stroke-miterlimit="10"/>
<path d="M223.843 414.828L203.308 421.428L213.505 440.432" stroke="#A79BFD" stroke-width="3" stroke-miterlimit="10"/>
<path d="M192.23 402.068L171.696 408.668L181.897 427.674" stroke="#A79BFD" stroke-width="3" stroke-miterlimit="10"/>
<path d="M160.552 389.885L139.877 396.042L149.668 415.262" stroke="#A79BFD" stroke-width="3" stroke-miterlimit="10"/>
<path d="M129.231 376.414L108.556 382.571L118.347 401.791" stroke="#A79BFD" stroke-width="3" stroke-miterlimit="10"/>
<path d="M97.4109 363.789L76.8768 370.389L87.0736 389.393" stroke="#A79BFD" stroke-width="3" stroke-miterlimit="10"/>
<path d="M65.8 351.027L45.2676 357.623L55.4628 376.632" stroke="#A79BFD" stroke-width="3" stroke-miterlimit="10"/>
<path d="M34.1157 338.844L13.4451 345.002L23.2358 364.222" stroke="#A79BFD" stroke-width="3" stroke-miterlimit="10"/>
<path d="M2.79492 325.373L-17.8757 331.532L-8.08507 350.752" stroke="#A79BFD" stroke-width="3" stroke-miterlimit="10"/>
<path d="M272.222 477.488L251.553 483.642L261.34 502.861" stroke="#A79BFD" stroke-width="3" stroke-miterlimit="10"/>
<path d="M240.901 464.018L220.232 470.172L230.019 489.39" stroke="#A79BFD" stroke-width="3" stroke-miterlimit="10"/>
<path d="M209.083 451.387L188.549 457.986L198.746 476.991" stroke="#A79BFD" stroke-width="3" stroke-miterlimit="10"/>
<path d="M177.476 438.629L156.942 445.229L167.139 464.233" stroke="#A79BFD" stroke-width="3" stroke-miterlimit="10"/>
<path d="M145.793 426.443L125.123 432.602L134.909 451.82" stroke="#A79BFD" stroke-width="3" stroke-miterlimit="10"/>
<path d="M114.472 412.973L93.8018 419.131L103.588 438.35" stroke="#A79BFD" stroke-width="3" stroke-miterlimit="10"/>
<path d="M82.6519 400.348L62.1177 406.947L72.3146 425.952" stroke="#A79BFD" stroke-width="3" stroke-miterlimit="10"/>
<path d="M51.0403 387.586L30.5062 394.186L40.7074 413.192" stroke="#A79BFD" stroke-width="3" stroke-miterlimit="10"/>
<path d="M19.3608 375.404L-1.31421 381.561L8.47647 400.781" stroke="#A79BFD" stroke-width="3" stroke-miterlimit="10"/>
<path d="M226.141 500.576L205.472 506.73L215.257 525.953" stroke="#A79BFD" stroke-width="3" stroke-miterlimit="10"/>
<path d="M194.323 487.945L173.789 494.545L183.986 513.55" stroke="#A79BFD" stroke-width="3" stroke-miterlimit="10"/>
<path d="M162.716 475.188L142.182 481.787L152.379 500.792" stroke="#A79BFD" stroke-width="3" stroke-miterlimit="10"/>
<path d="M131.031 463.008L110.362 469.162L120.148 488.38" stroke="#A79BFD" stroke-width="3" stroke-miterlimit="10"/>
<path d="M99.7097 449.537L79.0408 455.691L88.8271 474.91" stroke="#A79BFD" stroke-width="3" stroke-miterlimit="10"/>
<path d="M67.8918 436.906L47.3577 443.506L57.5546 462.51" stroke="#A79BFD" stroke-width="3" stroke-miterlimit="10"/>
<path d="M36.2844 424.146L15.7503 430.746L25.9472 449.751" stroke="#A79BFD" stroke-width="3" stroke-miterlimit="10"/>
<path d="M4.60083 411.963L-16.0698 418.121L-6.28354 437.34" stroke="#A79BFD" stroke-width="3" stroke-miterlimit="10"/>
<path d="M116.272 499.564L95.6028 505.719L105.387 524.941" stroke="#A79BFD" stroke-width="3" stroke-miterlimit="10"/>
<path d="M84.9507 486.094L64.2817 492.248L74.068 511.466" stroke="#A79BFD" stroke-width="3" stroke-miterlimit="10"/>
<path d="M53.1328 473.465L32.5987 480.064L42.7956 499.069" stroke="#A79BFD" stroke-width="3" stroke-miterlimit="10"/>
<path d="M21.5254 460.705L0.991262 467.305L11.1881 486.309" stroke="#A79BFD" stroke-width="3" stroke-miterlimit="10"/>
<path d="M6.76685 497.262L-13.7673 503.861L-3.57041 522.866" stroke="#A79BFD" stroke-width="3" stroke-miterlimit="10"/>
</svg>
