<svg width="1184" height="526" viewBox="0 0 1184 526" fill="none" xmlns="http://www.w3.org/2000/svg">
<path d="M649.633 116.832L619.719 137.062" stroke="white" stroke-opacity="0.8" stroke-width="2" stroke-miterlimit="10"/>
<path d="M679.166 122.538L649.246 142.768" stroke="white" stroke-opacity="0.8" stroke-width="2" stroke-miterlimit="10"/>
<path d="M708.691 128.244L678.777 148.475" stroke="white" stroke-opacity="0.8" stroke-width="2" stroke-miterlimit="10"/>
<path d="M738.224 133.95L708.304 154.18" stroke="white" stroke-opacity="0.8" stroke-width="2" stroke-miterlimit="10"/>
<path d="M767.75 139.655L737.83 159.885" stroke="white" stroke-opacity="0.8" stroke-width="2" stroke-miterlimit="10"/>
<path d="M797.283 145.362L767.364 165.592" stroke="white" stroke-opacity="0.8" stroke-width="2" stroke-miterlimit="10"/>
<path d="M826.809 151.063L796.89 171.293" stroke="white" stroke-opacity="0.8" stroke-width="2" stroke-miterlimit="10"/>
<path d="M856.342 156.77L826.422 177" stroke="white" stroke-opacity="0.8" stroke-width="2" stroke-miterlimit="10"/>
<path d="M885.869 162.476L855.949 182.705" stroke="white" stroke-opacity="0.8" stroke-width="2" stroke-miterlimit="10"/>
<path d="M915.396 168.18L885.482 188.41" stroke="white" stroke-opacity="0.8" stroke-width="2" stroke-miterlimit="10"/>
<path d="M944.928 173.888L915.008 194.117" stroke="white" stroke-opacity="0.8" stroke-width="2" stroke-miterlimit="10"/>
<path d="M974.454 179.59L944.54 199.82" stroke="white" stroke-opacity="0.8" stroke-width="2" stroke-miterlimit="10"/>
<path d="M1003.99 185.296L974.068 205.525" stroke="white" stroke-opacity="0.8" stroke-width="2" stroke-miterlimit="10"/>
<path d="M1033.51 191.002L1003.6 211.232" stroke="white" stroke-opacity="0.8" stroke-width="2" stroke-miterlimit="10"/>
<path d="M1063.05 196.708L1033.13 216.937" stroke="white" stroke-opacity="0.8" stroke-width="2" stroke-miterlimit="10"/>
<path d="M1092.57 202.413L1062.65 222.643" stroke="white" stroke-opacity="0.8" stroke-width="2" stroke-miterlimit="10"/>
<path d="M1122.1 208.12L1092.18 228.35" stroke="white" stroke-opacity="0.8" stroke-width="2" stroke-miterlimit="10"/>
<path d="M1151.63 213.821L1121.71 234.051" stroke="white" stroke-opacity="0.8" stroke-width="2" stroke-miterlimit="10"/>
<path d="M1181.16 219.528L1151.24 239.758" stroke="white" stroke-opacity="0.8" stroke-width="2" stroke-miterlimit="10"/>
<path d="M642.868 151.862L612.948 172.092" stroke="white" stroke-opacity="0.8" stroke-width="2" stroke-miterlimit="10"/>
<path d="M672.401 157.569L642.481 177.799" stroke="white" stroke-opacity="0.8" stroke-width="2" stroke-miterlimit="10"/>
<path d="M701.928 163.272L672.008 183.502" stroke="white" stroke-opacity="0.8" stroke-width="2" stroke-miterlimit="10"/>
<path d="M731.455 168.978L701.541 189.209" stroke="white" stroke-opacity="0.8" stroke-width="2" stroke-miterlimit="10"/>
<path d="M760.988 174.685L731.068 194.914" stroke="white" stroke-opacity="0.8" stroke-width="2" stroke-miterlimit="10"/>
<path d="M790.513 180.391L760.599 200.621" stroke="white" stroke-opacity="0.8" stroke-width="2" stroke-miterlimit="10"/>
<path d="M820.046 186.095L790.126 206.324" stroke="white" stroke-opacity="0.8" stroke-width="2" stroke-miterlimit="10"/>
<path d="M849.573 191.8L819.653 212.029" stroke="white" stroke-opacity="0.8" stroke-width="2" stroke-miterlimit="10"/>
<path d="M879.105 197.507L849.185 217.736" stroke="white" stroke-opacity="0.8" stroke-width="2" stroke-miterlimit="10"/>
<path d="M908.633 203.212L878.713 223.441" stroke="white" stroke-opacity="0.8" stroke-width="2" stroke-miterlimit="10"/>
<path d="M938.163 208.915L908.244 229.145" stroke="white" stroke-opacity="0.8" stroke-width="2" stroke-miterlimit="10"/>
<path d="M967.692 214.62L937.772 234.85" stroke="white" stroke-opacity="0.8" stroke-width="2" stroke-miterlimit="10"/>
<path d="M997.217 220.326L967.303 240.557" stroke="white" stroke-opacity="0.8" stroke-width="2" stroke-miterlimit="10"/>
<path d="M1026.75 226.03L996.83 246.26" stroke="white" stroke-opacity="0.8" stroke-width="2" stroke-miterlimit="10"/>
<path d="M1056.28 231.736L1026.36 251.967" stroke="white" stroke-opacity="0.8" stroke-width="2" stroke-miterlimit="10"/>
<path d="M1085.81 237.444L1055.89 257.674" stroke="white" stroke-opacity="0.8" stroke-width="2" stroke-miterlimit="10"/>
<path d="M1115.33 243.147L1085.41 263.377" stroke="white" stroke-opacity="0.8" stroke-width="2" stroke-miterlimit="10"/>
<path d="M1144.87 248.851L1114.95 269.08" stroke="white" stroke-opacity="0.8" stroke-width="2" stroke-miterlimit="10"/>
<path d="M1174.4 254.558L1144.48 274.787" stroke="white" stroke-opacity="0.8" stroke-width="2" stroke-miterlimit="10"/>
<path d="M636.102 186.89L606.183 207.119" stroke="white" stroke-opacity="0.8" stroke-width="2" stroke-miterlimit="10"/>
<path d="M665.631 192.597L635.711 212.826" stroke="white" stroke-opacity="0.8" stroke-width="2" stroke-miterlimit="10"/>
<path d="M695.163 198.3L665.243 218.529" stroke="white" stroke-opacity="0.8" stroke-width="2" stroke-miterlimit="10"/>
<path d="M724.689 204.005L694.769 224.234" stroke="white" stroke-opacity="0.8" stroke-width="2" stroke-miterlimit="10"/>
<path d="M754.222 209.712L724.303 229.941" stroke="white" stroke-opacity="0.8" stroke-width="2" stroke-miterlimit="10"/>
<path d="M783.749 215.415L753.829 235.645" stroke="white" stroke-opacity="0.8" stroke-width="2" stroke-miterlimit="10"/>
<path d="M813.276 221.119L783.362 241.35" stroke="white" stroke-opacity="0.8" stroke-width="2" stroke-miterlimit="10"/>
<path d="M842.808 226.827L812.889 247.057" stroke="white" stroke-opacity="0.8" stroke-width="2" stroke-miterlimit="10"/>
<path d="M872.334 232.531L842.42 252.762" stroke="white" stroke-opacity="0.8" stroke-width="2" stroke-miterlimit="10"/>
<path d="M901.866 238.237L871.947 258.467" stroke="white" stroke-opacity="0.8" stroke-width="2" stroke-miterlimit="10"/>
<path d="M931.393 243.948L901.474 264.172" stroke="white" stroke-opacity="0.8" stroke-width="2" stroke-miterlimit="10"/>
<path d="M960.924 249.651L931.004 269.881" stroke="white" stroke-opacity="0.8" stroke-width="2" stroke-miterlimit="10"/>
<path d="M990.451 255.356L960.532 275.586" stroke="white" stroke-opacity="0.8" stroke-width="2" stroke-miterlimit="10"/>
<path d="M1019.98 261.065L990.064 281.295" stroke="white" stroke-opacity="0.8" stroke-width="2" stroke-miterlimit="10"/>
<path d="M1049.51 266.768L1019.59 286.998" stroke="white" stroke-opacity="0.8" stroke-width="2" stroke-miterlimit="10"/>
<path d="M1079.04 272.473L1049.12 292.703" stroke="white" stroke-opacity="0.8" stroke-width="2" stroke-miterlimit="10"/>
<path d="M1108.57 278.181L1078.65 298.41" stroke="white" stroke-opacity="0.8" stroke-width="2" stroke-miterlimit="10"/>
<path d="M1138.1 283.885L1108.18 304.115" stroke="white" stroke-opacity="0.8" stroke-width="2" stroke-miterlimit="10"/>
<path d="M1167.63 289.589L1137.71 309.818" stroke="white" stroke-opacity="0.8" stroke-width="2" stroke-miterlimit="10"/>
<path d="M629.33 221.924L599.416 242.154" stroke="white" stroke-opacity="0.8" stroke-width="2" stroke-miterlimit="10"/>
<path d="M658.863 227.63L628.943 247.859" stroke="white" stroke-opacity="0.8" stroke-width="2" stroke-miterlimit="10"/>
<path d="M688.391 233.333L658.471 253.562" stroke="white" stroke-opacity="0.8" stroke-width="2" stroke-miterlimit="10"/>
<path d="M717.922 239.036L688.002 259.266" stroke="white" stroke-opacity="0.8" stroke-width="2" stroke-miterlimit="10"/>
<path d="M747.448 244.745L717.528 264.975" stroke="white" stroke-opacity="0.8" stroke-width="2" stroke-miterlimit="10"/>
<path d="M776.981 250.45L747.061 270.68" stroke="white" stroke-opacity="0.8" stroke-width="2" stroke-miterlimit="10"/>
<path d="M806.509 256.155L776.589 276.385" stroke="white" stroke-opacity="0.8" stroke-width="2" stroke-miterlimit="10"/>
<path d="M836.034 261.861L806.12 282.092" stroke="white" stroke-opacity="0.8" stroke-width="2" stroke-miterlimit="10"/>
<path d="M865.566 267.565L835.646 287.795" stroke="white" stroke-opacity="0.8" stroke-width="2" stroke-miterlimit="10"/>
<path d="M895.094 273.271L865.18 293.502" stroke="white" stroke-opacity="0.8" stroke-width="2" stroke-miterlimit="10"/>
<path d="M924.626 278.979L894.706 299.209" stroke="white" stroke-opacity="0.8" stroke-width="2" stroke-miterlimit="10"/>
<path d="M954.153 284.683L924.233 304.912" stroke="white" stroke-opacity="0.8" stroke-width="2" stroke-miterlimit="10"/>
<path d="M983.685 290.388L953.766 310.617" stroke="white" stroke-opacity="0.8" stroke-width="2" stroke-miterlimit="10"/>
<path d="M1013.21 296.093L983.293 316.322" stroke="white" stroke-opacity="0.8" stroke-width="2" stroke-miterlimit="10"/>
<path d="M1042.74 301.796L1012.82 322.025" stroke="white" stroke-opacity="0.8" stroke-width="2" stroke-miterlimit="10"/>
<path d="M1072.27 307.503L1042.35 327.732" stroke="white" stroke-opacity="0.8" stroke-width="2" stroke-miterlimit="10"/>
<path d="M1101.8 313.21L1071.88 333.439" stroke="white" stroke-opacity="0.8" stroke-width="2" stroke-miterlimit="10"/>
<path d="M1131.33 318.913L1101.41 339.143" stroke="white" stroke-opacity="0.8" stroke-width="2" stroke-miterlimit="10"/>
<path d="M1160.86 324.619L1130.94 344.85" stroke="white" stroke-opacity="0.8" stroke-width="2" stroke-miterlimit="10"/>
<path d="M622.563 256.954L592.643 277.184" stroke="white" stroke-opacity="0.8" stroke-width="2" stroke-miterlimit="10"/>
<path d="M652.09 262.658L622.176 282.889" stroke="white" stroke-opacity="0.8" stroke-width="2" stroke-miterlimit="10"/>
<path d="M681.623 268.364L651.703 288.594" stroke="white" stroke-opacity="0.8" stroke-width="2" stroke-miterlimit="10"/>
<path d="M711.15 274.07L681.236 294.301" stroke="white" stroke-opacity="0.8" stroke-width="2" stroke-miterlimit="10"/>
<path d="M740.682 279.774L710.763 300.004" stroke="white" stroke-opacity="0.8" stroke-width="2" stroke-miterlimit="10"/>
<path d="M770.208 285.479L740.288 305.709" stroke="white" stroke-opacity="0.8" stroke-width="2" stroke-miterlimit="10"/>
<path d="M799.741 291.185L769.822 311.414" stroke="white" stroke-opacity="0.8" stroke-width="2" stroke-miterlimit="10"/>
<path d="M829.267 296.892L799.347 317.121" stroke="white" stroke-opacity="0.8" stroke-width="2" stroke-miterlimit="10"/>
<path d="M858.8 302.597L828.88 322.826" stroke="white" stroke-opacity="0.8" stroke-width="2" stroke-miterlimit="10"/>
<path d="M888.327 308.3L858.407 328.529" stroke="white" stroke-opacity="0.8" stroke-width="2" stroke-miterlimit="10"/>
<path d="M917.853 314.006L887.939 334.236" stroke="white" stroke-opacity="0.8" stroke-width="2" stroke-miterlimit="10"/>
<path d="M947.385 319.712L917.465 339.941" stroke="white" stroke-opacity="0.8" stroke-width="2" stroke-miterlimit="10"/>
<path d="M976.913 325.414L946.999 345.645" stroke="white" stroke-opacity="0.8" stroke-width="2" stroke-miterlimit="10"/>
<path d="M1006.45 331.12L976.525 351.35" stroke="white" stroke-opacity="0.8" stroke-width="2" stroke-miterlimit="10"/>
<path d="M1035.97 336.827L1006.05 357.057" stroke="white" stroke-opacity="0.8" stroke-width="2" stroke-miterlimit="10"/>
<path d="M1065.5 342.534L1035.58 362.764" stroke="white" stroke-opacity="0.8" stroke-width="2" stroke-miterlimit="10"/>
<path d="M1095.03 348.241L1065.11 368.471" stroke="white" stroke-opacity="0.8" stroke-width="2" stroke-miterlimit="10"/>
<path d="M1124.56 353.942L1094.64 374.172" stroke="white" stroke-opacity="0.8" stroke-width="2" stroke-miterlimit="10"/>
<path d="M1154.09 359.647L1124.17 379.877" stroke="white" stroke-opacity="0.8" stroke-width="2" stroke-miterlimit="10"/>
<path d="M615.798 291.983L585.878 312.213" stroke="white" stroke-opacity="0.8" stroke-width="2" stroke-miterlimit="10"/>
<path d="M645.325 297.686L615.405 317.916" stroke="white" stroke-opacity="0.8" stroke-width="2" stroke-miterlimit="10"/>
<path d="M674.857 303.394L644.937 323.623" stroke="white" stroke-opacity="0.8" stroke-width="2" stroke-miterlimit="10"/>
<path d="M704.384 309.099L674.464 329.328" stroke="white" stroke-opacity="0.8" stroke-width="2" stroke-miterlimit="10"/>
<path d="M733.91 314.805L703.996 335.035" stroke="white" stroke-opacity="0.8" stroke-width="2" stroke-miterlimit="10"/>
<path d="M763.443 320.509L733.523 340.738" stroke="white" stroke-opacity="0.8" stroke-width="2" stroke-miterlimit="10"/>
<path d="M792.97 326.213L763.056 346.443" stroke="white" stroke-opacity="0.8" stroke-width="2" stroke-miterlimit="10"/>
<path d="M822.502 331.921L792.582 352.15" stroke="white" stroke-opacity="0.8" stroke-width="2" stroke-miterlimit="10"/>
<path d="M852.029 337.626L822.109 357.855" stroke="white" stroke-opacity="0.8" stroke-width="2" stroke-miterlimit="10"/>
<path d="M881.562 343.329L851.642 363.559" stroke="white" stroke-opacity="0.8" stroke-width="2" stroke-miterlimit="10"/>
<path d="M911.087 349.036L881.167 369.266" stroke="white" stroke-opacity="0.8" stroke-width="2" stroke-miterlimit="10"/>
<path d="M940.62 354.743L910.701 374.973" stroke="white" stroke-opacity="0.8" stroke-width="2" stroke-miterlimit="10"/>
<path d="M970.148 360.446L940.228 380.676" stroke="white" stroke-opacity="0.8" stroke-width="2" stroke-miterlimit="10"/>
<path d="M999.675 366.152L969.761 386.383" stroke="white" stroke-opacity="0.8" stroke-width="2" stroke-miterlimit="10"/>
<path d="M1029.21 371.856L999.287 392.086" stroke="white" stroke-opacity="0.8" stroke-width="2" stroke-miterlimit="10"/>
<path d="M1058.73 377.562L1028.82 397.793" stroke="white" stroke-opacity="0.8" stroke-width="2" stroke-miterlimit="10"/>
<path d="M1088.26 383.269L1058.35 403.498" stroke="white" stroke-opacity="0.8" stroke-width="2" stroke-miterlimit="10"/>
<path d="M1117.79 388.972L1087.87 409.201" stroke="white" stroke-opacity="0.8" stroke-width="2" stroke-miterlimit="10"/>
<path d="M1147.32 394.679L1117.41 414.908" stroke="white" stroke-opacity="0.8" stroke-width="2" stroke-miterlimit="10"/>
<path d="M609.027 327.009L579.107 347.238" stroke="white" stroke-opacity="0.8" stroke-width="2" stroke-miterlimit="10"/>
<path d="M638.558 332.716L608.638 352.945" stroke="white" stroke-opacity="0.8" stroke-width="2" stroke-miterlimit="10"/>
<path d="M668.085 338.419L638.165 358.648" stroke="white" stroke-opacity="0.8" stroke-width="2" stroke-miterlimit="10"/>
<path d="M697.618 344.126L667.699 364.355" stroke="white" stroke-opacity="0.8" stroke-width="2" stroke-miterlimit="10"/>
<path d="M727.145 349.831L697.225 370.061" stroke="white" stroke-opacity="0.8" stroke-width="2" stroke-miterlimit="10"/>
<path d="M756.672 355.535L726.758 375.766" stroke="white" stroke-opacity="0.8" stroke-width="2" stroke-miterlimit="10"/>
<path d="M786.204 361.243L756.285 381.473" stroke="white" stroke-opacity="0.8" stroke-width="2" stroke-miterlimit="10"/>
<path d="M815.73 366.947L785.816 387.178" stroke="white" stroke-opacity="0.8" stroke-width="2" stroke-miterlimit="10"/>
<path d="M845.263 372.651L815.344 392.881" stroke="white" stroke-opacity="0.8" stroke-width="2" stroke-miterlimit="10"/>
<path d="M874.79 378.356L844.87 398.586" stroke="white" stroke-opacity="0.8" stroke-width="2" stroke-miterlimit="10"/>
<path d="M904.323 384.061L874.403 404.291" stroke="white" stroke-opacity="0.8" stroke-width="2" stroke-miterlimit="10"/>
<path d="M933.849 389.769L903.929 409.998" stroke="white" stroke-opacity="0.8" stroke-width="2" stroke-miterlimit="10"/>
<path d="M963.381 395.474L933.461 415.703" stroke="white" stroke-opacity="0.8" stroke-width="2" stroke-miterlimit="10"/>
<path d="M992.907 401.181L962.988 421.41" stroke="white" stroke-opacity="0.8" stroke-width="2" stroke-miterlimit="10"/>
<path d="M1022.44 406.886L992.52 427.115" stroke="white" stroke-opacity="0.8" stroke-width="2" stroke-miterlimit="10"/>
<path d="M1051.97 412.589L1022.05 432.818" stroke="white" stroke-opacity="0.8" stroke-width="2" stroke-miterlimit="10"/>
<path d="M1081.49 418.295L1051.58 438.525" stroke="white" stroke-opacity="0.8" stroke-width="2" stroke-miterlimit="10"/>
<path d="M1111.03 424.001L1081.11 444.23" stroke="white" stroke-opacity="0.8" stroke-width="2" stroke-miterlimit="10"/>
<path d="M1140.55 429.705L1110.64 449.936" stroke="white" stroke-opacity="0.8" stroke-width="2" stroke-miterlimit="10"/>
<path d="M602.261 362.04L572.341 382.269" stroke="white" stroke-opacity="0.8" stroke-width="2" stroke-miterlimit="10"/>
<path d="M631.788 367.746L601.874 387.977" stroke="white" stroke-opacity="0.8" stroke-width="2" stroke-miterlimit="10"/>
<path d="M661.321 373.45L631.401 393.68" stroke="white" stroke-opacity="0.8" stroke-width="2" stroke-miterlimit="10"/>
<path d="M690.848 379.155L660.929 399.385" stroke="white" stroke-opacity="0.8" stroke-width="2" stroke-miterlimit="10"/>
<path d="M720.379 384.86L690.459 405.09" stroke="white" stroke-opacity="0.8" stroke-width="2" stroke-miterlimit="10"/>
<path d="M749.905 390.563L719.986 410.793" stroke="white" stroke-opacity="0.8" stroke-width="2" stroke-miterlimit="10"/>
<path d="M779.439 396.27L749.519 416.5" stroke="white" stroke-opacity="0.8" stroke-width="2" stroke-miterlimit="10"/>
<path d="M808.965 401.976L779.045 422.205" stroke="white" stroke-opacity="0.8" stroke-width="2" stroke-miterlimit="10"/>
<path d="M838.493 407.68L808.579 427.91" stroke="white" stroke-opacity="0.8" stroke-width="2" stroke-miterlimit="10"/>
<path d="M868.024 413.388L838.104 433.617" stroke="white" stroke-opacity="0.8" stroke-width="2" stroke-miterlimit="10"/>
<path d="M897.552 419.094L867.638 439.324" stroke="white" stroke-opacity="0.8" stroke-width="2" stroke-miterlimit="10"/>
<path d="M927.084 424.796L897.164 445.025" stroke="white" stroke-opacity="0.8" stroke-width="2" stroke-miterlimit="10"/>
<path d="M956.61 430.501L926.69 450.73" stroke="white" stroke-opacity="0.8" stroke-width="2" stroke-miterlimit="10"/>
<path d="M986.143 436.206L956.224 456.436" stroke="white" stroke-opacity="0.8" stroke-width="2" stroke-miterlimit="10"/>
<path d="M1015.67 441.911L985.75 462.141" stroke="white" stroke-opacity="0.8" stroke-width="2" stroke-miterlimit="10"/>
<path d="M1045.2 447.618L1015.28 467.848" stroke="white" stroke-opacity="0.8" stroke-width="2" stroke-miterlimit="10"/>
<path d="M1074.73 453.325L1044.81 473.555" stroke="white" stroke-opacity="0.8" stroke-width="2" stroke-miterlimit="10"/>
<path d="M1104.25 459.035L1074.34 479.26" stroke="white" stroke-opacity="0.8" stroke-width="2" stroke-miterlimit="10"/>
<path d="M1133.79 464.741L1103.87 484.971" stroke="white" stroke-opacity="0.8" stroke-width="2" stroke-miterlimit="10"/>
<path d="M595.489 397.066L565.575 417.297" stroke="white" stroke-opacity="0.8" stroke-width="2" stroke-miterlimit="10"/>
<path d="M625.022 402.772L595.102 423.002" stroke="white" stroke-opacity="0.8" stroke-width="2" stroke-miterlimit="10"/>
<path d="M654.549 408.477L624.635 428.707" stroke="white" stroke-opacity="0.8" stroke-width="2" stroke-miterlimit="10"/>
<path d="M684.082 414.183L654.162 434.412" stroke="white" stroke-opacity="0.8" stroke-width="2" stroke-miterlimit="10"/>
<path d="M713.608 419.889L683.694 440.119" stroke="white" stroke-opacity="0.8" stroke-width="2" stroke-miterlimit="10"/>
<path d="M743.14 425.595L713.221 445.824" stroke="white" stroke-opacity="0.8" stroke-width="2" stroke-miterlimit="10"/>
<path d="M772.666 431.304L742.747 451.527" stroke="white" stroke-opacity="0.8" stroke-width="2" stroke-miterlimit="10"/>
<path d="M802.198 437.011L772.279 457.24" stroke="white" stroke-opacity="0.8" stroke-width="2" stroke-miterlimit="10"/>
<path d="M831.725 442.714L801.805 462.943" stroke="white" stroke-opacity="0.8" stroke-width="2" stroke-miterlimit="10"/>
<path d="M861.258 448.421L831.338 468.65" stroke="white" stroke-opacity="0.8" stroke-width="2" stroke-miterlimit="10"/>
<path d="M890.784 454.124L860.864 474.354" stroke="white" stroke-opacity="0.8" stroke-width="2" stroke-miterlimit="10"/>
<path d="M920.311 459.83L890.397 480.061" stroke="white" stroke-opacity="0.8" stroke-width="2" stroke-miterlimit="10"/>
<path d="M949.844 465.536L919.924 485.766" stroke="white" stroke-opacity="0.8" stroke-width="2" stroke-miterlimit="10"/>
<path d="M979.37 471.24L949.456 491.471" stroke="white" stroke-opacity="0.8" stroke-width="2" stroke-miterlimit="10"/>
<path d="M1008.9 476.948L978.983 497.178" stroke="white" stroke-opacity="0.8" stroke-width="2" stroke-miterlimit="10"/>
<path d="M1038.43 482.651L1008.51 502.881" stroke="white" stroke-opacity="0.8" stroke-width="2" stroke-miterlimit="10"/>
<path d="M1067.96 488.356L1038.04 508.586" stroke="white" stroke-opacity="0.8" stroke-width="2" stroke-miterlimit="10"/>
<path d="M1097.49 494.061L1067.57 514.291" stroke="white" stroke-opacity="0.8" stroke-width="2" stroke-miterlimit="10"/>
<path d="M1127.02 499.768L1097.1 519.998" stroke="white" stroke-opacity="0.8" stroke-width="2" stroke-miterlimit="10"/>
<path d="M86.4407 5.53706L56.5268 25.7675" stroke="white" stroke-opacity="0.8" stroke-width="2" stroke-miterlimit="10"/>
<path d="M115.973 11.2431L86.0531 31.4726" stroke="white" stroke-opacity="0.8" stroke-width="2" stroke-miterlimit="10"/>
<path d="M145.498 16.9492L115.584 37.1797" stroke="white" stroke-opacity="0.8" stroke-width="2" stroke-miterlimit="10"/>
<path d="M175.031 22.6533L145.112 42.8828" stroke="white" stroke-opacity="0.8" stroke-width="2" stroke-miterlimit="10"/>
<path d="M204.557 28.3583L174.638 48.5879" stroke="white" stroke-opacity="0.8" stroke-width="2" stroke-miterlimit="10"/>
<path d="M234.09 34.0654L204.17 54.2949" stroke="white" stroke-opacity="0.8" stroke-width="2" stroke-miterlimit="10"/>
<path d="M263.617 39.7665L233.697 59.9961" stroke="white" stroke-opacity="0.8" stroke-width="2" stroke-miterlimit="10"/>
<path d="M293.15 45.4736L263.23 65.7031" stroke="white" stroke-opacity="0.8" stroke-width="2" stroke-miterlimit="10"/>
<path d="M322.677 51.1787L292.757 71.4082" stroke="white" stroke-opacity="0.8" stroke-width="2" stroke-miterlimit="10"/>
<path d="M352.204 56.8847L322.29 77.1152" stroke="white" stroke-opacity="0.8" stroke-width="2" stroke-miterlimit="10"/>
<path d="M381.736 62.5927L351.816 82.8222" stroke="white" stroke-opacity="0.8" stroke-width="2" stroke-miterlimit="10"/>
<path d="M411.261 68.2949L381.348 88.5254" stroke="white" stroke-opacity="0.8" stroke-width="2" stroke-miterlimit="10"/>
<path d="M440.795 74.0009L410.875 94.2304" stroke="white" stroke-opacity="0.8" stroke-width="2" stroke-miterlimit="10"/>
<path d="M470.321 79.707L440.407 99.9375" stroke="white" stroke-opacity="0.8" stroke-width="2" stroke-miterlimit="10"/>
<path d="M499.853 85.413L469.933 105.643" stroke="white" stroke-opacity="0.8" stroke-width="2" stroke-miterlimit="10"/>
<path d="M529.38 91.1142L499.46 111.344" stroke="white" stroke-opacity="0.8" stroke-width="2" stroke-miterlimit="10"/>
<path d="M558.912 96.8232L528.993 117.053" stroke="white" stroke-opacity="0.8" stroke-width="2" stroke-miterlimit="10"/>
<path d="M588.44 102.526L558.52 122.756" stroke="white" stroke-opacity="0.8" stroke-width="2" stroke-miterlimit="10"/>
<path d="M617.971 108.231L588.052 128.461" stroke="white" stroke-opacity="0.8" stroke-width="2" stroke-miterlimit="10"/>
<path d="M79.6745 40.5673L49.7548 60.7968" stroke="white" stroke-opacity="0.8" stroke-width="2" stroke-miterlimit="10"/>
<path d="M109.207 46.2744L79.2875 66.5039" stroke="white" stroke-opacity="0.8" stroke-width="2" stroke-miterlimit="10"/>
<path d="M138.734 51.9794L108.814 72.209" stroke="white" stroke-opacity="0.8" stroke-width="2" stroke-miterlimit="10"/>
<path d="M168.262 57.6855L138.348 77.916" stroke="white" stroke-opacity="0.8" stroke-width="2" stroke-miterlimit="10"/>
<path d="M197.795 63.3896L167.875 83.6191" stroke="white" stroke-opacity="0.8" stroke-width="2" stroke-miterlimit="10"/>
<path d="M227.319 69.0937L197.405 89.3242" stroke="white" stroke-opacity="0.8" stroke-width="2" stroke-miterlimit="10"/>
<path d="M256.852 74.7998L226.933 95.0293" stroke="white" stroke-opacity="0.8" stroke-width="2" stroke-miterlimit="10"/>
<path d="M286.38 80.5068L256.46 100.736" stroke="white" stroke-opacity="0.8" stroke-width="2" stroke-miterlimit="10"/>
<path d="M315.91 86.2099L285.991 106.439" stroke="white" stroke-opacity="0.8" stroke-width="2" stroke-miterlimit="10"/>
<path d="M345.439 91.9169L315.519 112.146" stroke="white" stroke-opacity="0.8" stroke-width="2" stroke-miterlimit="10"/>
<path d="M374.969 97.622L345.05 117.852" stroke="white" stroke-opacity="0.8" stroke-width="2" stroke-miterlimit="10"/>
<path d="M404.497 103.325L374.578 123.555" stroke="white" stroke-opacity="0.8" stroke-width="2" stroke-miterlimit="10"/>
<path d="M434.023 109.031L404.109 129.262" stroke="white" stroke-opacity="0.8" stroke-width="2" stroke-miterlimit="10"/>
<path d="M463.557 114.737L433.637 134.967" stroke="white" stroke-opacity="0.8" stroke-width="2" stroke-miterlimit="10"/>
<path d="M493.082 120.443L463.168 140.674" stroke="white" stroke-opacity="0.8" stroke-width="2" stroke-miterlimit="10"/>
<path d="M522.615 126.147L492.695 146.377" stroke="white" stroke-opacity="0.8" stroke-width="2" stroke-miterlimit="10"/>
<path d="M552.142 131.854L522.222 152.084" stroke="white" stroke-opacity="0.8" stroke-width="2" stroke-miterlimit="10"/>
<path d="M581.674 137.558L551.754 157.787" stroke="white" stroke-opacity="0.8" stroke-width="2" stroke-miterlimit="10"/>
<path d="M611.201 143.265L581.282 163.494" stroke="white" stroke-opacity="0.8" stroke-width="2" stroke-miterlimit="10"/>
<path d="M72.9094 75.5947L42.9897 95.8242" stroke="white" stroke-opacity="0.8" stroke-width="2" stroke-miterlimit="10"/>
<path d="M102.436 81.2998L72.5165 101.529" stroke="white" stroke-opacity="0.8" stroke-width="2" stroke-miterlimit="10"/>
<path d="M131.969 87.0029L102.049 107.232" stroke="white" stroke-opacity="0.8" stroke-width="2" stroke-miterlimit="10"/>
<path d="M161.495 92.708L131.576 112.937" stroke="white" stroke-opacity="0.8" stroke-width="2" stroke-miterlimit="10"/>
<path d="M191.029 98.415L161.109 118.645" stroke="white" stroke-opacity="0.8" stroke-width="2" stroke-miterlimit="10"/>
<path d="M220.554 104.12L190.634 124.35" stroke="white" stroke-opacity="0.8" stroke-width="2" stroke-miterlimit="10"/>
<path d="M250.081 109.826L220.167 130.057" stroke="white" stroke-opacity="0.8" stroke-width="2" stroke-miterlimit="10"/>
<path d="M279.614 115.53L249.694 135.76" stroke="white" stroke-opacity="0.8" stroke-width="2" stroke-miterlimit="10"/>
<path d="M309.141 121.234L279.227 141.465" stroke="white" stroke-opacity="0.8" stroke-width="2" stroke-miterlimit="10"/>
<path d="M338.673 126.94L308.753 147.17" stroke="white" stroke-opacity="0.8" stroke-width="2" stroke-miterlimit="10"/>
<path d="M368.199 132.651L338.281 152.875" stroke="white" stroke-opacity="0.8" stroke-width="2" stroke-miterlimit="10"/>
<path d="M397.731 138.356L367.811 158.586" stroke="white" stroke-opacity="0.8" stroke-width="2" stroke-miterlimit="10"/>
<path d="M427.258 144.063L397.338 164.293" stroke="white" stroke-opacity="0.8" stroke-width="2" stroke-miterlimit="10"/>
<path d="M456.79 149.77L426.87 170" stroke="white" stroke-opacity="0.8" stroke-width="2" stroke-miterlimit="10"/>
<path d="M486.317 155.474L456.397 175.703" stroke="white" stroke-opacity="0.8" stroke-width="2" stroke-miterlimit="10"/>
<path d="M515.843 161.178L485.929 181.408" stroke="white" stroke-opacity="0.8" stroke-width="2" stroke-miterlimit="10"/>
<path d="M545.374 166.886L515.455 187.115" stroke="white" stroke-opacity="0.8" stroke-width="2" stroke-miterlimit="10"/>
<path d="M574.903 172.588L544.989 192.818" stroke="white" stroke-opacity="0.8" stroke-width="2" stroke-miterlimit="10"/>
<path d="M604.434 178.294L574.515 198.523" stroke="white" stroke-opacity="0.8" stroke-width="2" stroke-miterlimit="10"/>
<path d="M66.137 110.631L36.2231 130.861" stroke="white" stroke-opacity="0.8" stroke-width="2" stroke-miterlimit="10"/>
<path d="M95.6677 116.337L65.748 136.566" stroke="white" stroke-opacity="0.8" stroke-width="2" stroke-miterlimit="10"/>
<path d="M125.196 122.04L95.2758 142.269" stroke="white" stroke-opacity="0.8" stroke-width="2" stroke-miterlimit="10"/>
<path d="M154.728 127.743L124.808 147.973" stroke="white" stroke-opacity="0.8" stroke-width="2" stroke-miterlimit="10"/>
<path d="M184.254 133.452L154.334 153.682" stroke="white" stroke-opacity="0.8" stroke-width="2" stroke-miterlimit="10"/>
<path d="M213.786 139.157L183.867 159.387" stroke="white" stroke-opacity="0.8" stroke-width="2" stroke-miterlimit="10"/>
<path d="M243.314 144.86L213.394 165.09" stroke="white" stroke-opacity="0.8" stroke-width="2" stroke-miterlimit="10"/>
<path d="M272.84 150.566L242.926 170.797" stroke="white" stroke-opacity="0.8" stroke-width="2" stroke-miterlimit="10"/>
<path d="M302.372 156.272L272.452 176.502" stroke="white" stroke-opacity="0.8" stroke-width="2" stroke-miterlimit="10"/>
<path d="M331.899 161.978L301.985 182.209" stroke="white" stroke-opacity="0.8" stroke-width="2" stroke-miterlimit="10"/>
<path d="M361.431 167.686L331.511 187.916" stroke="white" stroke-opacity="0.8" stroke-width="2" stroke-miterlimit="10"/>
<path d="M390.958 173.39L361.039 193.619" stroke="white" stroke-opacity="0.8" stroke-width="2" stroke-miterlimit="10"/>
<path d="M420.49 179.095L390.571 199.324" stroke="white" stroke-opacity="0.8" stroke-width="2" stroke-miterlimit="10"/>
<path d="M450.017 184.798L420.098 205.027" stroke="white" stroke-opacity="0.8" stroke-width="2" stroke-miterlimit="10"/>
<path d="M479.55 190.503L449.63 210.732" stroke="white" stroke-opacity="0.8" stroke-width="2" stroke-miterlimit="10"/>
<path d="M509.076 196.21L479.156 216.439" stroke="white" stroke-opacity="0.8" stroke-width="2" stroke-miterlimit="10"/>
<path d="M538.609 201.917L508.689 222.146" stroke="white" stroke-opacity="0.8" stroke-width="2" stroke-miterlimit="10"/>
<path d="M568.136 207.62L538.217 227.85" stroke="white" stroke-opacity="0.8" stroke-width="2" stroke-miterlimit="10"/>
<path d="M597.662 213.324L567.748 233.555" stroke="white" stroke-opacity="0.8" stroke-width="2" stroke-miterlimit="10"/>
<path d="M59.3703 145.659L29.4506 165.889" stroke="white" stroke-opacity="0.8" stroke-width="2" stroke-miterlimit="10"/>
<path d="M88.8963 151.365L58.9823 171.596" stroke="white" stroke-opacity="0.8" stroke-width="2" stroke-miterlimit="10"/>
<path d="M118.429 157.069L88.5097 177.299" stroke="white" stroke-opacity="0.8" stroke-width="2" stroke-miterlimit="10"/>
<path d="M147.956 162.773L118.042 183.004" stroke="white" stroke-opacity="0.8" stroke-width="2" stroke-miterlimit="10"/>
<path d="M177.489 168.479L147.569 188.709" stroke="white" stroke-opacity="0.8" stroke-width="2" stroke-miterlimit="10"/>
<path d="M207.014 174.186L177.094 194.416" stroke="white" stroke-opacity="0.8" stroke-width="2" stroke-miterlimit="10"/>
<path d="M236.547 179.892L206.627 200.121" stroke="white" stroke-opacity="0.8" stroke-width="2" stroke-miterlimit="10"/>
<path d="M266.074 185.597L236.154 205.826" stroke="white" stroke-opacity="0.8" stroke-width="2" stroke-miterlimit="10"/>
<path d="M295.606 191.302L265.686 211.531" stroke="white" stroke-opacity="0.8" stroke-width="2" stroke-miterlimit="10"/>
<path d="M325.134 197.005L295.214 217.234" stroke="white" stroke-opacity="0.8" stroke-width="2" stroke-miterlimit="10"/>
<path d="M354.66 202.713L324.747 222.943" stroke="white" stroke-opacity="0.8" stroke-width="2" stroke-miterlimit="10"/>
<path d="M384.192 208.415L354.272 228.644" stroke="white" stroke-opacity="0.8" stroke-width="2" stroke-miterlimit="10"/>
<path d="M413.719 214.121L383.805 234.352" stroke="white" stroke-opacity="0.8" stroke-width="2" stroke-miterlimit="10"/>
<path d="M443.252 219.829L413.332 240.059" stroke="white" stroke-opacity="0.8" stroke-width="2" stroke-miterlimit="10"/>
<path d="M472.778 225.534L442.858 245.764" stroke="white" stroke-opacity="0.8" stroke-width="2" stroke-miterlimit="10"/>
<path d="M502.31 231.239L472.39 251.469" stroke="white" stroke-opacity="0.8" stroke-width="2" stroke-miterlimit="10"/>
<path d="M531.837 236.942L501.917 257.172" stroke="white" stroke-opacity="0.8" stroke-width="2" stroke-miterlimit="10"/>
<path d="M561.37 242.647L531.45 262.877" stroke="white" stroke-opacity="0.8" stroke-width="2" stroke-miterlimit="10"/>
<path d="M590.896 248.352L560.976 268.582" stroke="white" stroke-opacity="0.8" stroke-width="2" stroke-miterlimit="10"/>
<path d="M52.6033 180.688L22.6835 200.918" stroke="white" stroke-opacity="0.8" stroke-width="2" stroke-miterlimit="10"/>
<path d="M82.1311 186.392L52.2114 206.621" stroke="white" stroke-opacity="0.8" stroke-width="2" stroke-miterlimit="10"/>
<path d="M111.663 192.099L81.7436 212.328" stroke="white" stroke-opacity="0.8" stroke-width="2" stroke-miterlimit="10"/>
<path d="M141.19 197.804L111.27 218.033" stroke="white" stroke-opacity="0.8" stroke-width="2" stroke-miterlimit="10"/>
<path d="M170.717 203.508L140.803 223.738" stroke="white" stroke-opacity="0.8" stroke-width="2" stroke-miterlimit="10"/>
<path d="M200.249 209.212L170.329 229.441" stroke="white" stroke-opacity="0.8" stroke-width="2" stroke-miterlimit="10"/>
<path d="M229.775 214.918L199.861 235.148" stroke="white" stroke-opacity="0.8" stroke-width="2" stroke-miterlimit="10"/>
<path d="M259.308 220.626L229.389 240.855" stroke="white" stroke-opacity="0.8" stroke-width="2" stroke-miterlimit="10"/>
<path d="M288.835 226.329L258.915 246.559" stroke="white" stroke-opacity="0.8" stroke-width="2" stroke-miterlimit="10"/>
<path d="M318.367 232.036L288.447 252.266" stroke="white" stroke-opacity="0.8" stroke-width="2" stroke-miterlimit="10"/>
<path d="M347.893 237.739L317.974 257.969" stroke="white" stroke-opacity="0.8" stroke-width="2" stroke-miterlimit="10"/>
<path d="M377.427 243.446L347.507 263.676" stroke="white" stroke-opacity="0.8" stroke-width="2" stroke-miterlimit="10"/>
<path d="M406.953 249.149L377.033 269.379" stroke="white" stroke-opacity="0.8" stroke-width="2" stroke-miterlimit="10"/>
<path d="M436.481 254.855L406.567 275.086" stroke="white" stroke-opacity="0.8" stroke-width="2" stroke-miterlimit="10"/>
<path d="M466.013 260.563L436.094 280.793" stroke="white" stroke-opacity="0.8" stroke-width="2" stroke-miterlimit="10"/>
<path d="M495.539 266.268L465.625 286.498" stroke="white" stroke-opacity="0.8" stroke-width="2" stroke-miterlimit="10"/>
<path d="M525.071 271.97L495.151 292.199" stroke="white" stroke-opacity="0.8" stroke-width="2" stroke-miterlimit="10"/>
<path d="M554.597 277.677L524.678 297.906" stroke="white" stroke-opacity="0.8" stroke-width="2" stroke-miterlimit="10"/>
<path d="M584.131 283.384L554.211 303.613" stroke="white" stroke-opacity="0.8" stroke-width="2" stroke-miterlimit="10"/>
<path d="M45.8332 215.714L15.9135 235.943" stroke="white" stroke-opacity="0.8" stroke-width="2" stroke-miterlimit="10"/>
<path d="M75.3659 221.419L45.4462 241.648" stroke="white" stroke-opacity="0.8" stroke-width="2" stroke-miterlimit="10"/>
<path d="M104.893 227.124L74.9731 247.353" stroke="white" stroke-opacity="0.8" stroke-width="2" stroke-miterlimit="10"/>
<path d="M134.425 232.833L104.505 253.062" stroke="white" stroke-opacity="0.8" stroke-width="2" stroke-miterlimit="10"/>
<path d="M163.952 238.536L134.033 258.766" stroke="white" stroke-opacity="0.8" stroke-width="2" stroke-miterlimit="10"/>
<path d="M193.479 244.24L163.565 264.471" stroke="white" stroke-opacity="0.8" stroke-width="2" stroke-miterlimit="10"/>
<path d="M223.011 249.948L193.091 270.178" stroke="white" stroke-opacity="0.8" stroke-width="2" stroke-miterlimit="10"/>
<path d="M252.538 255.652L222.624 275.883" stroke="white" stroke-opacity="0.8" stroke-width="2" stroke-miterlimit="10"/>
<path d="M282.072 261.356L252.152 281.586" stroke="white" stroke-opacity="0.8" stroke-width="2" stroke-miterlimit="10"/>
<path d="M311.596 267.063L281.676 287.293" stroke="white" stroke-opacity="0.8" stroke-width="2" stroke-miterlimit="10"/>
<path d="M341.13 272.769L311.21 292.998" stroke="white" stroke-opacity="0.8" stroke-width="2" stroke-miterlimit="10"/>
<path d="M370.657 278.474L340.737 298.703" stroke="white" stroke-opacity="0.8" stroke-width="2" stroke-miterlimit="10"/>
<path d="M400.189 284.179L370.269 304.408" stroke="white" stroke-opacity="0.8" stroke-width="2" stroke-miterlimit="10"/>
<path d="M429.715 289.884L399.795 310.113" stroke="white" stroke-opacity="0.8" stroke-width="2" stroke-miterlimit="10"/>
<path d="M459.247 295.591L429.328 315.82" stroke="white" stroke-opacity="0.8" stroke-width="2" stroke-miterlimit="10"/>
<path d="M488.773 301.294L458.853 321.523" stroke="white" stroke-opacity="0.8" stroke-width="2" stroke-miterlimit="10"/>
<path d="M518.301 306.998L488.387 327.228" stroke="white" stroke-opacity="0.8" stroke-width="2" stroke-miterlimit="10"/>
<path d="M547.833 312.706L517.913 332.935" stroke="white" stroke-opacity="0.8" stroke-width="2" stroke-miterlimit="10"/>
<path d="M577.361 318.412L547.447 338.643" stroke="white" stroke-opacity="0.8" stroke-width="2" stroke-miterlimit="10"/>
<path d="M39.0676 250.745L9.14788 270.975" stroke="white" stroke-opacity="0.8" stroke-width="2" stroke-miterlimit="10"/>
<path d="M68.5945 256.453L38.6806 276.684" stroke="white" stroke-opacity="0.8" stroke-width="2" stroke-miterlimit="10"/>
<path d="M98.1267 262.157L68.207 282.387" stroke="white" stroke-opacity="0.8" stroke-width="2" stroke-miterlimit="10"/>
<path d="M127.654 267.86L97.7343 288.09" stroke="white" stroke-opacity="0.8" stroke-width="2" stroke-miterlimit="10"/>
<path d="M157.186 273.563L127.266 293.793" stroke="white" stroke-opacity="0.8" stroke-width="2" stroke-miterlimit="10"/>
<path d="M186.712 279.27L156.792 299.5" stroke="white" stroke-opacity="0.8" stroke-width="2" stroke-miterlimit="10"/>
<path d="M216.245 284.976L186.325 305.205" stroke="white" stroke-opacity="0.8" stroke-width="2" stroke-miterlimit="10"/>
<path d="M245.772 290.683L215.852 310.912" stroke="white" stroke-opacity="0.8" stroke-width="2" stroke-miterlimit="10"/>
<path d="M275.299 296.387L245.385 316.617" stroke="white" stroke-opacity="0.8" stroke-width="2" stroke-miterlimit="10"/>
<path d="M304.829 302.093L274.91 322.322" stroke="white" stroke-opacity="0.8" stroke-width="2" stroke-miterlimit="10"/>
<path d="M334.357 307.797L304.443 328.027" stroke="white" stroke-opacity="0.8" stroke-width="2" stroke-miterlimit="10"/>
<path d="M363.89 313.503L333.97 333.732" stroke="white" stroke-opacity="0.8" stroke-width="2" stroke-miterlimit="10"/>
<path d="M393.416 319.208L363.496 339.437" stroke="white" stroke-opacity="0.8" stroke-width="2" stroke-miterlimit="10"/>
<path d="M422.949 324.913L393.03 345.143" stroke="white" stroke-opacity="0.8" stroke-width="2" stroke-miterlimit="10"/>
<path d="M452.476 330.62L422.556 350.85" stroke="white" stroke-opacity="0.8" stroke-width="2" stroke-miterlimit="10"/>
<path d="M482.008 336.325L452.088 356.555" stroke="white" stroke-opacity="0.8" stroke-width="2" stroke-miterlimit="10"/>
<path d="M511.534 342.028L481.614 362.258" stroke="white" stroke-opacity="0.8" stroke-width="2" stroke-miterlimit="10"/>
<path d="M541.059 347.74L511.146 367.965" stroke="white" stroke-opacity="0.8" stroke-width="2" stroke-miterlimit="10"/>
<path d="M570.593 353.444L540.673 373.674" stroke="white" stroke-opacity="0.8" stroke-width="2" stroke-miterlimit="10"/>
<path d="M32.2952 285.773L2.38128 306.004" stroke="white" stroke-opacity="0.8" stroke-width="2" stroke-miterlimit="10"/>
<path d="M61.8284 291.481L31.9086 311.711" stroke="white" stroke-opacity="0.8" stroke-width="2" stroke-miterlimit="10"/>
<path d="M91.3543 297.184L61.4404 317.414" stroke="white" stroke-opacity="0.8" stroke-width="2" stroke-miterlimit="10"/>
<path d="M120.887 302.89L90.9677 323.119" stroke="white" stroke-opacity="0.8" stroke-width="2" stroke-miterlimit="10"/>
<path d="M150.413 308.596L120.499 328.826" stroke="white" stroke-opacity="0.8" stroke-width="2" stroke-miterlimit="10"/>
<path d="M179.946 314.3L150.026 334.529" stroke="white" stroke-opacity="0.8" stroke-width="2" stroke-miterlimit="10"/>
<path d="M209.47 320.011L179.552 340.234" stroke="white" stroke-opacity="0.8" stroke-width="2" stroke-miterlimit="10"/>
<path d="M239.005 325.716L209.085 345.945" stroke="white" stroke-opacity="0.8" stroke-width="2" stroke-miterlimit="10"/>
<path d="M268.53 331.421L238.61 351.65" stroke="white" stroke-opacity="0.8" stroke-width="2" stroke-miterlimit="10"/>
<path d="M298.063 337.128L268.143 357.357" stroke="white" stroke-opacity="0.8" stroke-width="2" stroke-miterlimit="10"/>
<path d="M327.59 342.833L297.67 363.063" stroke="white" stroke-opacity="0.8" stroke-width="2" stroke-miterlimit="10"/>
<path d="M357.116 348.537L327.203 368.768" stroke="white" stroke-opacity="0.8" stroke-width="2" stroke-miterlimit="10"/>
<path d="M475.235 371.358L445.315 391.588" stroke="white" stroke-opacity="0.8" stroke-width="2" stroke-miterlimit="10"/>
<path d="M504.767 377.063L474.847 397.293" stroke="white" stroke-opacity="0.8" stroke-width="2" stroke-miterlimit="10"/>
<path d="M534.294 382.769L504.374 402.998" stroke="white" stroke-opacity="0.8" stroke-width="2" stroke-miterlimit="10"/>
<path d="M563.825 388.477L533.906 408.707" stroke="white" stroke-opacity="0.8" stroke-width="2" stroke-miterlimit="10"/>
</svg>

