<svg width="969" height="773" viewBox="0 0 969 773" fill="none" xmlns="http://www.w3.org/2000/svg">
<path d="M238.698 29.2852L241.69 45.2404L225.934 46.2355" stroke="white" stroke-width="1.5" stroke-miterlimit="10"/>
<path d="M258.005 44.6523L260.997 60.6076L245.241 61.6027" stroke="white" stroke-width="1.5" stroke-miterlimit="10"/>
<path d="M276.932 60.6738L279.592 76.7098L263.835 77.3526" stroke="white" stroke-width="1.5" stroke-miterlimit="10"/>
<path d="M295.878 76.5117L298.538 92.5477L282.779 93.1883" stroke="white" stroke-width="1.5" stroke-miterlimit="10"/>
<path d="M314.471 92.6094L317.466 108.567L301.706 109.56" stroke="white" stroke-width="1.5" stroke-miterlimit="10"/>
<path d="M333.777 107.98L336.772 123.938L321.013 124.931" stroke="white" stroke-width="1.5" stroke-miterlimit="10"/>
<path d="M352.705 124.006L355.365 140.042L339.609 140.685" stroke="white" stroke-width="1.5" stroke-miterlimit="10"/>
<path d="M371.65 139.838L374.313 155.871L358.554 156.517" stroke="white" stroke-width="1.5" stroke-miterlimit="10"/>
<path d="M390.246 155.941L393.238 171.897L377.479 172.89" stroke="white" stroke-width="1.5" stroke-miterlimit="10"/>
<path d="M409.553 171.311L412.545 187.266L396.786 188.259" stroke="white" stroke-width="1.5" stroke-miterlimit="10"/>
<path d="M428.481 187.336L431.144 203.369L415.385 204.01" stroke="white" stroke-width="1.5" stroke-miterlimit="10"/>
<path d="M447.425 203.164L450.085 219.2L434.329 219.843" stroke="white" stroke-width="1.5" stroke-miterlimit="10"/>
<path d="M466.02 219.27L469.014 235.222L453.255 236.22" stroke="white" stroke-width="1.5" stroke-miterlimit="10"/>
<path d="M485.327 234.641L488.322 250.593L472.563 251.591" stroke="white" stroke-width="1.5" stroke-miterlimit="10"/>
<path d="M504.256 250.66L506.916 266.696L491.16 267.339" stroke="white" stroke-width="1.5" stroke-miterlimit="10"/>
<path d="M522.851 266.766L525.845 282.718L510.086 283.711" stroke="white" stroke-width="1.5" stroke-miterlimit="10"/>
<path d="M542.155 282.137L545.15 298.089L529.391 299.082" stroke="white" stroke-width="1.5" stroke-miterlimit="10"/>
<path d="M219.995 53.1016L222.99 69.054L207.233 70.0491" stroke="white" stroke-width="1.5" stroke-miterlimit="10"/>
<path d="M239.303 68.4707L242.298 84.4232L226.541 85.4183" stroke="white" stroke-width="1.5" stroke-miterlimit="10"/>
<path d="M258.232 84.4902L260.892 100.526L245.136 101.169" stroke="white" stroke-width="1.5" stroke-miterlimit="10"/>
<path d="M277.175 100.324L279.835 116.36L264.079 117.003" stroke="white" stroke-width="1.5" stroke-miterlimit="10"/>
<path d="M295.771 116.428L298.763 132.383L283.006 133.378" stroke="white" stroke-width="1.5" stroke-miterlimit="10"/>
<path d="M315.077 131.797L318.069 147.752L302.313 148.747" stroke="white" stroke-width="1.5" stroke-miterlimit="10"/>
<path d="M334.006 147.818L336.666 163.854L320.91 164.497" stroke="white" stroke-width="1.5" stroke-miterlimit="10"/>
<path d="M352.951 163.652L355.612 179.688L339.852 180.329" stroke="white" stroke-width="1.5" stroke-miterlimit="10"/>
<path d="M371.544 179.754L374.539 195.711L358.78 196.704" stroke="white" stroke-width="1.5" stroke-miterlimit="10"/>
<path d="M390.85 195.127L393.844 211.084L378.085 212.077" stroke="white" stroke-width="1.5" stroke-miterlimit="10"/>
<path d="M409.778 211.148L412.441 227.182L396.682 227.827" stroke="white" stroke-width="1.5" stroke-miterlimit="10"/>
<path d="M428.725 226.98L431.387 243.014L415.631 243.656" stroke="white" stroke-width="1.5" stroke-miterlimit="10"/>
<path d="M447.318 243.084L450.311 259.039L434.552 260.032" stroke="white" stroke-width="1.5" stroke-miterlimit="10"/>
<path d="M466.625 258.455L469.617 274.41L453.858 275.403" stroke="white" stroke-width="1.5" stroke-miterlimit="10"/>
<path d="M485.556 274.475L488.216 290.511L472.457 291.151" stroke="white" stroke-width="1.5" stroke-miterlimit="10"/>
<path d="M504.146 290.578L507.144 306.533L491.382 307.528" stroke="white" stroke-width="1.5" stroke-miterlimit="10"/>
<path d="M523.453 305.949L526.45 321.904L510.689 322.9" stroke="white" stroke-width="1.5" stroke-miterlimit="10"/>
<path d="M201.296 76.9199L204.291 92.8724L188.532 93.8703" stroke="white" stroke-width="1.5" stroke-miterlimit="10"/>
<path d="M220.604 92.2891L223.599 108.242L207.84 109.239" stroke="white" stroke-width="1.5" stroke-miterlimit="10"/>
<path d="M239.534 108.309L242.194 124.345L226.437 124.987" stroke="white" stroke-width="1.5" stroke-miterlimit="10"/>
<path d="M258.477 124.141L261.137 140.177L245.381 140.819" stroke="white" stroke-width="1.5" stroke-miterlimit="10"/>
<path d="M277.069 140.248L280.064 156.201L264.307 157.196" stroke="white" stroke-width="1.5" stroke-miterlimit="10"/>
<path d="M296.377 155.617L299.371 171.57L283.615 172.565" stroke="white" stroke-width="1.5" stroke-miterlimit="10"/>
<path d="M315.307 171.637L317.967 187.673L302.21 188.315" stroke="white" stroke-width="1.5" stroke-miterlimit="10"/>
<path d="M334.248 187.469L336.908 203.505L321.152 204.148" stroke="white" stroke-width="1.5" stroke-miterlimit="10"/>
<path d="M352.845 203.572L355.837 219.528L340.08 220.523" stroke="white" stroke-width="1.5" stroke-miterlimit="10"/>
<path d="M372.151 218.943L375.144 234.899L359.387 235.894" stroke="white" stroke-width="1.5" stroke-miterlimit="10"/>
<path d="M391.08 234.965L393.74 251.001L377.984 251.644" stroke="white" stroke-width="1.5" stroke-miterlimit="10"/>
<path d="M410.025 250.799L412.686 266.835L396.927 267.475" stroke="white" stroke-width="1.5" stroke-miterlimit="10"/>
<path d="M428.618 266.9L431.613 282.858L415.854 283.851" stroke="white" stroke-width="1.5" stroke-miterlimit="10"/>
<path d="M447.925 282.27L450.92 298.227L435.161 299.22" stroke="white" stroke-width="1.5" stroke-miterlimit="10"/>
<path d="M466.854 298.293L469.516 314.326L453.757 314.972" stroke="white" stroke-width="1.5" stroke-miterlimit="10"/>
<path d="M485.447 314.396L488.44 330.352L472.683 331.347" stroke="white" stroke-width="1.5" stroke-miterlimit="10"/>
<path d="M504.754 329.768L507.746 345.723L491.99 346.718" stroke="white" stroke-width="1.5" stroke-miterlimit="10"/>
<path d="M182.597 100.729L185.589 116.684L169.833 117.679" stroke="white" stroke-width="1.5" stroke-miterlimit="10"/>
<path d="M201.905 116.098L204.898 132.053L189.141 133.048" stroke="white" stroke-width="1.5" stroke-miterlimit="10"/>
<path d="M220.834 132.117L223.495 148.153L207.738 148.796" stroke="white" stroke-width="1.5" stroke-miterlimit="10"/>
<path d="M239.778 147.949L242.438 163.985L226.682 164.628" stroke="white" stroke-width="1.5" stroke-miterlimit="10"/>
<path d="M258.37 164.057L261.365 180.009L245.606 181.007" stroke="white" stroke-width="1.5" stroke-miterlimit="10"/>
<path d="M277.677 179.426L280.672 195.378L264.915 196.373" stroke="white" stroke-width="1.5" stroke-miterlimit="10"/>
<path d="M296.607 195.445L299.268 211.481L283.511 212.124" stroke="white" stroke-width="1.5" stroke-miterlimit="10"/>
<path d="M315.549 211.277L318.209 227.313L302.453 227.956" stroke="white" stroke-width="1.5" stroke-miterlimit="10"/>
<path d="M334.145 227.383L337.139 243.335L321.383 244.33" stroke="white" stroke-width="1.5" stroke-miterlimit="10"/>
<path d="M353.45 242.752L356.445 258.704L340.688 259.7" stroke="white" stroke-width="1.5" stroke-miterlimit="10"/>
<path d="M372.381 258.773L375.041 274.809L359.285 275.452" stroke="white" stroke-width="1.5" stroke-miterlimit="10"/>
<path d="M391.323 274.605L393.984 290.641L378.227 291.284" stroke="white" stroke-width="1.5" stroke-miterlimit="10"/>
<path d="M409.919 290.709L412.911 306.664L397.155 307.659" stroke="white" stroke-width="1.5" stroke-miterlimit="10"/>
<path d="M429.227 306.078L432.219 322.033L416.462 323.029" stroke="white" stroke-width="1.5" stroke-miterlimit="10"/>
<path d="M448.154 322.102L450.815 338.138L435.058 338.78" stroke="white" stroke-width="1.5" stroke-miterlimit="10"/>
<path d="M466.748 338.205L469.74 354.16L453.984 355.155" stroke="white" stroke-width="1.5" stroke-miterlimit="10"/>
<path d="M486.055 353.576L489.047 369.531L473.29 370.527" stroke="white" stroke-width="1.5" stroke-miterlimit="10"/>
<path d="M163.897 124.545L166.89 140.5L151.133 141.495" stroke="white" stroke-width="1.5" stroke-miterlimit="10"/>
<path d="M183.206 139.914L186.198 155.869L170.441 156.864" stroke="white" stroke-width="1.5" stroke-miterlimit="10"/>
<path d="M202.132 155.938L204.794 171.971L189.036 172.616" stroke="white" stroke-width="1.5" stroke-miterlimit="10"/>
<path d="M221.075 171.77L223.738 187.803L207.981 188.445" stroke="white" stroke-width="1.5" stroke-miterlimit="10"/>
<path d="M239.67 187.873L242.663 203.828L226.906 204.823" stroke="white" stroke-width="1.5" stroke-miterlimit="10"/>
<path d="M258.978 203.242L261.97 219.197L246.213 220.193" stroke="white" stroke-width="1.5" stroke-miterlimit="10"/>
<path d="M277.908 219.262L280.569 235.298L264.812 235.94" stroke="white" stroke-width="1.5" stroke-miterlimit="10"/>
<path d="M296.85 235.094L299.51 251.13L283.753 251.773" stroke="white" stroke-width="1.5" stroke-miterlimit="10"/>
<path d="M315.444 251.199L318.439 267.152L302.68 268.15" stroke="white" stroke-width="1.5" stroke-miterlimit="10"/>
<path d="M334.751 266.568L337.746 282.521L321.989 283.516" stroke="white" stroke-width="1.5" stroke-miterlimit="10"/>
<path d="M353.681 282.59L356.341 298.626L340.584 299.269" stroke="white" stroke-width="1.5" stroke-miterlimit="10"/>
<path d="M372.623 298.422L375.283 314.458L359.527 315.101" stroke="white" stroke-width="1.5" stroke-miterlimit="10"/>
<path d="M391.216 314.529L394.21 330.482L378.454 331.477" stroke="white" stroke-width="1.5" stroke-miterlimit="10"/>
<path d="M410.521 329.898L413.516 345.851L397.76 346.846" stroke="white" stroke-width="1.5" stroke-miterlimit="10"/>
<path d="M429.454 345.918L432.114 361.954L416.358 362.597" stroke="white" stroke-width="1.5" stroke-miterlimit="10"/>
<path d="M448.049 362.021L451.041 377.977L435.285 378.972" stroke="white" stroke-width="1.5" stroke-miterlimit="10"/>
<path d="M467.354 377.393L470.347 393.348L454.59 394.343" stroke="white" stroke-width="1.5" stroke-miterlimit="10"/>
<path d="M145.199 148.359L148.191 164.315L132.434 165.31" stroke="white" stroke-width="1.5" stroke-miterlimit="10"/>
<path d="M164.506 163.729L167.498 179.684L151.742 180.679" stroke="white" stroke-width="1.5" stroke-miterlimit="10"/>
<path d="M183.433 179.75L186.093 195.786L170.337 196.429" stroke="white" stroke-width="1.5" stroke-miterlimit="10"/>
<path d="M202.375 195.582L205.035 211.618L189.278 212.261" stroke="white" stroke-width="1.5" stroke-miterlimit="10"/>
<path d="M220.971 211.688L223.963 227.643L208.206 228.638" stroke="white" stroke-width="1.5" stroke-miterlimit="10"/>
<path d="M240.278 227.055L243.27 243.01L227.514 244.005" stroke="white" stroke-width="1.5" stroke-miterlimit="10"/>
<path d="M259.206 243.076L261.868 259.109L246.112 259.752" stroke="white" stroke-width="1.5" stroke-miterlimit="10"/>
<path d="M278.147 258.91L280.81 274.943L265.054 275.586" stroke="white" stroke-width="1.5" stroke-miterlimit="10"/>
<path d="M296.743 275.012L299.735 290.967L283.979 291.962" stroke="white" stroke-width="1.5" stroke-miterlimit="10"/>
<path d="M316.05 290.383L319.042 306.338L303.286 307.333" stroke="white" stroke-width="1.5" stroke-miterlimit="10"/>
<path d="M334.98 306.404L337.641 322.44L321.884 323.083" stroke="white" stroke-width="1.5" stroke-miterlimit="10"/>
<path d="M353.924 322.234L356.584 338.27L340.828 338.913" stroke="white" stroke-width="1.5" stroke-miterlimit="10"/>
<path d="M372.518 338.342L375.512 354.294L359.756 355.289" stroke="white" stroke-width="1.5" stroke-miterlimit="10"/>
<path d="M391.824 353.711L394.819 369.663L379.062 370.658" stroke="white" stroke-width="1.5" stroke-miterlimit="10"/>
<path d="M410.753 369.73L413.413 385.766L397.657 386.409" stroke="white" stroke-width="1.5" stroke-miterlimit="10"/>
<path d="M429.346 385.838L432.34 401.79L416.584 402.785" stroke="white" stroke-width="1.5" stroke-miterlimit="10"/>
<path d="M448.653 401.209L451.648 417.161L435.891 418.157" stroke="white" stroke-width="1.5" stroke-miterlimit="10"/>
<path d="M126.497 172.174L129.492 188.126L113.735 189.121" stroke="white" stroke-width="1.5" stroke-miterlimit="10"/>
<path d="M145.805 187.543L148.8 203.495L133.043 204.491" stroke="white" stroke-width="1.5" stroke-miterlimit="10"/>
<path d="M164.734 203.562L167.395 219.598L151.636 220.239" stroke="white" stroke-width="1.5" stroke-miterlimit="10"/>
<path d="M183.677 219.395L186.337 235.43L170.581 236.073" stroke="white" stroke-width="1.5" stroke-miterlimit="10"/>
<path d="M202.272 235.498L205.265 251.453L189.508 252.448" stroke="white" stroke-width="1.5" stroke-miterlimit="10"/>
<path d="M221.579 250.867L224.571 266.822L208.815 267.818" stroke="white" stroke-width="1.5" stroke-miterlimit="10"/>
<path d="M240.508 266.891L243.168 282.927L227.412 283.569" stroke="white" stroke-width="1.5" stroke-miterlimit="10"/>
<path d="M259.449 282.723L262.11 298.759L246.353 299.401" stroke="white" stroke-width="1.5" stroke-miterlimit="10"/>
<path d="M278.045 298.826L281.038 314.781L265.281 315.777" stroke="white" stroke-width="1.5" stroke-miterlimit="10"/>
<path d="M297.353 314.197L300.345 330.153L284.588 331.148" stroke="white" stroke-width="1.5" stroke-miterlimit="10"/>
<path d="M316.28 330.219L318.943 346.252L303.186 346.895" stroke="white" stroke-width="1.5" stroke-miterlimit="10"/>
<path d="M335.223 346.051L337.885 362.084L322.129 362.727" stroke="white" stroke-width="1.5" stroke-miterlimit="10"/>
<path d="M353.819 362.154L356.812 378.11L341.055 379.105" stroke="white" stroke-width="1.5" stroke-miterlimit="10"/>
<path d="M373.127 377.523L376.121 393.476L360.363 394.474" stroke="white" stroke-width="1.5" stroke-miterlimit="10"/>
<path d="M392.055 393.545L394.715 409.581L378.958 410.224" stroke="white" stroke-width="1.5" stroke-miterlimit="10"/>
<path d="M410.648 409.65L413.643 425.603L397.884 426.601" stroke="white" stroke-width="1.5" stroke-miterlimit="10"/>
<path d="M429.954 425.021L432.949 440.974L417.192 441.969" stroke="white" stroke-width="1.5" stroke-miterlimit="10"/>
<path d="M107.798 195.988L110.792 211.941L95.0333 212.934" stroke="white" stroke-width="1.5" stroke-miterlimit="10"/>
<path d="M127.105 211.357L130.1 227.31L114.34 228.303" stroke="white" stroke-width="1.5" stroke-miterlimit="10"/>
<path d="M146.032 227.375L148.692 243.411L132.936 244.054" stroke="white" stroke-width="1.5" stroke-miterlimit="10"/>
<path d="M164.978 243.209L167.638 259.245L151.881 259.888" stroke="white" stroke-width="1.5" stroke-miterlimit="10"/>
<path d="M183.57 259.314L186.564 275.267L170.808 276.262" stroke="white" stroke-width="1.5" stroke-miterlimit="10"/>
<path d="M202.88 274.682L205.872 290.637L190.116 291.632" stroke="white" stroke-width="1.5" stroke-miterlimit="10"/>
<path d="M221.807 290.705L224.468 306.741L208.708 307.382" stroke="white" stroke-width="1.5" stroke-miterlimit="10"/>
<path d="M240.75 306.537L243.41 322.573L227.653 323.216" stroke="white" stroke-width="1.5" stroke-miterlimit="10"/>
<path d="M259.346 322.641L262.338 338.596L246.582 339.591" stroke="white" stroke-width="1.5" stroke-miterlimit="10"/>
<path d="M278.653 338.012L281.645 353.967L265.889 354.962" stroke="white" stroke-width="1.5" stroke-miterlimit="10"/>
<path d="M297.579 354.031L300.239 370.067L284.483 370.71" stroke="white" stroke-width="1.5" stroke-miterlimit="10"/>
<path d="M316.521 369.865L319.182 385.901L303.425 386.544" stroke="white" stroke-width="1.5" stroke-miterlimit="10"/>
<path d="M335.117 385.969L338.109 401.924L322.353 402.919" stroke="white" stroke-width="1.5" stroke-miterlimit="10"/>
<path d="M354.424 401.338L357.416 417.293L341.66 418.288" stroke="white" stroke-width="1.5" stroke-miterlimit="10"/>
<path d="M373.353 417.361L376.015 433.394L360.259 434.037" stroke="white" stroke-width="1.5" stroke-miterlimit="10"/>
<path d="M391.949 433.465L394.941 449.42L379.185 450.415" stroke="white" stroke-width="1.5" stroke-miterlimit="10"/>
<path d="M411.254 448.834L414.246 464.789L398.49 465.784" stroke="white" stroke-width="1.5" stroke-miterlimit="10"/>
<path d="M561.858 299.254L564.851 315.209L549.094 316.204" stroke="white" stroke-width="1.5" stroke-miterlimit="10"/>
<path d="M581.164 314.623L584.156 330.578L568.4 331.573" stroke="white" stroke-width="1.5" stroke-miterlimit="10"/>
<path d="M600.093 330.645L602.753 346.68L586.997 347.323" stroke="white" stroke-width="1.5" stroke-miterlimit="10"/>
<path d="M619.038 346.48L621.698 362.516L605.939 363.157" stroke="white" stroke-width="1.5" stroke-miterlimit="10"/>
<path d="M637.631 362.58L640.626 378.538L624.867 379.53" stroke="white" stroke-width="1.5" stroke-miterlimit="10"/>
<path d="M656.938 377.949L659.933 393.907L644.174 394.9" stroke="white" stroke-width="1.5" stroke-miterlimit="10"/>
<path d="M675.865 393.975L678.526 410.011L662.769 410.653" stroke="white" stroke-width="1.5" stroke-miterlimit="10"/>
<path d="M694.812 409.807L697.474 425.84L681.715 426.485" stroke="white" stroke-width="1.5" stroke-miterlimit="10"/>
<path d="M713.407 425.91L716.399 441.865L700.64 442.858" stroke="white" stroke-width="1.5" stroke-miterlimit="10"/>
<path d="M732.713 441.279L735.705 457.235L719.946 458.227" stroke="white" stroke-width="1.5" stroke-miterlimit="10"/>
<path d="M751.641 457.303L754.303 473.336L738.544 473.976" stroke="white" stroke-width="1.5" stroke-miterlimit="10"/>
<path d="M770.586 473.135L773.246 489.171L757.49 489.814" stroke="white" stroke-width="1.5" stroke-miterlimit="10"/>
<path d="M789.179 489.24L792.173 505.193L776.414 506.191" stroke="white" stroke-width="1.5" stroke-miterlimit="10"/>
<path d="M808.486 504.607L811.481 520.56L795.722 521.558" stroke="white" stroke-width="1.5" stroke-miterlimit="10"/>
<path d="M827.414 520.629L830.074 536.665L814.318 537.308" stroke="white" stroke-width="1.5" stroke-miterlimit="10"/>
<path d="M846.009 536.734L849.003 552.687L833.244 553.68" stroke="white" stroke-width="1.5" stroke-miterlimit="10"/>
<path d="M865.315 552.105L868.31 568.058L852.551 569.051" stroke="white" stroke-width="1.5" stroke-miterlimit="10"/>
<path d="M543.156 323.072L546.151 339.025L530.394 340.02" stroke="white" stroke-width="1.5" stroke-miterlimit="10"/>
<path d="M562.464 338.441L565.458 354.394L549.702 355.389" stroke="white" stroke-width="1.5" stroke-miterlimit="10"/>
<path d="M581.393 354.461L584.053 370.497L568.296 371.14" stroke="white" stroke-width="1.5" stroke-miterlimit="10"/>
<path d="M600.336 370.291L602.996 386.327L587.24 386.97" stroke="white" stroke-width="1.5" stroke-miterlimit="10"/>
<path d="M618.933 386.396L621.925 402.352L606.168 403.347" stroke="white" stroke-width="1.5" stroke-miterlimit="10"/>
<path d="M638.238 401.764L641.231 417.719L625.474 418.714" stroke="white" stroke-width="1.5" stroke-miterlimit="10"/>
<path d="M657.165 417.787L659.825 433.823L644.069 434.466" stroke="white" stroke-width="1.5" stroke-miterlimit="10"/>
<path d="M676.113 433.621L678.774 449.657L663.014 450.298" stroke="white" stroke-width="1.5" stroke-miterlimit="10"/>
<path d="M694.705 449.725L697.7 465.682L681.941 466.675" stroke="white" stroke-width="1.5" stroke-miterlimit="10"/>
<path d="M714.012 465.094L717.007 481.051L701.247 482.044" stroke="white" stroke-width="1.5" stroke-miterlimit="10"/>
<path d="M732.939 481.117L735.602 497.15L719.843 497.796" stroke="white" stroke-width="1.5" stroke-miterlimit="10"/>
<path d="M751.884 496.951L754.546 512.984L738.79 513.627" stroke="white" stroke-width="1.5" stroke-miterlimit="10"/>
<path d="M770.479 513.055L773.472 529.01L757.713 530.003" stroke="white" stroke-width="1.5" stroke-miterlimit="10"/>
<path d="M789.786 528.424L792.778 544.379L777.019 545.372" stroke="white" stroke-width="1.5" stroke-miterlimit="10"/>
<path d="M808.717 544.443L811.377 560.479L795.618 561.12" stroke="white" stroke-width="1.5" stroke-miterlimit="10"/>
<path d="M827.308 560.549L830.305 576.504L814.543 577.499" stroke="white" stroke-width="1.5" stroke-miterlimit="10"/>
<path d="M846.614 575.918L849.611 591.873L833.85 592.868" stroke="white" stroke-width="1.5" stroke-miterlimit="10"/>
<path d="M524.46 346.881L527.454 362.833L511.696 363.831" stroke="white" stroke-width="1.5" stroke-miterlimit="10"/>
<path d="M543.768 362.25L546.762 378.202L531.003 379.2" stroke="white" stroke-width="1.5" stroke-miterlimit="10"/>
<path d="M562.696 378.27L565.357 394.305L549.6 394.948" stroke="white" stroke-width="1.5" stroke-miterlimit="10"/>
<path d="M581.64 394.104L584.3 410.139L568.543 410.782" stroke="white" stroke-width="1.5" stroke-miterlimit="10"/>
<path d="M600.232 410.209L603.227 426.161L587.47 427.157" stroke="white" stroke-width="1.5" stroke-miterlimit="10"/>
<path d="M619.539 425.58L622.534 441.533L606.777 442.528" stroke="white" stroke-width="1.5" stroke-miterlimit="10"/>
<path d="M638.469 441.598L641.129 457.634L625.373 458.276" stroke="white" stroke-width="1.5" stroke-miterlimit="10"/>
<path d="M657.413 457.43L660.073 473.466L644.317 474.108" stroke="white" stroke-width="1.5" stroke-miterlimit="10"/>
<path d="M676.008 473.533L679 489.488L663.244 490.484" stroke="white" stroke-width="1.5" stroke-miterlimit="10"/>
<path d="M695.313 488.906L698.306 504.862L682.549 505.857" stroke="white" stroke-width="1.5" stroke-miterlimit="10"/>
<path d="M714.242 504.928L716.903 520.964L701.146 521.607" stroke="white" stroke-width="1.5" stroke-miterlimit="10"/>
<path d="M733.187 520.76L735.847 536.796L720.088 537.436" stroke="white" stroke-width="1.5" stroke-miterlimit="10"/>
<path d="M751.781 536.863L754.776 552.821L739.017 553.814" stroke="white" stroke-width="1.5" stroke-miterlimit="10"/>
<path d="M771.088 552.23L774.083 568.188L758.324 569.181" stroke="white" stroke-width="1.5" stroke-miterlimit="10"/>
<path d="M790.017 568.256L792.679 584.289L776.92 584.935" stroke="white" stroke-width="1.5" stroke-miterlimit="10"/>
<path d="M808.61 584.357L811.603 600.313L795.846 601.308" stroke="white" stroke-width="1.5" stroke-miterlimit="10"/>
<path d="M827.918 599.729L830.91 615.684L815.154 616.679" stroke="white" stroke-width="1.5" stroke-miterlimit="10"/>
<path d="M505.757 370.697L508.749 386.653L492.993 387.648" stroke="white" stroke-width="1.5" stroke-miterlimit="10"/>
<path d="M525.064 386.066L528.057 402.022L512.3 403.017" stroke="white" stroke-width="1.5" stroke-miterlimit="10"/>
<path d="M543.994 402.086L546.655 418.122L530.898 418.765" stroke="white" stroke-width="1.5" stroke-miterlimit="10"/>
<path d="M562.938 417.918L565.598 433.954L549.841 434.597" stroke="white" stroke-width="1.5" stroke-miterlimit="10"/>
<path d="M581.531 434.023L584.526 449.976L568.767 450.974" stroke="white" stroke-width="1.5" stroke-miterlimit="10"/>
<path d="M600.838 449.395L603.832 465.347L588.076 466.342" stroke="white" stroke-width="1.5" stroke-miterlimit="10"/>
<path d="M619.769 465.414L622.429 481.45L606.672 482.093" stroke="white" stroke-width="1.5" stroke-miterlimit="10"/>
<path d="M638.71 481.246L641.37 497.282L625.614 497.925" stroke="white" stroke-width="1.5" stroke-miterlimit="10"/>
<path d="M657.302 497.352L660.296 513.304L644.54 514.299" stroke="white" stroke-width="1.5" stroke-miterlimit="10"/>
<path d="M676.61 512.721L679.605 528.673L663.848 529.668" stroke="white" stroke-width="1.5" stroke-miterlimit="10"/>
<path d="M695.54 528.742L698.2 544.778L682.444 545.421" stroke="white" stroke-width="1.5" stroke-miterlimit="10"/>
<path d="M714.482 544.574L717.143 560.61L701.386 561.253" stroke="white" stroke-width="1.5" stroke-miterlimit="10"/>
<path d="M733.079 560.678L736.071 576.633L720.315 577.628" stroke="white" stroke-width="1.5" stroke-miterlimit="10"/>
<path d="M752.386 576.045L755.378 592L739.622 592.995" stroke="white" stroke-width="1.5" stroke-miterlimit="10"/>
<path d="M771.312 592.07L773.973 608.106L758.216 608.749" stroke="white" stroke-width="1.5" stroke-miterlimit="10"/>
<path d="M789.909 608.174L792.901 624.129L777.145 625.124" stroke="white" stroke-width="1.5" stroke-miterlimit="10"/>
<path d="M809.215 623.543L812.207 639.498L796.451 640.493" stroke="white" stroke-width="1.5" stroke-miterlimit="10"/>
<path d="M487.058 394.516L490.05 410.471L474.293 411.466" stroke="white" stroke-width="1.5" stroke-miterlimit="10"/>
<path d="M506.365 409.885L509.358 425.84L493.601 426.835" stroke="white" stroke-width="1.5" stroke-miterlimit="10"/>
<path d="M525.292 425.906L527.955 441.939L512.196 442.585" stroke="white" stroke-width="1.5" stroke-miterlimit="10"/>
<path d="M544.236 441.738L546.899 457.771L531.142 458.414" stroke="white" stroke-width="1.5" stroke-miterlimit="10"/>
<path d="M562.83 457.842L565.822 473.797L550.066 474.792" stroke="white" stroke-width="1.5" stroke-miterlimit="10"/>
<path d="M582.137 473.213L585.129 489.168L569.372 490.163" stroke="white" stroke-width="1.5" stroke-miterlimit="10"/>
<path d="M601.068 489.23L603.729 505.266L587.972 505.909" stroke="white" stroke-width="1.5" stroke-miterlimit="10"/>
<path d="M620.01 505.064L622.67 521.1L606.914 521.743" stroke="white" stroke-width="1.5" stroke-miterlimit="10"/>
<path d="M638.605 521.17L641.6 537.122L625.841 538.12" stroke="white" stroke-width="1.5" stroke-miterlimit="10"/>
<path d="M657.91 536.541L660.905 552.493L645.148 553.489" stroke="white" stroke-width="1.5" stroke-miterlimit="10"/>
<path d="M676.841 552.561L679.501 568.596L663.745 569.239" stroke="white" stroke-width="1.5" stroke-miterlimit="10"/>
<path d="M695.783 568.393L698.444 584.429L682.687 585.071" stroke="white" stroke-width="1.5" stroke-miterlimit="10"/>
<path d="M714.378 584.498L717.372 600.451L701.616 601.446" stroke="white" stroke-width="1.5" stroke-miterlimit="10"/>
<path d="M733.684 599.867L736.678 615.82L720.922 616.815" stroke="white" stroke-width="1.5" stroke-miterlimit="10"/>
<path d="M752.613 615.889L755.274 631.925L739.517 632.567" stroke="white" stroke-width="1.5" stroke-miterlimit="10"/>
<path d="M771.209 631.992L774.201 647.947L758.445 648.943" stroke="white" stroke-width="1.5" stroke-miterlimit="10"/>
<path d="M790.516 647.361L793.508 663.317L777.751 664.312" stroke="white" stroke-width="1.5" stroke-miterlimit="10"/>
<path d="M468.359 418.328L471.352 434.283L455.595 435.279" stroke="white" stroke-width="1.5" stroke-miterlimit="10"/>
<path d="M487.666 433.695L490.658 449.651L474.902 450.646" stroke="white" stroke-width="1.5" stroke-miterlimit="10"/>
<path d="M506.594 449.717L509.254 465.753L493.498 466.396" stroke="white" stroke-width="1.5" stroke-miterlimit="10"/>
<path d="M525.535 465.551L528.196 481.587L512.439 482.23" stroke="white" stroke-width="1.5" stroke-miterlimit="10"/>
<path d="M544.134 481.654L547.126 497.61L531.37 498.605" stroke="white" stroke-width="1.5" stroke-miterlimit="10"/>
<path d="M563.44 497.023L566.433 512.979L550.676 513.974" stroke="white" stroke-width="1.5" stroke-miterlimit="10"/>
<path d="M582.366 513.045L585.029 529.078L569.272 529.721" stroke="white" stroke-width="1.5" stroke-miterlimit="10"/>
<path d="M601.311 528.879L603.973 544.912L588.217 545.555" stroke="white" stroke-width="1.5" stroke-miterlimit="10"/>
<path d="M619.905 544.98L622.898 560.936L607.141 561.931" stroke="white" stroke-width="1.5" stroke-miterlimit="10"/>
<path d="M639.212 560.354L642.204 576.309L626.448 577.304" stroke="white" stroke-width="1.5" stroke-miterlimit="10"/>
<path d="M658.142 576.371L660.802 592.407L645.045 593.05" stroke="white" stroke-width="1.5" stroke-miterlimit="10"/>
<path d="M677.083 592.203L679.743 608.239L663.987 608.882" stroke="white" stroke-width="1.5" stroke-miterlimit="10"/>
<path d="M695.678 608.309L698.672 624.261L682.916 625.256" stroke="white" stroke-width="1.5" stroke-miterlimit="10"/>
<path d="M714.985 623.678L717.98 639.63L702.223 640.625" stroke="white" stroke-width="1.5" stroke-miterlimit="10"/>
<path d="M733.915 639.699L736.575 655.735L720.819 656.378" stroke="white" stroke-width="1.5" stroke-miterlimit="10"/>
<path d="M752.508 655.805L755.502 671.757L739.746 672.752" stroke="white" stroke-width="1.5" stroke-miterlimit="10"/>
<path d="M771.816 671.176L774.811 687.128L759.054 688.123" stroke="white" stroke-width="1.5" stroke-miterlimit="10"/>
<path d="M449.658 442.143L452.653 458.095L436.896 459.09" stroke="white" stroke-width="1.5" stroke-miterlimit="10"/>
<path d="M468.966 457.512L471.96 473.464L456.204 474.459" stroke="white" stroke-width="1.5" stroke-miterlimit="10"/>
<path d="M487.895 473.531L490.555 489.567L474.796 490.208" stroke="white" stroke-width="1.5" stroke-miterlimit="10"/>
<path d="M506.838 489.365L509.498 505.401L493.742 506.044" stroke="white" stroke-width="1.5" stroke-miterlimit="10"/>
<path d="M525.433 505.469L528.425 521.424L512.668 522.419" stroke="white" stroke-width="1.5" stroke-miterlimit="10"/>
<path d="M544.74 520.838L547.733 536.793L531.976 537.788" stroke="white" stroke-width="1.5" stroke-miterlimit="10"/>
<path d="M563.668 536.859L566.328 552.895L550.572 553.538" stroke="white" stroke-width="1.5" stroke-miterlimit="10"/>
<path d="M582.61 552.691L585.271 568.727L569.514 569.37" stroke="white" stroke-width="1.5" stroke-miterlimit="10"/>
<path d="M601.206 568.795L604.198 584.75L588.442 585.745" stroke="white" stroke-width="1.5" stroke-miterlimit="10"/>
<path d="M620.512 584.168L623.504 600.123L607.747 601.118" stroke="white" stroke-width="1.5" stroke-miterlimit="10"/>
<path d="M639.44 600.189L642.103 616.223L626.346 616.865" stroke="white" stroke-width="1.5" stroke-miterlimit="10"/>
<path d="M658.382 616.021L661.044 632.055L645.288 632.697" stroke="white" stroke-width="1.5" stroke-miterlimit="10"/>
<path d="M676.979 632.125L679.972 648.08L664.215 649.075" stroke="white" stroke-width="1.5" stroke-miterlimit="10"/>
<path d="M696.286 647.492L699.281 663.445L683.522 664.443" stroke="white" stroke-width="1.5" stroke-miterlimit="10"/>
<path d="M715.216 663.514L717.876 679.55L702.12 680.192" stroke="white" stroke-width="1.5" stroke-miterlimit="10"/>
<path d="M733.809 679.619L736.803 695.572L721.044 696.57" stroke="white" stroke-width="1.5" stroke-miterlimit="10"/>
<path d="M753.116 694.99L756.111 710.943L740.354 711.938" stroke="white" stroke-width="1.5" stroke-miterlimit="10"/>
<path d="M430.959 465.957L433.954 481.909L418.194 482.902" stroke="white" stroke-width="1.5" stroke-miterlimit="10"/>
<path d="M450.267 481.326L453.261 497.279L437.502 498.272" stroke="white" stroke-width="1.5" stroke-miterlimit="10"/>
<path d="M469.192 497.344L471.853 513.38L456.096 514.023" stroke="white" stroke-width="1.5" stroke-miterlimit="10"/>
<path d="M488.139 513.18L490.799 529.216L475.042 529.858" stroke="white" stroke-width="1.5" stroke-miterlimit="10"/>
<path d="M506.731 529.285L509.726 545.238L493.969 546.233" stroke="white" stroke-width="1.5" stroke-miterlimit="10"/>
<path d="M526.041 544.652L529.033 560.608L513.277 561.603" stroke="white" stroke-width="1.5" stroke-miterlimit="10"/>
<path d="M544.969 560.674L547.629 576.71L531.87 577.35" stroke="white" stroke-width="1.5" stroke-miterlimit="10"/>
<path d="M563.911 576.506L566.572 592.542L550.815 593.185" stroke="white" stroke-width="1.5" stroke-miterlimit="10"/>
<path d="M582.507 592.609L585.499 608.565L569.743 609.56" stroke="white" stroke-width="1.5" stroke-miterlimit="10"/>
<path d="M601.812 607.982L604.805 623.938L589.048 624.933" stroke="white" stroke-width="1.5" stroke-miterlimit="10"/>
<path d="M620.741 624.004L623.402 640.04L607.645 640.683" stroke="white" stroke-width="1.5" stroke-miterlimit="10"/>
<path d="M639.684 639.836L642.344 655.872L626.587 656.515" stroke="white" stroke-width="1.5" stroke-miterlimit="10"/>
<path d="M658.281 655.939L661.274 671.895L645.517 672.89" stroke="white" stroke-width="1.5" stroke-miterlimit="10"/>
<path d="M677.587 671.307L680.579 687.262L664.823 688.257" stroke="white" stroke-width="1.5" stroke-miterlimit="10"/>
<path d="M696.515 687.33L699.177 703.363L683.421 704.006" stroke="white" stroke-width="1.5" stroke-miterlimit="10"/>
<path d="M715.11 703.434L718.103 719.389L702.346 720.384" stroke="white" stroke-width="1.5" stroke-miterlimit="10"/>
<path d="M734.417 718.805L737.409 734.76L721.653 735.755" stroke="white" stroke-width="1.5" stroke-miterlimit="10"/>
</svg>
