<svg width="913" height="493" viewBox="0 0 913 493" fill="none" xmlns="http://www.w3.org/2000/svg">
<path d="M920.651 517.414L899.982 511.26L909.769 492.041" stroke="#A79BFD" stroke-width="3" stroke-miterlimit="10"/>
<path d="M937.213 467.387L916.543 461.228L926.329 442.01" stroke="#A79BFD" stroke-width="3" stroke-miterlimit="10"/>
<path d="M905.891 480.855L885.22 474.697L895.006 455.478" stroke="#A79BFD" stroke-width="3" stroke-miterlimit="10"/>
<path d="M874.073 493.484L853.539 486.885L863.736 467.88" stroke="#A79BFD" stroke-width="3" stroke-miterlimit="10"/>
<path d="M842.466 506.244L821.932 499.645L832.129 480.64" stroke="#A79BFD" stroke-width="3" stroke-miterlimit="10"/>
<path d="M810.781 518.426L790.112 512.272L799.898 493.053" stroke="#A79BFD" stroke-width="3" stroke-miterlimit="10"/>
<path d="M922.454 430.828L901.784 424.67L911.57 405.451" stroke="#A79BFD" stroke-width="3" stroke-miterlimit="10"/>
<path d="M891.132 444.297L870.461 438.138L880.247 418.92" stroke="#A79BFD" stroke-width="3" stroke-miterlimit="10"/>
<path d="M859.313 456.924L838.78 450.329L848.977 431.324" stroke="#A79BFD" stroke-width="3" stroke-miterlimit="10"/>
<path d="M827.706 469.684L807.174 463.088L817.371 444.084" stroke="#A79BFD" stroke-width="3" stroke-miterlimit="10"/>
<path d="M796.022 481.867L775.351 475.709L785.138 456.49" stroke="#A79BFD" stroke-width="3" stroke-miterlimit="10"/>
<path d="M764.702 495.338L744.033 489.184L753.817 469.961" stroke="#A79BFD" stroke-width="3" stroke-miterlimit="10"/>
<path d="M732.882 507.967L712.348 501.367L722.545 482.363" stroke="#A79BFD" stroke-width="3" stroke-miterlimit="10"/>
<path d="M939.379 382.086L918.845 375.486L929.041 356.482" stroke="#A79BFD" stroke-width="3" stroke-miterlimit="10"/>
<path d="M907.695 394.27L887.025 388.111L896.811 368.892" stroke="#A79BFD" stroke-width="3" stroke-miterlimit="10"/>
<path d="M876.374 407.74L855.703 401.582L865.489 382.363" stroke="#A79BFD" stroke-width="3" stroke-miterlimit="10"/>
<path d="M844.554 420.367L824.02 413.768L834.217 394.763" stroke="#A79BFD" stroke-width="3" stroke-miterlimit="10"/>
<path d="M812.948 433.127L792.414 426.527L802.61 407.523" stroke="#A79BFD" stroke-width="3" stroke-miterlimit="10"/>
<path d="M781.263 445.311L760.593 439.152L770.379 419.934" stroke="#A79BFD" stroke-width="3" stroke-miterlimit="10"/>
<path d="M749.943 458.781L729.272 452.623L739.058 433.404" stroke="#A79BFD" stroke-width="3" stroke-miterlimit="10"/>
<path d="M718.123 471.406L697.59 464.811L707.787 445.806" stroke="#A79BFD" stroke-width="3" stroke-miterlimit="10"/>
<path d="M686.438 483.59L665.768 477.431L675.554 458.213" stroke="#A79BFD" stroke-width="3" stroke-miterlimit="10"/>
<path d="M655.118 497.061L634.447 490.902L644.233 471.684" stroke="#A79BFD" stroke-width="3" stroke-miterlimit="10"/>
<path d="M924.619 345.527L904.085 338.928L914.282 319.923" stroke="#A79BFD" stroke-width="3" stroke-miterlimit="10"/>
<path d="M892.935 357.711L872.265 351.552L882.051 332.334" stroke="#A79BFD" stroke-width="3" stroke-miterlimit="10"/>
<path d="M861.614 371.182L840.944 365.023L850.73 345.805" stroke="#A79BFD" stroke-width="3" stroke-miterlimit="10"/>
<path d="M829.794 383.807L809.26 377.207L819.461 358.201" stroke="#A79BFD" stroke-width="3" stroke-miterlimit="10"/>
<path d="M798.187 396.566L777.653 389.967L787.85 370.962" stroke="#A79BFD" stroke-width="3" stroke-miterlimit="10"/>
<!-- <path d="M766.504 408.75L745.833 402.591L755.619 383.373" stroke="#A79BFD" stroke-width="3" stroke-miterlimit="10"/> -->
<!-- <path d="M735.183 422.221L714.512 416.062L724.298 396.844" stroke="#A79BFD" stroke-width="3" stroke-miterlimit="10"/> -->
<!-- <path d="M703.362 434.846L682.828 428.246L693.025 409.241" stroke="#A79BFD" stroke-width="3" stroke-miterlimit="10"/> -->
<path d="M671.679 447.031L651.009 440.873L660.799 421.653" stroke="#A79BFD" stroke-width="3" stroke-miterlimit="10"/>
<path d="M640.358 460.502L619.687 454.343L629.478 435.123" stroke="#A79BFD" stroke-width="3" stroke-miterlimit="10"/>
<path d="M621.481 509.936L600.812 503.781L610.603 484.561" stroke="#A79BFD" stroke-width="3" stroke-miterlimit="10"/>
<path d="M606.726 473.375L586.051 467.218L595.841 447.998" stroke="#A79BFD" stroke-width="3" stroke-miterlimit="10"/>
<path d="M575.405 486.846L554.731 480.693L564.52 461.469" stroke="#A79BFD" stroke-width="3" stroke-miterlimit="10"/>
<path d="M543.587 499.477L523.053 492.877L533.249 473.872" stroke="#A79BFD" stroke-width="3" stroke-miterlimit="10"/>
<path d="M511.975 512.236L491.44 505.637L501.637 486.632" stroke="#A79BFD" stroke-width="3" stroke-miterlimit="10"/>
</svg>
