<svg width="968" height="757" viewBox="0 0 968 757" fill="none" xmlns="http://www.w3.org/2000/svg">
<path d="M229.09 28.0977L232.499 43.9691L216.774 45.3764" stroke="#59FFC6" stroke-width="1.5" stroke-miterlimit="10"/>
<path d="M248.793 42.9551L252.202 58.8265L236.477 60.2338" stroke="#59FFC6" stroke-width="1.5" stroke-miterlimit="10"/>
<path d="M268.132 58.4766L271.211 74.4374L255.477 75.4924" stroke="#59FFC6" stroke-width="1.5" stroke-miterlimit="10"/>
<path d="M287.486 73.8125L290.566 89.7733L274.829 90.8262" stroke="#59FFC6" stroke-width="1.5" stroke-miterlimit="10"/>
<path d="M306.494 89.418L309.906 105.292L294.178 106.697" stroke="#59FFC6" stroke-width="1.5" stroke-miterlimit="10"/>
<path d="M326.196 104.277L329.608 120.151L313.88 121.556" stroke="#59FFC6" stroke-width="1.5" stroke-miterlimit="10"/>
<path d="M345.538 119.801L348.617 135.762L332.883 136.817" stroke="#59FFC6" stroke-width="1.5" stroke-miterlimit="10"/>
<path d="M364.891 135.133L367.972 151.091L352.235 152.149" stroke="#59FFC6" stroke-width="1.5" stroke-miterlimit="10"/>
<path d="M383.901 150.744L387.31 166.616L371.583 168.021" stroke="#59FFC6" stroke-width="1.5" stroke-miterlimit="10"/>
<path d="M403.604 165.602L407.013 181.473L391.286 182.878" stroke="#59FFC6" stroke-width="1.5" stroke-miterlimit="10"/>
<path d="M422.945 181.127L426.027 197.085L410.29 198.138" stroke="#59FFC6" stroke-width="1.5" stroke-miterlimit="10"/>
<path d="M442.297 196.453L445.376 212.414L429.642 213.469" stroke="#59FFC6" stroke-width="1.5" stroke-miterlimit="10"/>
<path d="M461.307 212.066L464.718 227.935L448.99 229.345" stroke="#59FFC6" stroke-width="1.5" stroke-miterlimit="10"/>
<path d="M481.01 226.926L484.421 242.794L468.694 244.204" stroke="#59FFC6" stroke-width="1.5" stroke-miterlimit="10"/>
<path d="M500.352 242.445L503.431 258.406L487.696 259.461" stroke="#59FFC6" stroke-width="1.5" stroke-miterlimit="10"/>
<path d="M519.361 258.059L522.772 273.927L507.045 275.332" stroke="#59FFC6" stroke-width="1.5" stroke-miterlimit="10"/>
<path d="M539.062 272.918L542.474 288.787L526.746 290.192" stroke="#59FFC6" stroke-width="1.5" stroke-miterlimit="10"/>
<path d="M211.018 52.3965L214.429 68.2651L198.704 69.6723" stroke="#59FFC6" stroke-width="1.5" stroke-miterlimit="10"/>
<path d="M230.722 67.2539L234.133 83.1225L218.408 84.5297" stroke="#59FFC6" stroke-width="1.5" stroke-miterlimit="10"/>
<path d="M250.062 82.7715L253.142 98.7323L237.407 99.7874" stroke="#59FFC6" stroke-width="1.5" stroke-miterlimit="10"/>
<path d="M269.414 98.1035L272.493 114.064L256.759 115.119" stroke="#59FFC6" stroke-width="1.5" stroke-miterlimit="10"/>
<path d="M288.425 113.715L291.834 129.586L276.109 130.994" stroke="#59FFC6" stroke-width="1.5" stroke-miterlimit="10"/>
<path d="M308.127 128.574L311.536 144.446L295.811 145.853" stroke="#59FFC6" stroke-width="1.5" stroke-miterlimit="10"/>
<path d="M327.469 144.094L330.548 160.055L314.814 161.11" stroke="#59FFC6" stroke-width="1.5" stroke-miterlimit="10"/>
<path d="M346.821 159.428L349.901 175.389L334.164 176.441" stroke="#59FFC6" stroke-width="1.5" stroke-miterlimit="10"/>
<path d="M365.829 175.037L369.241 190.911L353.513 192.316" stroke="#59FFC6" stroke-width="1.5" stroke-miterlimit="10"/>
<path d="M385.531 189.898L388.943 205.772L373.215 207.177" stroke="#59FFC6" stroke-width="1.5" stroke-miterlimit="10"/>
<path d="M404.872 205.418L407.954 221.376L392.217 222.434" stroke="#59FFC6" stroke-width="1.5" stroke-miterlimit="10"/>
<path d="M424.228 220.75L427.309 236.708L411.575 237.763" stroke="#59FFC6" stroke-width="1.5" stroke-miterlimit="10"/>
<path d="M443.236 236.363L446.645 252.235L430.918 253.64" stroke="#59FFC6" stroke-width="1.5" stroke-miterlimit="10"/>
<path d="M462.938 251.221L466.347 267.092L450.62 268.497" stroke="#59FFC6" stroke-width="1.5" stroke-miterlimit="10"/>
<path d="M482.282 266.74L485.361 282.701L469.624 283.754" stroke="#59FFC6" stroke-width="1.5" stroke-miterlimit="10"/>
<path d="M501.288 282.352L504.702 298.222L488.972 299.63" stroke="#59FFC6" stroke-width="1.5" stroke-miterlimit="10"/>
<path d="M520.99 297.213L524.404 313.084L508.674 314.492" stroke="#59FFC6" stroke-width="1.5" stroke-miterlimit="10"/>
<path d="M192.947 76.6934L196.358 92.562L180.631 93.9721" stroke="#59FFC6" stroke-width="1.5" stroke-miterlimit="10"/>
<path d="M212.651 91.5527L216.062 107.421L200.335 108.831" stroke="#59FFC6" stroke-width="1.5" stroke-miterlimit="10"/>
<path d="M231.994 107.07L235.073 123.031L219.339 124.086" stroke="#59FFC6" stroke-width="1.5" stroke-miterlimit="10"/>
<path d="M251.345 122.402L254.424 138.363L238.69 139.418" stroke="#59FFC6" stroke-width="1.5" stroke-miterlimit="10"/>
<path d="M270.353 138.016L273.764 153.884L258.039 155.291" stroke="#59FFC6" stroke-width="1.5" stroke-miterlimit="10"/>
<path d="M290.056 152.875L293.467 168.744L277.742 170.151" stroke="#59FFC6" stroke-width="1.5" stroke-miterlimit="10"/>
<path d="M309.398 168.393L312.478 184.353L296.743 185.408" stroke="#59FFC6" stroke-width="1.5" stroke-miterlimit="10"/>
<path d="M328.748 183.725L331.827 199.685L316.093 200.74" stroke="#59FFC6" stroke-width="1.5" stroke-miterlimit="10"/>
<path d="M347.76 199.336L351.169 215.207L335.444 216.615" stroke="#59FFC6" stroke-width="1.5" stroke-miterlimit="10"/>
<path d="M367.462 214.195L370.871 230.067L355.146 231.474" stroke="#59FFC6" stroke-width="1.5" stroke-miterlimit="10"/>
<path d="M386.804 229.717L389.883 245.678L374.149 246.733" stroke="#59FFC6" stroke-width="1.5" stroke-miterlimit="10"/>
<path d="M406.156 245.049L409.235 261.01L393.498 262.063" stroke="#59FFC6" stroke-width="1.5" stroke-miterlimit="10"/>
<path d="M425.165 260.658L428.577 276.532L412.849 277.937" stroke="#59FFC6" stroke-width="1.5" stroke-miterlimit="10"/>
<path d="M444.867 275.516L448.279 291.389L432.551 292.794" stroke="#59FFC6" stroke-width="1.5" stroke-miterlimit="10"/>
<path d="M464.208 291.039L467.289 306.997L451.553 308.055" stroke="#59FFC6" stroke-width="1.5" stroke-miterlimit="10"/>
<path d="M483.218 306.65L486.627 322.522L470.902 323.929" stroke="#59FFC6" stroke-width="1.5" stroke-miterlimit="10"/>
<path d="M502.92 321.512L506.329 337.383L490.604 338.79" stroke="#59FFC6" stroke-width="1.5" stroke-miterlimit="10"/>
<path d="M174.878 100.984L178.287 116.856L162.562 118.263" stroke="#59FFC6" stroke-width="1.5" stroke-miterlimit="10"/>
<path d="M194.582 115.844L197.991 131.715L182.266 133.122" stroke="#59FFC6" stroke-width="1.5" stroke-miterlimit="10"/>
<path d="M213.925 131.361L217.004 147.322L201.27 148.377" stroke="#59FFC6" stroke-width="1.5" stroke-miterlimit="10"/>
<path d="M233.275 146.693L236.355 162.654L220.62 163.709" stroke="#59FFC6" stroke-width="1.5" stroke-miterlimit="10"/>
<path d="M252.283 162.307L255.694 178.175L239.967 179.585" stroke="#59FFC6" stroke-width="1.5" stroke-miterlimit="10"/>
<path d="M271.986 177.166L275.397 193.035L259.672 194.442" stroke="#59FFC6" stroke-width="1.5" stroke-miterlimit="10"/>
<path d="M291.329 192.684L294.408 208.644L278.674 209.699" stroke="#59FFC6" stroke-width="1.5" stroke-miterlimit="10"/>
<path d="M310.679 208.016L313.758 223.976L298.024 225.031" stroke="#59FFC6" stroke-width="1.5" stroke-miterlimit="10"/>
<path d="M329.689 223.627L333.101 239.496L317.375 240.903" stroke="#59FFC6" stroke-width="1.5" stroke-miterlimit="10"/>
<path d="M349.391 238.488L352.802 254.357L337.077 255.764" stroke="#59FFC6" stroke-width="1.5" stroke-miterlimit="10"/>
<path d="M368.734 254.008L371.814 269.969L356.079 271.024" stroke="#59FFC6" stroke-width="1.5" stroke-miterlimit="10"/>
<path d="M388.084 269.338L391.163 285.299L375.429 286.354" stroke="#59FFC6" stroke-width="1.5" stroke-miterlimit="10"/>
<path d="M407.096 284.949L410.505 300.821L394.78 302.228" stroke="#59FFC6" stroke-width="1.5" stroke-miterlimit="10"/>
<path d="M426.799 299.807L430.208 315.678L414.483 317.085" stroke="#59FFC6" stroke-width="1.5" stroke-miterlimit="10"/>
<path d="M446.139 315.33L449.218 331.291L433.484 332.346" stroke="#59FFC6" stroke-width="1.5" stroke-miterlimit="10"/>
<path d="M465.148 330.941L468.557 346.813L452.832 348.22" stroke="#59FFC6" stroke-width="1.5" stroke-miterlimit="10"/>
<path d="M484.851 345.803L488.259 361.674L472.534 363.081" stroke="#59FFC6" stroke-width="1.5" stroke-miterlimit="10"/>
<path d="M156.809 125.283L160.217 141.155L144.492 142.562" stroke="#59FFC6" stroke-width="1.5" stroke-miterlimit="10"/>
<path d="M176.513 140.143L179.922 156.014L164.197 157.421" stroke="#59FFC6" stroke-width="1.5" stroke-miterlimit="10"/>
<path d="M195.852 155.664L198.933 171.622L183.196 172.68" stroke="#59FFC6" stroke-width="1.5" stroke-miterlimit="10"/>
<path d="M215.203 170.994L218.285 186.952L202.55 188.007" stroke="#59FFC6" stroke-width="1.5" stroke-miterlimit="10"/>
<path d="M234.214 186.605L237.623 202.477L221.898 203.884" stroke="#59FFC6" stroke-width="1.5" stroke-miterlimit="10"/>
<path d="M253.917 201.465L257.326 217.336L241.601 218.744" stroke="#59FFC6" stroke-width="1.5" stroke-miterlimit="10"/>
<path d="M273.26 216.982L276.339 232.943L260.605 233.998" stroke="#59FFC6" stroke-width="1.5" stroke-miterlimit="10"/>
<path d="M292.609 232.314L295.689 248.275L279.954 249.33" stroke="#59FFC6" stroke-width="1.5" stroke-miterlimit="10"/>
<path d="M311.62 247.926L315.031 263.794L299.304 265.204" stroke="#59FFC6" stroke-width="1.5" stroke-miterlimit="10"/>
<path d="M331.321 262.787L334.732 278.656L319.007 280.063" stroke="#59FFC6" stroke-width="1.5" stroke-miterlimit="10"/>
<path d="M350.665 278.307L353.744 294.267L338.01 295.323" stroke="#59FFC6" stroke-width="1.5" stroke-miterlimit="10"/>
<path d="M370.015 293.637L373.094 309.598L357.36 310.653" stroke="#59FFC6" stroke-width="1.5" stroke-miterlimit="10"/>
<path d="M389.022 309.252L392.434 325.121L376.709 326.528" stroke="#59FFC6" stroke-width="1.5" stroke-miterlimit="10"/>
<path d="M408.725 324.111L412.136 339.98L396.411 341.387" stroke="#59FFC6" stroke-width="1.5" stroke-miterlimit="10"/>
<path d="M428.069 339.629L431.149 355.59L415.414 356.645" stroke="#59FFC6" stroke-width="1.5" stroke-miterlimit="10"/>
<path d="M447.079 355.24L450.488 371.112L434.763 372.519" stroke="#59FFC6" stroke-width="1.5" stroke-miterlimit="10"/>
<path d="M466.781 370.102L470.19 385.973L454.465 387.38" stroke="#59FFC6" stroke-width="1.5" stroke-miterlimit="10"/>
<path d="M138.74 149.578L142.149 165.45L126.424 166.857" stroke="#59FFC6" stroke-width="1.5" stroke-miterlimit="10"/>
<path d="M158.442 164.438L161.851 180.309L146.126 181.716" stroke="#59FFC6" stroke-width="1.5" stroke-miterlimit="10"/>
<path d="M177.783 179.959L180.862 195.92L165.128 196.975" stroke="#59FFC6" stroke-width="1.5" stroke-miterlimit="10"/>
<path d="M197.133 195.289L200.212 211.25L184.478 212.305" stroke="#59FFC6" stroke-width="1.5" stroke-miterlimit="10"/>
<path d="M216.144 210.9L219.552 226.772L203.827 228.179" stroke="#59FFC6" stroke-width="1.5" stroke-miterlimit="10"/>
<path d="M235.847 225.758L239.256 241.629L223.531 243.037" stroke="#59FFC6" stroke-width="1.5" stroke-miterlimit="10"/>
<path d="M255.188 241.279L258.269 257.237L242.535 258.292" stroke="#59FFC6" stroke-width="1.5" stroke-miterlimit="10"/>
<path d="M274.537 256.611L277.619 272.569L261.884 273.624" stroke="#59FFC6" stroke-width="1.5" stroke-miterlimit="10"/>
<path d="M293.548 272.221L296.957 288.092L281.232 289.499" stroke="#59FFC6" stroke-width="1.5" stroke-miterlimit="10"/>
<path d="M313.251 287.082L316.66 302.953L300.935 304.361" stroke="#59FFC6" stroke-width="1.5" stroke-miterlimit="10"/>
<path d="M332.594 302.602L335.673 318.562L319.939 319.617" stroke="#59FFC6" stroke-width="1.5" stroke-miterlimit="10"/>
<path d="M351.945 317.93L355.025 333.89L339.29 334.946" stroke="#59FFC6" stroke-width="1.5" stroke-miterlimit="10"/>
<path d="M370.954 333.545L374.365 349.414L358.64 350.821" stroke="#59FFC6" stroke-width="1.5" stroke-miterlimit="10"/>
<path d="M390.656 348.404L394.067 364.273L378.342 365.68" stroke="#59FFC6" stroke-width="1.5" stroke-miterlimit="10"/>
<path d="M409.998 363.922L413.077 379.883L397.343 380.938" stroke="#59FFC6" stroke-width="1.5" stroke-miterlimit="10"/>
<path d="M429.006 379.537L432.417 395.406L416.692 396.813" stroke="#59FFC6" stroke-width="1.5" stroke-miterlimit="10"/>
<path d="M448.709 394.396L452.12 410.265L436.395 411.672" stroke="#59FFC6" stroke-width="1.5" stroke-miterlimit="10"/>
<path d="M120.667 173.875L124.078 189.744L108.353 191.151" stroke="#59FFC6" stroke-width="1.5" stroke-miterlimit="10"/>
<path d="M140.371 188.734L143.782 204.603L128.057 206.01" stroke="#59FFC6" stroke-width="1.5" stroke-miterlimit="10"/>
<path d="M159.714 204.252L162.793 220.213L147.056 221.266" stroke="#59FFC6" stroke-width="1.5" stroke-miterlimit="10"/>
<path d="M179.063 219.584L182.143 235.545L166.408 236.6" stroke="#59FFC6" stroke-width="1.5" stroke-miterlimit="10"/>
<path d="M198.074 235.195L201.483 251.067L185.758 252.474" stroke="#59FFC6" stroke-width="1.5" stroke-miterlimit="10"/>
<path d="M217.777 250.053L221.186 265.924L205.461 267.331" stroke="#59FFC6" stroke-width="1.5" stroke-miterlimit="10"/>
<path d="M237.118 265.574L240.197 281.535L224.463 282.59" stroke="#59FFC6" stroke-width="1.5" stroke-miterlimit="10"/>
<path d="M256.468 280.906L259.547 296.867L243.813 297.922" stroke="#59FFC6" stroke-width="1.5" stroke-miterlimit="10"/>
<path d="M275.479 296.518L278.888 312.389L263.163 313.796" stroke="#59FFC6" stroke-width="1.5" stroke-miterlimit="10"/>
<path d="M295.182 311.377L298.591 327.248L282.865 328.656" stroke="#59FFC6" stroke-width="1.5" stroke-miterlimit="10"/>
<path d="M314.523 326.898L317.605 342.856L301.871 343.911" stroke="#59FFC6" stroke-width="1.5" stroke-miterlimit="10"/>
<path d="M333.873 342.229L336.954 358.186L321.22 359.242" stroke="#59FFC6" stroke-width="1.5" stroke-miterlimit="10"/>
<path d="M352.885 357.84L356.294 373.711L340.569 375.119" stroke="#59FFC6" stroke-width="1.5" stroke-miterlimit="10"/>
<path d="M372.588 372.697L375.999 388.566L360.272 389.976" stroke="#59FFC6" stroke-width="1.5" stroke-miterlimit="10"/>
<path d="M391.929 388.219L395.008 404.18L379.274 405.235" stroke="#59FFC6" stroke-width="1.5" stroke-miterlimit="10"/>
<path d="M410.938 403.832L414.349 419.701L398.621 421.111" stroke="#59FFC6" stroke-width="1.5" stroke-miterlimit="10"/>
<path d="M430.64 418.693L434.051 434.562L418.326 435.969" stroke="#59FFC6" stroke-width="1.5" stroke-miterlimit="10"/>
<path d="M102.599 198.17L106.01 214.039L90.282 215.444" stroke="#59FFC6" stroke-width="1.5" stroke-miterlimit="10"/>
<path d="M122.302 213.027L125.713 228.896L109.985 230.301" stroke="#59FFC6" stroke-width="1.5" stroke-miterlimit="10"/>
<path d="M141.642 228.545L144.721 244.506L128.986 245.561" stroke="#59FFC6" stroke-width="1.5" stroke-miterlimit="10"/>
<path d="M160.995 243.879L164.074 259.84L148.34 260.895" stroke="#59FFC6" stroke-width="1.5" stroke-miterlimit="10"/>
<path d="M180.003 259.492L183.414 275.361L167.689 276.768" stroke="#59FFC6" stroke-width="1.5" stroke-miterlimit="10"/>
<path d="M199.709 274.348L203.118 290.219L187.393 291.626" stroke="#59FFC6" stroke-width="1.5" stroke-miterlimit="10"/>
<path d="M219.049 289.871L222.128 305.832L206.391 306.885" stroke="#59FFC6" stroke-width="1.5" stroke-miterlimit="10"/>
<path d="M238.399 305.199L241.479 321.16L225.744 322.215" stroke="#59FFC6" stroke-width="1.5" stroke-miterlimit="10"/>
<path d="M257.41 320.812L260.819 336.684L245.094 338.091" stroke="#59FFC6" stroke-width="1.5" stroke-miterlimit="10"/>
<path d="M277.113 335.672L280.522 351.543L264.797 352.951" stroke="#59FFC6" stroke-width="1.5" stroke-miterlimit="10"/>
<path d="M296.453 351.191L299.532 367.152L283.798 368.207" stroke="#59FFC6" stroke-width="1.5" stroke-miterlimit="10"/>
<path d="M315.803 366.523L318.882 382.484L303.148 383.539" stroke="#59FFC6" stroke-width="1.5" stroke-miterlimit="10"/>
<path d="M334.813 382.135L338.222 398.006L322.497 399.413" stroke="#59FFC6" stroke-width="1.5" stroke-miterlimit="10"/>
<path d="M354.517 396.994L357.926 412.866L342.2 414.273" stroke="#59FFC6" stroke-width="1.5" stroke-miterlimit="10"/>
<path d="M373.857 412.516L376.939 428.474L361.204 429.529" stroke="#59FFC6" stroke-width="1.5" stroke-miterlimit="10"/>
<path d="M392.869 428.127L396.278 443.998L380.553 445.406" stroke="#59FFC6" stroke-width="1.5" stroke-miterlimit="10"/>
<path d="M412.57 442.986L415.979 458.858L400.254 460.265" stroke="#59FFC6" stroke-width="1.5" stroke-miterlimit="10"/>
<path d="M559.206 289.514L562.615 305.385L546.89 306.792" stroke="#59FFC6" stroke-width="1.5" stroke-miterlimit="10"/>
<path d="M578.908 304.373L582.317 320.245L566.592 321.652" stroke="#59FFC6" stroke-width="1.5" stroke-miterlimit="10"/>
<path d="M598.249 319.895L601.328 335.855L585.594 336.91" stroke="#59FFC6" stroke-width="1.5" stroke-miterlimit="10"/>
<path d="M617.603 335.227L620.682 351.187L604.945 352.24" stroke="#59FFC6" stroke-width="1.5" stroke-miterlimit="10"/>
<path d="M636.611 350.836L640.023 366.71L624.295 368.115" stroke="#59FFC6" stroke-width="1.5" stroke-miterlimit="10"/>
<path d="M656.313 365.693L659.725 381.567L643.997 382.972" stroke="#59FFC6" stroke-width="1.5" stroke-miterlimit="10"/>
<path d="M675.654 381.217L678.734 397.178L662.999 398.233" stroke="#59FFC6" stroke-width="1.5" stroke-miterlimit="10"/>
<path d="M695.008 396.549L698.089 412.507L682.353 413.565" stroke="#59FFC6" stroke-width="1.5" stroke-miterlimit="10"/>
<path d="M714.019 412.16L717.427 428.032L701.7 429.437" stroke="#59FFC6" stroke-width="1.5" stroke-miterlimit="10"/>
<path d="M733.721 427.02L737.13 442.891L721.402 444.296" stroke="#59FFC6" stroke-width="1.5" stroke-miterlimit="10"/>
<path d="M753.061 442.541L756.142 458.499L740.405 459.552" stroke="#59FFC6" stroke-width="1.5" stroke-miterlimit="10"/>
<path d="M772.414 457.871L775.493 473.832L759.759 474.887" stroke="#59FFC6" stroke-width="1.5" stroke-miterlimit="10"/>
<path d="M791.422 473.484L794.833 489.353L779.106 490.763" stroke="#59FFC6" stroke-width="1.5" stroke-miterlimit="10"/>
<path d="M811.125 488.342L814.536 504.21L798.809 505.62" stroke="#59FFC6" stroke-width="1.5" stroke-miterlimit="10"/>
<path d="M830.466 503.863L833.545 519.824L817.811 520.879" stroke="#59FFC6" stroke-width="1.5" stroke-miterlimit="10"/>
<path d="M849.476 519.477L852.887 535.345L837.159 536.75" stroke="#59FFC6" stroke-width="1.5" stroke-miterlimit="10"/>
<path d="M869.179 534.334L872.59 550.203L856.862 551.608" stroke="#59FFC6" stroke-width="1.5" stroke-miterlimit="10"/>
<path d="M541.135 313.812L544.546 329.681L528.821 331.088" stroke="#59FFC6" stroke-width="1.5" stroke-miterlimit="10"/>
<path d="M560.837 328.67L564.248 344.539L548.523 345.946" stroke="#59FFC6" stroke-width="1.5" stroke-miterlimit="10"/>
<path d="M580.18 344.189L583.259 360.15L567.525 361.205" stroke="#59FFC6" stroke-width="1.5" stroke-miterlimit="10"/>
<path d="M599.53 359.52L602.61 375.48L586.875 376.535" stroke="#59FFC6" stroke-width="1.5" stroke-miterlimit="10"/>
<path d="M618.542 375.133L621.951 391.004L606.226 392.412" stroke="#59FFC6" stroke-width="1.5" stroke-miterlimit="10"/>
<path d="M638.244 389.988L641.653 405.86L625.928 407.267" stroke="#59FFC6" stroke-width="1.5" stroke-miterlimit="10"/>
<path d="M657.583 405.512L660.662 421.473L644.928 422.528" stroke="#59FFC6" stroke-width="1.5" stroke-miterlimit="10"/>
<path d="M676.939 420.844L680.019 436.805L664.282 437.857" stroke="#59FFC6" stroke-width="1.5" stroke-miterlimit="10"/>
<path d="M695.946 436.453L699.358 452.327L683.63 453.732" stroke="#59FFC6" stroke-width="1.5" stroke-miterlimit="10"/>
<path d="M715.648 451.312L719.06 467.186L703.332 468.591" stroke="#59FFC6" stroke-width="1.5" stroke-miterlimit="10"/>
<path d="M734.989 466.836L738.071 482.794L722.334 483.852" stroke="#59FFC6" stroke-width="1.5" stroke-miterlimit="10"/>
<path d="M754.342 482.168L757.423 498.126L741.689 499.181" stroke="#59FFC6" stroke-width="1.5" stroke-miterlimit="10"/>
<path d="M773.353 497.779L776.761 513.651L761.034 515.056" stroke="#59FFC6" stroke-width="1.5" stroke-miterlimit="10"/>
<path d="M793.056 512.637L796.465 528.508L780.737 529.913" stroke="#59FFC6" stroke-width="1.5" stroke-miterlimit="10"/>
<path d="M812.398 528.156L815.478 544.117L799.741 545.17" stroke="#59FFC6" stroke-width="1.5" stroke-miterlimit="10"/>
<path d="M831.404 543.77L834.818 559.64L819.088 561.048" stroke="#59FFC6" stroke-width="1.5" stroke-miterlimit="10"/>
<path d="M851.107 558.629L854.521 574.5L838.791 575.908" stroke="#59FFC6" stroke-width="1.5" stroke-miterlimit="10"/>
<path d="M523.067 338.105L526.478 353.974L510.751 355.384" stroke="#59FFC6" stroke-width="1.5" stroke-miterlimit="10"/>
<path d="M542.771 352.963L546.183 368.831L530.455 370.242" stroke="#59FFC6" stroke-width="1.5" stroke-miterlimit="10"/>
<path d="M562.112 368.48L565.192 384.441L549.457 385.496" stroke="#59FFC6" stroke-width="1.5" stroke-miterlimit="10"/>
<path d="M581.464 383.812L584.543 399.773L568.809 400.828" stroke="#59FFC6" stroke-width="1.5" stroke-miterlimit="10"/>
<path d="M600.473 399.428L603.884 415.296L588.159 416.704" stroke="#59FFC6" stroke-width="1.5" stroke-miterlimit="10"/>
<path d="M620.174 414.287L623.585 430.156L607.86 431.563" stroke="#59FFC6" stroke-width="1.5" stroke-miterlimit="10"/>
<path d="M639.518 429.805L642.597 445.765L626.862 446.821" stroke="#59FFC6" stroke-width="1.5" stroke-miterlimit="10"/>
<path d="M658.869 445.135L661.948 461.096L646.214 462.151" stroke="#59FFC6" stroke-width="1.5" stroke-miterlimit="10"/>
<path d="M677.879 460.746L681.288 476.618L665.563 478.025" stroke="#59FFC6" stroke-width="1.5" stroke-miterlimit="10"/>
<path d="M697.581 475.607L700.99 491.479L685.265 492.886" stroke="#59FFC6" stroke-width="1.5" stroke-miterlimit="10"/>
<path d="M716.922 491.129L720.001 507.09L704.267 508.145" stroke="#59FFC6" stroke-width="1.5" stroke-miterlimit="10"/>
<path d="M736.274 506.461L739.354 522.422L723.617 523.475" stroke="#59FFC6" stroke-width="1.5" stroke-miterlimit="10"/>
<path d="M755.284 522.07L758.696 537.944L742.968 539.349" stroke="#59FFC6" stroke-width="1.5" stroke-miterlimit="10"/>
<path d="M774.986 536.928L778.398 552.801L762.67 554.206" stroke="#59FFC6" stroke-width="1.5" stroke-miterlimit="10"/>
<path d="M794.328 552.451L797.41 568.409L781.673 569.467" stroke="#59FFC6" stroke-width="1.5" stroke-miterlimit="10"/>
<path d="M813.338 568.061L816.747 583.932L801.022 585.339" stroke="#59FFC6" stroke-width="1.5" stroke-miterlimit="10"/>
<path d="M833.04 582.922L836.449 598.793L820.724 600.201" stroke="#59FFC6" stroke-width="1.5" stroke-miterlimit="10"/>
<path d="M504.995 362.4L508.404 378.272L492.679 379.679" stroke="#59FFC6" stroke-width="1.5" stroke-miterlimit="10"/>
<path d="M524.697 377.258L528.106 393.129L512.381 394.537" stroke="#59FFC6" stroke-width="1.5" stroke-miterlimit="10"/>
<path d="M544.041 392.777L547.12 408.738L531.386 409.793" stroke="#59FFC6" stroke-width="1.5" stroke-miterlimit="10"/>
<path d="M563.392 408.107L566.471 424.068L550.736 425.123" stroke="#59FFC6" stroke-width="1.5" stroke-miterlimit="10"/>
<path d="M582.4 423.723L585.811 439.591L570.084 441.001" stroke="#59FFC6" stroke-width="1.5" stroke-miterlimit="10"/>
<path d="M602.104 438.582L605.515 454.451L589.79 455.858" stroke="#59FFC6" stroke-width="1.5" stroke-miterlimit="10"/>
<path d="M621.446 454.1L624.526 470.06L608.791 471.115" stroke="#59FFC6" stroke-width="1.5" stroke-miterlimit="10"/>
<path d="M640.796 469.432L643.875 485.392L628.141 486.448" stroke="#59FFC6" stroke-width="1.5" stroke-miterlimit="10"/>
<path d="M659.804 485.045L663.215 500.914L647.49 502.321" stroke="#59FFC6" stroke-width="1.5" stroke-miterlimit="10"/>
<path d="M679.507 499.904L682.918 515.773L667.193 517.18" stroke="#59FFC6" stroke-width="1.5" stroke-miterlimit="10"/>
<path d="M698.851 515.424L701.93 531.385L686.195 532.44" stroke="#59FFC6" stroke-width="1.5" stroke-miterlimit="10"/>
<path d="M718.199 530.754L721.278 546.715L705.544 547.77" stroke="#59FFC6" stroke-width="1.5" stroke-miterlimit="10"/>
<path d="M737.212 546.365L740.621 562.237L724.896 563.644" stroke="#59FFC6" stroke-width="1.5" stroke-miterlimit="10"/>
<path d="M756.914 561.223L760.323 577.094L744.598 578.501" stroke="#59FFC6" stroke-width="1.5" stroke-miterlimit="10"/>
<path d="M776.254 576.746L779.333 592.707L763.599 593.762" stroke="#59FFC6" stroke-width="1.5" stroke-miterlimit="10"/>
<path d="M795.266 592.357L798.675 608.229L782.949 609.636" stroke="#59FFC6" stroke-width="1.5" stroke-miterlimit="10"/>
<path d="M814.968 607.217L818.377 623.088L802.652 624.496" stroke="#59FFC6" stroke-width="1.5" stroke-miterlimit="10"/>
<path d="M486.926 386.699L490.335 402.571L474.61 403.978" stroke="#59FFC6" stroke-width="1.5" stroke-miterlimit="10"/>
<path d="M506.628 401.557L510.037 417.428L494.312 418.835" stroke="#59FFC6" stroke-width="1.5" stroke-miterlimit="10"/>
<path d="M525.969 417.08L529.05 433.038L513.314 434.096" stroke="#59FFC6" stroke-width="1.5" stroke-miterlimit="10"/>
<path d="M545.32 432.41L548.402 448.368L532.667 449.423" stroke="#59FFC6" stroke-width="1.5" stroke-miterlimit="10"/>
<path d="M564.329 448.021L567.738 463.893L552.013 465.3" stroke="#59FFC6" stroke-width="1.5" stroke-miterlimit="10"/>
<path d="M584.032 462.881L587.441 478.752L571.716 480.16" stroke="#59FFC6" stroke-width="1.5" stroke-miterlimit="10"/>
<path d="M603.376 478.396L606.455 494.357L590.721 495.412" stroke="#59FFC6" stroke-width="1.5" stroke-miterlimit="10"/>
<path d="M622.726 493.73L625.805 509.691L610.07 510.746" stroke="#59FFC6" stroke-width="1.5" stroke-miterlimit="10"/>
<path d="M641.736 509.342L645.147 525.21L629.42 526.62" stroke="#59FFC6" stroke-width="1.5" stroke-miterlimit="10"/>
<path d="M661.437 524.203L664.848 540.072L649.123 541.479" stroke="#59FFC6" stroke-width="1.5" stroke-miterlimit="10"/>
<path d="M680.78 539.723L683.86 555.683L668.125 556.739" stroke="#59FFC6" stroke-width="1.5" stroke-miterlimit="10"/>
<path d="M700.131 555.053L703.21 571.014L687.476 572.069" stroke="#59FFC6" stroke-width="1.5" stroke-miterlimit="10"/>
<path d="M719.141 570.666L722.552 586.535L706.827 587.942" stroke="#59FFC6" stroke-width="1.5" stroke-miterlimit="10"/>
<path d="M738.843 585.525L742.254 601.394L726.529 602.801" stroke="#59FFC6" stroke-width="1.5" stroke-miterlimit="10"/>
<path d="M758.185 601.045L761.264 617.006L745.529 618.061" stroke="#59FFC6" stroke-width="1.5" stroke-miterlimit="10"/>
<path d="M777.195 616.656L780.604 632.528L764.879 633.935" stroke="#59FFC6" stroke-width="1.5" stroke-miterlimit="10"/>
<path d="M796.898 631.516L800.307 647.387L784.582 648.794" stroke="#59FFC6" stroke-width="1.5" stroke-miterlimit="10"/>
<path d="M468.856 410.994L472.265 426.866L456.54 428.273" stroke="#59FFC6" stroke-width="1.5" stroke-miterlimit="10"/>
<path d="M488.56 425.852L491.968 441.723L476.243 443.13" stroke="#59FFC6" stroke-width="1.5" stroke-miterlimit="10"/>
<path d="M507.899 441.373L510.979 457.334L495.244 458.389" stroke="#59FFC6" stroke-width="1.5" stroke-miterlimit="10"/>
<path d="M527.249 456.703L530.328 472.664L514.594 473.719" stroke="#59FFC6" stroke-width="1.5" stroke-miterlimit="10"/>
<path d="M546.263 472.314L549.672 488.186L533.947 489.593" stroke="#59FFC6" stroke-width="1.5" stroke-miterlimit="10"/>
<path d="M565.966 487.174L569.375 503.045L553.65 504.453" stroke="#59FFC6" stroke-width="1.5" stroke-miterlimit="10"/>
<path d="M585.304 502.695L588.385 518.653L572.651 519.708" stroke="#59FFC6" stroke-width="1.5" stroke-miterlimit="10"/>
<path d="M604.656 518.027L607.738 533.985L592.003 535.04" stroke="#59FFC6" stroke-width="1.5" stroke-miterlimit="10"/>
<path d="M623.666 533.637L627.075 549.508L611.35 550.915" stroke="#59FFC6" stroke-width="1.5" stroke-miterlimit="10"/>
<path d="M643.368 548.498L646.777 564.37L631.052 565.777" stroke="#59FFC6" stroke-width="1.5" stroke-miterlimit="10"/>
<path d="M662.712 564.016L665.791 579.976L650.057 581.032" stroke="#59FFC6" stroke-width="1.5" stroke-miterlimit="10"/>
<path d="M682.061 579.348L685.14 595.308L669.405 596.364" stroke="#59FFC6" stroke-width="1.5" stroke-miterlimit="10"/>
<path d="M701.07 594.959L704.481 610.828L688.756 612.235" stroke="#59FFC6" stroke-width="1.5" stroke-miterlimit="10"/>
<path d="M720.774 609.818L724.185 625.687L708.46 627.094" stroke="#59FFC6" stroke-width="1.5" stroke-miterlimit="10"/>
<path d="M740.116 625.338L743.195 641.299L727.461 642.354" stroke="#59FFC6" stroke-width="1.5" stroke-miterlimit="10"/>
<path d="M759.124 640.953L762.535 656.822L746.81 658.229" stroke="#59FFC6" stroke-width="1.5" stroke-miterlimit="10"/>
<path d="M778.828 655.812L782.239 671.681L766.514 673.088" stroke="#59FFC6" stroke-width="1.5" stroke-miterlimit="10"/>
<path d="M450.785 435.293L454.196 451.162L438.471 452.569" stroke="#59FFC6" stroke-width="1.5" stroke-miterlimit="10"/>
<path d="M470.489 450.15L473.9 466.019L458.175 467.426" stroke="#59FFC6" stroke-width="1.5" stroke-miterlimit="10"/>
<path d="M489.83 465.668L492.909 481.629L477.172 482.682" stroke="#59FFC6" stroke-width="1.5" stroke-miterlimit="10"/>
<path d="M509.182 481L512.261 496.961L496.527 498.016" stroke="#59FFC6" stroke-width="1.5" stroke-miterlimit="10"/>
<path d="M528.192 496.611L531.601 512.483L515.876 513.89" stroke="#59FFC6" stroke-width="1.5" stroke-miterlimit="10"/>
<path d="M547.895 511.471L551.303 527.342L535.578 528.749" stroke="#59FFC6" stroke-width="1.5" stroke-miterlimit="10"/>
<path d="M567.236 526.992L570.316 542.953L554.581 544.008" stroke="#59FFC6" stroke-width="1.5" stroke-miterlimit="10"/>
<path d="M586.586 542.322L589.665 558.283L573.931 559.338" stroke="#59FFC6" stroke-width="1.5" stroke-miterlimit="10"/>
<path d="M605.597 557.934L609.006 573.805L593.281 575.212" stroke="#59FFC6" stroke-width="1.5" stroke-miterlimit="10"/>
<path d="M625.299 572.795L628.708 588.666L612.983 590.074" stroke="#59FFC6" stroke-width="1.5" stroke-miterlimit="10"/>
<path d="M644.64 588.316L647.721 604.274L631.987 605.329" stroke="#59FFC6" stroke-width="1.5" stroke-miterlimit="10"/>
<path d="M663.989 603.646L667.071 619.604L651.336 620.659" stroke="#59FFC6" stroke-width="1.5" stroke-miterlimit="10"/>
<path d="M683.002 619.258L686.411 635.129L670.686 636.536" stroke="#59FFC6" stroke-width="1.5" stroke-miterlimit="10"/>
<path d="M702.704 634.115L706.115 649.984L690.388 651.394" stroke="#59FFC6" stroke-width="1.5" stroke-miterlimit="10"/>
<path d="M722.047 649.637L725.126 665.598L709.392 666.653" stroke="#59FFC6" stroke-width="1.5" stroke-miterlimit="10"/>
<path d="M741.056 665.248L744.467 681.117L728.739 682.527" stroke="#59FFC6" stroke-width="1.5" stroke-miterlimit="10"/>
<path d="M760.758 680.109L764.169 695.978L748.444 697.385" stroke="#59FFC6" stroke-width="1.5" stroke-miterlimit="10"/>
<path d="M432.716 459.588L436.127 475.456L420.399 476.862" stroke="#59FFC6" stroke-width="1.5" stroke-miterlimit="10"/>
<path d="M452.42 474.445L455.831 490.314L440.103 491.719" stroke="#59FFC6" stroke-width="1.5" stroke-miterlimit="10"/>
<path d="M471.758 489.961L474.837 505.922L459.103 506.977" stroke="#59FFC6" stroke-width="1.5" stroke-miterlimit="10"/>
<path d="M491.112 505.295L494.192 521.256L478.457 522.311" stroke="#59FFC6" stroke-width="1.5" stroke-miterlimit="10"/>
<path d="M510.121 520.91L513.532 536.779L497.807 538.186" stroke="#59FFC6" stroke-width="1.5" stroke-miterlimit="10"/>
<path d="M529.825 535.766L533.234 551.637L517.509 553.044" stroke="#59FFC6" stroke-width="1.5" stroke-miterlimit="10"/>
<path d="M549.167 551.287L552.246 567.248L536.509 568.301" stroke="#59FFC6" stroke-width="1.5" stroke-miterlimit="10"/>
<path d="M568.517 566.617L571.596 582.578L555.861 583.633" stroke="#59FFC6" stroke-width="1.5" stroke-miterlimit="10"/>
<path d="M587.527 582.229L590.936 598.1L575.211 599.507" stroke="#59FFC6" stroke-width="1.5" stroke-miterlimit="10"/>
<path d="M607.229 597.09L610.638 612.961L594.913 614.369" stroke="#59FFC6" stroke-width="1.5" stroke-miterlimit="10"/>
<path d="M626.57 612.609L629.65 628.57L613.915 629.625" stroke="#59FFC6" stroke-width="1.5" stroke-miterlimit="10"/>
<path d="M645.921 627.941L649 643.902L633.266 644.957" stroke="#59FFC6" stroke-width="1.5" stroke-miterlimit="10"/>
<path d="M664.934 643.553L668.343 659.424L652.617 660.831" stroke="#59FFC6" stroke-width="1.5" stroke-miterlimit="10"/>
<path d="M684.635 658.41L688.044 674.282L672.319 675.689" stroke="#59FFC6" stroke-width="1.5" stroke-miterlimit="10"/>
<path d="M703.976 673.932L707.057 689.89L691.323 690.945" stroke="#59FFC6" stroke-width="1.5" stroke-miterlimit="10"/>
<path d="M722.987 689.545L726.396 705.416L710.671 706.824" stroke="#59FFC6" stroke-width="1.5" stroke-miterlimit="10"/>
<path d="M742.688 704.404L746.097 720.276L730.372 721.683" stroke="#59FFC6" stroke-width="1.5" stroke-miterlimit="10"/>
</svg>
