<svg width="144" height="50" viewBox="0 0 144 50" fill="none" xmlns="http://www.w3.org/2000/svg">
<path d="M44.179 15.1591L42.3858 21.8595C41.8189 23.9978 40.4693 25.0679 38.3331 25.0679C36.6447 25.0679 35.8025 24.4045 35.8025 23.0796C35.8025 22.716 35.8621 22.3093 35.9792 21.8595L37.7723 15.1591C38.3495 13.0208 39.7052 11.9506 41.8415 11.9506C43.5176 11.9506 44.3556 12.6141 44.3556 13.939C44.3556 14.3025 44.2961 14.7093 44.179 15.1591ZM54.7965 11.0078C54.7965 8.36013 53.1162 7.0332 49.7517 7.0332H36.5563C32.2859 7.0332 29.5787 9.16943 28.4366 13.446L25.7129 23.5746C25.4767 24.4825 25.3596 25.2939 25.3596 26.0107C25.3596 28.6605 27.0419 29.9854 30.4044 29.9854H43.6018C47.8722 29.9854 50.5795 27.8491 51.7215 23.5746L54.4452 13.446C54.6794 12.5361 54.7965 11.7247 54.7965 11.0078Z" fill="#FF99D1"/>
<path d="M65.9273 23.1009C64.2388 23.1009 63.3926 22.4375 63.3926 21.1085C63.3926 20.7449 63.4501 20.3382 63.5692 19.8884L64.4258 17.1256C65.005 14.9853 66.5641 13.9151 68.7003 13.9151H80.3859L84.5515 7.01758H64.4134C60.1389 7.01758 57.4276 9.15792 56.2834 13.4365L53.5577 23.5775C53.3215 24.4874 53.2044 25.2906 53.2044 25.9848C53.1941 28.6592 54.8764 29.9964 58.2553 29.9964H70.8858L75.1172 23.0989H65.9273V23.1009Z" fill="#FF99D1"/>
<path d="M91.7245 13.8001H92.3427L92.125 20.712H88.1319L91.7245 13.8001ZM73.3159 29.9964H83.5205L85.7759 26.1779H92.0778L91.9648 29.9964H100.688V7.01758H86.918L73.3159 29.9964Z" fill="#FF99D1"/>
<path d="M31.5587 7.01953H2.26564L0 13.9007H9.27206L4.43063 29.9984H14.2429L19.0864 13.8842H26.7789C27.6683 9.57068 29.5806 7.92538 31.5587 7.01953Z" fill="#FF99D1"/>
<path d="M143.424 31.5969C143.126 30.952 142.539 30.5411 141.813 30.4754C140.347 30.3378 138.888 29.2348 137.479 27.191C137.288 26.9157 137.093 26.6097 136.888 26.2625C138.186 23.6908 139.17 20.7412 139.813 17.4958C140.357 14.7413 140.871 11.7793 140.945 8.78856C141.002 6.41817 140.834 3.02279 138.695 0.933806C138.252 0.500398 137.623 0.286775 137.013 0.362775C136.428 0.436722 135.939 0.753048 135.633 1.25424C133.554 4.6681 132.114 8.4065 131.356 12.3688C130.818 15.1849 130.304 18.8638 131.116 22.3392C131.418 23.6374 131.876 24.9952 132.447 26.2748C131.2 28.2899 129.707 29.9044 128.008 31.0793L127.983 31.0916C127.357 31.4778 126.825 31.5456 126.753 31.5538C126.718 31.5538 126.685 31.5538 126.652 31.5517C126.217 31.5353 125.697 30.915 125.391 30.042C124.81 28.3864 124.769 26.5521 124.81 24.8165C124.824 24.2331 124.631 23.734 124.251 23.3724C123.955 23.0931 123.567 22.9185 123.14 22.8713C122.863 22.2817 122.409 21.836 121.79 21.5505C120.114 20.774 118.251 21.2259 116.996 21.6326C112.816 22.9883 109.505 26.9588 109.123 31.0752C108.909 33.3675 110.117 35.4627 112.196 36.4117C112.929 36.7465 113.738 36.9293 114.605 36.9539C115.809 36.9909 117.111 36.7321 118.473 36.1898C120.04 35.5633 121.355 34.4233 122.384 32.7986C123.074 33.9262 124.007 34.7273 125.165 35.1854C125.74 35.4154 126.381 35.5099 127.076 35.4689C127.474 35.436 128.115 35.3271 128.902 34.9964L128.93 34.9841C128.986 34.9615 129.041 34.9348 129.093 34.9101C129.36 34.789 129.621 34.6513 129.904 34.4829C131.664 33.2915 133.242 31.7756 134.602 29.9681C136.588 32.6075 139.014 34.1255 141.633 34.3679C142.319 34.4274 142.9 34.1768 143.266 33.6592C143.668 33.0944 143.732 32.2645 143.424 31.5969ZM137.03 9.18294C136.943 11.6601 136.51 14.1394 136.056 16.4502C135.733 18.0894 135.325 19.6484 134.836 21.0965C134.828 21.0616 134.819 21.0246 134.811 20.9897C134.25 18.4037 134.692 15.4766 135.255 12.6995C135.647 10.7584 136.247 8.85018 137.036 7.0159C137.077 7.75742 137.052 8.50099 137.03 9.18294ZM119.43 26.7144C119.65 27.0657 120.01 27.3389 120.437 27.4847C119.878 29.7544 118.96 31.3381 117.705 32.1947C116.787 32.8232 114.837 33.3799 113.749 32.8622C113.305 32.6507 113.067 32.2707 113.02 31.6996C112.863 29.8284 114.585 26.9465 117.399 25.6422C118.009 25.3587 118.75 25.1431 119.365 25.0609L119.34 25.1184C119.108 25.6833 119.141 26.2502 119.43 26.7144Z" fill="white"/>
<path d="M106.968 34.6546L106.913 34.6361C106.204 34.4019 105.325 34.1123 104.908 33.5125C104.483 32.8983 104.376 32.0664 104.273 31.2633C104.257 31.14 104.242 31.0189 104.226 30.8997C104.148 30.341 103.719 29.8809 103.109 29.696C102.455 29.4988 101.78 29.657 101.385 30.1007C99.2613 32.4896 96.3425 35.4618 92.602 37.2488C90.8499 38.0869 88.991 38.434 87.5038 38.2019C87.0417 38.13 86.7829 38.054 86.5076 37.9C86.4645 37.8281 86.4029 37.7685 86.3638 37.7295C86.3454 37.711 86.3289 37.6966 86.3104 37.6822C86.3104 37.6288 86.3063 37.5734 86.3043 37.52C86.3002 37.4625 86.294 37.4029 86.2961 37.3762C86.3002 37.3043 86.3002 37.3022 86.3864 36.99C86.522 36.5012 86.6802 36.2341 86.9657 35.7453C87.4792 34.8702 88.1673 34.024 89.1944 33.001C90.0858 32.1137 91.043 31.3372 92.0392 30.6943C92.1091 30.6491 92.183 30.6039 92.257 30.5587C92.1543 30.7539 92.0454 30.947 91.9365 31.1359C91.3922 32.0993 91.8667 33.0359 92.6185 33.4611C93.3107 33.8535 94.3028 33.835 94.8471 32.8716C95.7263 31.3187 96.4781 29.5933 96.0447 27.492C95.9091 26.8388 95.1573 26.1404 94.3953 26.2144C91.2936 26.5287 88.5905 28.8539 86.826 30.5752C83.8784 33.4529 82.6213 36.0061 82.9849 38.3765C83.18 39.6521 84.2523 40.7387 85.8524 41.2851C86.561 41.5275 87.3026 41.6363 88.0359 41.6589C89.7633 41.7103 91.4312 41.2748 92.4439 40.94C95.5086 39.9232 98.5404 37.8835 101.704 34.708C101.819 34.9462 101.946 35.166 102.09 35.3735C103.068 36.7867 104.618 37.446 106.007 37.9041C106.58 38.0931 107.124 37.9924 107.539 37.6227C107.999 37.2119 108.221 36.5135 108.092 35.8849C107.971 35.2995 107.562 34.8497 106.968 34.6546ZM86.292 37.8281L86.2961 37.824L86.3207 37.8075L86.3392 37.7952C86.3413 37.7993 86.3413 37.8055 86.3413 37.8117C86.3556 37.8137 86.368 37.8178 86.3762 37.824L86.3413 37.8794L86.2632 38.0027C86.2468 37.9821 86.2262 37.9596 86.2057 37.937C86.2488 37.9082 86.2755 37.8712 86.292 37.8281Z" fill="white"/>
<path d="M103.786 25.9549C104.135 25.9652 104.485 25.8625 104.795 25.6386C104.957 25.5215 105.097 25.3695 105.212 25.1908C105.881 25.5113 106.652 25.2627 107.122 24.8026C107.738 24.1987 107.818 23.3565 107.321 22.6561C107.163 22.4343 107.007 22.1816 106.841 21.9146C106.072 20.6842 105.119 19.1539 103.349 19.4723C102.114 19.6941 101.609 20.4418 101.402 21.0293C100.907 22.4322 101.57 24.2624 102.445 25.2709C102.817 25.7064 103.302 25.9406 103.786 25.9549Z" fill="white"/>
<path d="M75.0397 27.4771C74.7439 27.0827 74.3003 26.8136 73.8443 26.7602C73.3657 26.7027 72.9035 26.8794 72.5358 27.2532C71.9155 27.8858 71.3712 28.6459 70.8761 29.5805C66.9673 30.8684 62.7133 32.413 58.2313 34.1754C55.9698 33.3949 53.394 33.0395 52.1472 32.869C49.216 32.4664 46.1924 32.2179 43.136 32.1337C42.6574 32.1213 42.1808 32.1131 41.7022 32.1049C40.6813 32.0885 39.6256 32.072 38.5882 31.9981C38.1035 31.9632 37.4647 31.9036 36.8361 31.7454C36.6554 31.7003 36.5198 31.6551 36.4274 31.6119C36.4048 31.5996 36.376 31.577 36.3452 31.5524C36.3822 31.4312 36.4294 31.3511 36.5136 31.2134L36.5712 31.1169C36.984 30.4082 37.6352 29.8043 38.1589 29.3175C39.7036 27.8879 41.6324 26.5877 44.0603 25.347C45.0236 24.852 46.0897 24.3508 47.4166 23.7736C48.2958 23.3895 49.2386 22.9992 50.2964 22.5802C51.3153 22.1714 52.2642 21.8243 53.2029 21.5182C53.3426 21.473 54.2135 21.2348 54.9099 21.0437C55.2426 20.9534 55.483 20.8876 55.6576 20.8363C55.7582 21.2594 56.0006 21.6333 56.3354 21.8715C56.6045 22.0626 57.0564 22.2556 57.687 22.0872C58.8208 21.7853 59.7287 21.0253 60.2443 19.9489C60.5031 19.4067 60.501 18.7288 60.2402 18.2173C60.0327 17.8106 59.6712 17.5436 59.2255 17.4635C58.0978 17.2581 56.9208 17.2519 55.6329 17.445C55.5898 17.4512 55.5446 17.4573 55.5076 17.4656C49.6823 18.3406 42.5177 22.3727 41.7186 22.8287L41.6755 22.8554C39.5804 23.9934 37.8221 25.1683 36.3 26.4459C35.2011 27.3703 33.6708 28.8122 33.0813 30.6691C32.4199 32.756 33.9029 34.3151 35.6653 34.9334C36.8012 35.3318 38.1179 35.3894 39.2784 35.4366L39.681 35.4551C40.4349 35.49 41.201 35.5003 41.9425 35.5105C42.8053 35.5229 43.6967 35.5352 44.5697 35.5865C47.5111 35.7611 50.1814 35.944 52.8147 36.3712C50.2019 37.4619 48.5854 38.1808 48.5772 38.1849C47.125 38.7539 45.9439 39.2654 44.8716 39.7892C39.8597 41.9624 36.9614 44.7929 36.8423 44.91L36.832 44.9202C36.4972 45.214 36.222 45.5015 35.994 45.8014C35.4784 46.4772 35.2196 47.531 35.8029 48.369C36.5095 49.3755 37.7091 49.5172 38.5841 49.6199C39.1963 49.6918 39.8084 49.735 40.4143 49.7535C42.4376 49.8151 44.3766 49.6117 45.9336 49.4063C49.2242 48.977 52.675 48.0712 56.1896 46.7134C57.2104 46.3191 58.1245 45.9247 58.9872 45.5036C60.1354 44.9449 61.4315 44.1993 62.323 42.9093C63.12 41.757 63.5144 40.4013 63.4055 39.1873C63.3521 38.5773 63.1857 38.0145 62.9146 37.5133C62.8612 37.4147 62.549 36.8436 62.2121 36.4657C65.3897 35.2723 68.1073 34.274 69.2144 33.8652C68.5119 36.1555 68.1894 38.0062 68.1956 39.6557C68.2059 41.8453 69.2206 44.2506 71.4616 44.6902C73.9449 45.177 76.0195 43.2873 77.6874 41.7672C81.6579 38.1459 84.7432 32.9389 81.5018 29.1881C80.0126 27.4668 77.4389 26.7931 75.0397 27.4771ZM74.7008 34.0563C74.329 33.4072 74.2202 32.7581 74.3886 32.1768C74.5468 31.6243 74.9535 31.16 75.5656 30.8355C76.5741 30.2973 77.899 30.6527 78.7638 31.2463C79.5607 31.7927 79.6943 32.7745 79.1684 34.2452C78.5275 36.0323 77.0815 37.6139 75.7525 38.9265C75.6642 39.0127 75.5717 39.1052 75.4773 39.2038C74.6084 40.0788 73.2938 41.3996 72.1209 41.3811C72.0387 41.379 71.9792 41.3482 71.9196 41.2784C71.5745 40.884 71.5437 39.6002 71.6608 38.5711C71.745 37.8193 71.8909 37.0285 72.1045 36.1658C72.6714 36.6834 73.4663 36.6608 74.0641 36.3178C74.783 35.9008 75.2369 34.9888 74.7008 34.0563ZM59.93 40.315V40.3171C59.9074 40.4054 59.8787 40.4855 59.8478 40.5492C59.6548 40.9579 59.2624 41.2969 58.9174 41.5968C58.0772 42.3218 57.044 42.7326 56.13 43.0962C55.8034 43.2277 55.4645 43.3509 55.1358 43.4701C54.953 43.5358 54.7681 43.6036 54.5833 43.6714C52.0917 44.6162 49.4769 45.3475 46.8148 45.8446C44.8675 46.2061 42.8771 46.3807 40.8929 46.3601C40.745 46.3601 40.6074 46.3581 40.4759 46.356C41.4496 45.6186 43.7255 44.0431 47.2133 42.5088C47.5994 42.3218 48.0061 42.1329 48.4622 41.9295C49.1092 41.607 50.2163 41.1264 51.7507 40.4999C53.4802 39.7953 55.7623 38.9018 58.3545 37.9138C59.133 38.2651 59.6301 38.6553 59.9136 39.138C60.045 39.3599 60.0533 39.8754 59.93 40.315Z" fill="white"/>
</svg>
